<svg width="1544" height="100" viewBox="0 0 1544 100" fill="none" xmlns="http://www.w3.org/2000/svg">
<rect width="1544" height="100" fill="white"/>
<path d="M98.8953 45.8V45.3H98.4745L98.4027 45.7146L98.8953 45.8ZM97.5953 53.3L97.1026 53.2146L97.1017 53.2206L97.5953 53.3ZM84.7953 63V63.5L84.8019 63.5L84.7953 63ZM83.9953 63H83.4953V63.5H83.9953V63ZM83.9953 46H84.4953V45.0117L83.6991 45.5972L83.9953 46ZM77.1953 51L76.8991 50.5972L76.6953 50.747V51H77.1953ZM77.1953 63V63.5H77.6953V63H77.1953ZM50.2953 63L49.8696 62.7378L49.4001 63.5H50.2953V63ZM78.1953 17.7L78.621 17.9622L79.0905 17.2H78.1953V17.7ZM69.6953 17.7V17.2H69.3785L69.2432 17.4865L69.6953 17.7ZM46.6953 66.4L46.2432 66.1865L46.1953 66.2879V66.4H46.6953ZM46.6953 68.4H46.1953V68.9H46.6953V68.4ZM77.1953 68.4H77.6953V67.9H77.1953V68.4ZM77.1953 86V86.5H77.6953V86H77.1953ZM74.1953 86V85.5H73.6953V86H74.1953ZM74.1953 87H73.6953V87.5H74.1953V87ZM86.9953 87V87.5H87.4953V87H86.9953ZM86.9953 86H87.4953V85.5H86.9953V86ZM83.9953 86H83.4953V86.5H83.9953V86ZM83.9953 68.4V67.9H83.4953V68.4H83.9953ZM96.1953 68.4V68.9H96.6201L96.6888 68.4808L96.1953 68.4ZM99.8953 45.8L100.389 45.8808L100.484 45.3H99.8953V45.8ZM98.4027 45.7146L97.1027 53.2146L98.088 53.3854L99.388 45.8854L98.4027 45.7146ZM97.1017 53.2206C96.4105 57.5159 95.1481 59.7423 93.2512 60.9536C91.3132 62.1911 88.6061 62.4498 84.7887 62.5L84.8019 63.5C88.5845 63.4502 91.5775 63.2089 93.7894 61.7964C96.0425 60.3577 97.3802 57.7841 98.089 53.3794L97.1017 53.2206ZM84.7953 62.5H83.9953V63.5H84.7953V62.5ZM84.4953 63V46H83.4953V63H84.4953ZM83.6991 45.5972L76.8991 50.5972L77.4915 51.4028L84.2915 46.4028L83.6991 45.5972ZM76.6953 51V63H77.6953V51H76.6953ZM77.1953 62.5L50.2953 62.5V63.5L77.1953 63.5V62.5ZM50.721 63.2622L78.621 17.9622L77.7696 17.4378L49.8696 62.7378L50.721 63.2622ZM78.1953 17.2H69.6953V18.2H78.1953V17.2ZM69.2432 17.4865L46.2432 66.1865L47.1474 66.6135L70.1474 17.9135L69.2432 17.4865ZM46.1953 66.4V68.4H47.1953V66.4H46.1953ZM46.6953 68.9H77.1953V67.9H46.6953V68.9ZM76.6953 68.4V86H77.6953V68.4H76.6953ZM77.1953 85.5H74.1953V86.5H77.1953V85.5ZM73.6953 86V87H74.6953V86H73.6953ZM74.1953 87.5H86.9953V86.5H74.1953V87.5ZM87.4953 87V86H86.4953V87H87.4953ZM86.9953 85.5H83.9953V86.5H86.9953V85.5ZM84.4953 86V68.4H83.4953V86H84.4953ZM83.9953 68.9H96.1953V67.9H83.9953V68.9ZM96.6888 68.4808L100.389 45.8808L99.4019 45.7192L95.7019 68.3192L96.6888 68.4808ZM99.8953 45.3H98.8953V46.3H99.8953V45.3ZM131.922 86L131.929 85.5001L131.922 86ZM158.622 53C158.622 73.8101 146.567 86.5 131.922 86.5V87.5C147.277 87.5 159.622 74.1899 159.622 53H158.622ZM131.922 86.5C117.281 86.5 105.422 73.8152 105.422 53H104.422C104.422 74.1848 116.562 87.5 131.922 87.5V86.5ZM105.422 53C105.422 31.1704 117.393 18.2 132.022 18.2V17.2C116.651 17.2 104.422 30.8296 104.422 53H105.422ZM132.022 18.2C146.651 18.2 158.622 31.1704 158.622 53H159.622C159.622 30.8296 147.393 17.2 132.022 17.2V18.2ZM132.022 18.2C128.417 18.2 125.428 19.2518 122.983 21.1318C120.545 23.0064 118.675 25.6839 117.264 28.8991C114.447 35.3191 113.422 43.9769 113.422 53H114.422C114.422 44.0231 115.446 35.5308 118.18 29.3009C119.544 26.1911 121.324 23.6686 123.592 21.9245C125.854 20.1857 128.626 19.2 132.022 19.2V18.2ZM113.422 53C113.422 61.5245 114.423 69.809 117.216 76.0055C118.615 79.1092 120.474 81.7101 122.901 83.5486C125.335 85.3915 128.314 86.4485 131.915 86.4999L131.929 85.5001C128.529 85.4515 125.759 84.4585 123.505 82.7514C121.245 81.0399 119.478 78.5908 118.128 75.5945C115.421 69.591 114.422 61.4755 114.422 53H113.422ZM131.915 86.4999C135.519 86.5514 138.515 85.5452 140.97 83.72C143.419 81.8998 145.303 79.2854 146.727 76.1572C149.571 69.9109 150.622 61.5266 150.622 53H149.622C149.622 61.4734 148.573 69.6891 145.817 75.7428C144.441 78.7646 142.65 81.2252 140.374 82.9175C138.104 84.6048 135.325 85.5486 131.929 85.5001L131.915 86.4999ZM150.622 53C150.622 43.9769 149.596 35.3191 146.78 28.8991C145.369 25.6839 143.499 23.0064 141.061 21.1318C138.616 19.2518 135.626 18.2 132.022 18.2V19.2C135.417 19.2 138.19 20.1857 140.451 21.9245C142.72 23.6686 144.5 26.1911 145.864 29.3009C148.597 35.5308 149.622 44.0231 149.622 53H150.622ZM216.278 45.8V45.3H215.857L215.785 45.7146L216.278 45.8ZM214.978 53.3L214.485 53.2146L214.484 53.2206L214.978 53.3ZM202.178 63V63.5L202.185 63.5L202.178 63ZM201.378 63H200.878V63.5H201.378V63ZM201.378 46H201.878V45.0117L201.082 45.5972L201.378 46ZM194.578 51L194.282 50.5972L194.078 50.747V51H194.578ZM194.578 63V63.5H195.078V63H194.578ZM167.678 63L167.252 62.7378L166.783 63.5H167.678V63ZM195.578 17.7L196.004 17.9622L196.473 17.2H195.578V17.7ZM187.078 17.7V17.2H186.761L186.626 17.4865L187.078 17.7ZM164.078 66.4L163.626 66.1865L163.578 66.2879V66.4H164.078ZM164.078 68.4H163.578V68.9H164.078V68.4ZM194.578 68.4H195.078V67.9H194.578V68.4ZM194.578 86V86.5H195.078V86H194.578ZM191.578 86V85.5H191.078V86H191.578ZM191.578 87H191.078V87.5H191.578V87ZM204.378 87V87.5H204.878V87H204.378ZM204.378 86H204.878V85.5H204.378V86ZM201.378 86H200.878V86.5H201.378V86ZM201.378 68.4V67.9H200.878V68.4H201.378ZM213.578 68.4V68.9H214.003L214.072 68.4808L213.578 68.4ZM217.278 45.8L217.772 45.8808L217.867 45.3H217.278V45.8ZM215.785 45.7146L214.485 53.2146L215.471 53.3854L216.771 45.8854L215.785 45.7146ZM214.484 53.2206C213.793 57.5159 212.531 59.7423 210.634 60.9536C208.696 62.1911 205.989 62.4498 202.172 62.5L202.185 63.5C205.967 63.4502 208.96 63.2089 211.172 61.7964C213.425 60.3577 214.763 57.7841 215.472 53.3794L214.484 53.2206ZM202.178 62.5H201.378V63.5H202.178V62.5ZM201.878 63V46H200.878V63H201.878ZM201.082 45.5972L194.282 50.5972L194.874 51.4028L201.674 46.4028L201.082 45.5972ZM194.078 51V63H195.078V51H194.078ZM194.578 62.5L167.678 62.5V63.5L194.578 63.5V62.5ZM168.104 63.2622L196.004 17.9622L195.152 17.4378L167.252 62.7378L168.104 63.2622ZM195.578 17.2H187.078V18.2H195.578V17.2ZM186.626 17.4865L163.626 66.1865L164.53 66.6135L187.53 17.9135L186.626 17.4865ZM163.578 66.4V68.4H164.578V66.4H163.578ZM164.078 68.9H194.578V67.9H164.078V68.9ZM194.078 68.4V86H195.078V68.4H194.078ZM194.578 85.5H191.578V86.5H194.578V85.5ZM191.078 86V87H192.078V86H191.078ZM191.578 87.5H204.378V86.5H191.578V87.5ZM204.878 87V86H203.878V87H204.878ZM204.378 85.5H201.378V86.5H204.378V85.5ZM201.878 86V68.4H200.878V86H201.878ZM201.378 68.9H213.578V67.9H201.378V68.9ZM214.072 68.4808L217.772 45.8808L216.785 45.7192L213.085 68.3192L214.072 68.4808ZM217.278 45.3H216.278V46.3H217.278V45.3Z" fill="black"/>
<path d="M868.895 45.8V45.3H868.475L868.403 45.7146L868.895 45.8ZM867.595 53.3L867.103 53.2146L867.102 53.2206L867.595 53.3ZM854.795 63V63.5L854.802 63.5L854.795 63ZM853.995 63H853.495V63.5H853.995V63ZM853.995 46H854.495V45.0117L853.699 45.5972L853.995 46ZM847.195 51L846.899 50.5972L846.695 50.747V51H847.195ZM847.195 63V63.5H847.695V63H847.195ZM820.295 63L819.87 62.7378L819.4 63.5H820.295V63ZM848.195 17.7L848.621 17.9622L849.09 17.2H848.195V17.7ZM839.695 17.7V17.2H839.378L839.243 17.4865L839.695 17.7ZM816.695 66.4L816.243 66.1865L816.195 66.2879V66.4H816.695ZM816.695 68.4H816.195V68.9H816.695V68.4ZM847.195 68.4H847.695V67.9H847.195V68.4ZM847.195 86V86.5H847.695V86H847.195ZM844.195 86V85.5H843.695V86H844.195ZM844.195 87H843.695V87.5H844.195V87ZM856.995 87V87.5H857.495V87H856.995ZM856.995 86H857.495V85.5H856.995V86ZM853.995 86H853.495V86.5H853.995V86ZM853.995 68.4V67.9H853.495V68.4H853.995ZM866.195 68.4V68.9H866.62L866.689 68.4808L866.195 68.4ZM869.895 45.8L870.389 45.8808L870.484 45.3H869.895V45.8ZM868.403 45.7146L867.103 53.2146L868.088 53.3854L869.388 45.8854L868.403 45.7146ZM867.102 53.2206C866.41 57.5159 865.148 59.7423 863.251 60.9536C861.313 62.1911 858.606 62.4498 854.789 62.5L854.802 63.5C858.584 63.4502 861.577 63.2089 863.789 61.7964C866.042 60.3577 867.38 57.7841 868.089 53.3794L867.102 53.2206ZM854.795 62.5H853.995V63.5H854.795V62.5ZM854.495 63V46H853.495V63H854.495ZM853.699 45.5972L846.899 50.5972L847.492 51.4028L854.292 46.4028L853.699 45.5972ZM846.695 51V63H847.695V51H846.695ZM847.195 62.5L820.295 62.5V63.5L847.195 63.5V62.5ZM820.721 63.2622L848.621 17.9622L847.77 17.4378L819.87 62.7378L820.721 63.2622ZM848.195 17.2H839.695V18.2H848.195V17.2ZM839.243 17.4865L816.243 66.1865L817.147 66.6135L840.147 17.9135L839.243 17.4865ZM816.195 66.4V68.4H817.195V66.4H816.195ZM816.695 68.9H847.195V67.9H816.695V68.9ZM846.695 68.4V86H847.695V68.4H846.695ZM847.195 85.5H844.195V86.5H847.195V85.5ZM843.695 86V87H844.695V86H843.695ZM844.195 87.5H856.995V86.5H844.195V87.5ZM857.495 87V86H856.495V87H857.495ZM856.995 85.5H853.995V86.5H856.995V85.5ZM854.495 86V68.4H853.495V86H854.495ZM853.995 68.9H866.195V67.9H853.995V68.9ZM866.689 68.4808L870.389 45.8808L869.402 45.7192L865.702 68.3192L866.689 68.4808ZM869.895 45.3H868.895V46.3H869.895V45.3ZM901.922 86L901.929 85.5001L901.922 86ZM928.622 53C928.622 73.8101 916.567 86.5 901.922 86.5V87.5C917.277 87.5 929.622 74.1899 929.622 53H928.622ZM901.922 86.5C887.281 86.5 875.422 73.8152 875.422 53H874.422C874.422 74.1848 886.562 87.5 901.922 87.5V86.5ZM875.422 53C875.422 31.1704 887.393 18.2 902.022 18.2V17.2C886.651 17.2 874.422 30.8296 874.422 53H875.422ZM902.022 18.2C916.651 18.2 928.622 31.1704 928.622 53H929.622C929.622 30.8296 917.393 17.2 902.022 17.2V18.2ZM902.022 18.2C898.417 18.2 895.428 19.2518 892.983 21.1318C890.545 23.0064 888.675 25.6839 887.264 28.8991C884.447 35.3191 883.422 43.9769 883.422 53H884.422C884.422 44.0231 885.446 35.5308 888.18 29.3009C889.544 26.1911 891.324 23.6686 893.592 21.9245C895.854 20.1857 898.626 19.2 902.022 19.2V18.2ZM883.422 53C883.422 61.5245 884.423 69.809 887.216 76.0055C888.615 79.1092 890.474 81.7101 892.901 83.5486C895.335 85.3915 898.314 86.4485 901.915 86.4999L901.929 85.5001C898.529 85.4515 895.759 84.4585 893.505 82.7514C891.245 81.0399 889.478 78.5908 888.128 75.5945C885.421 69.591 884.422 61.4755 884.422 53H883.422ZM901.915 86.4999C905.519 86.5514 908.515 85.5452 910.97 83.72C913.419 81.8998 915.303 79.2854 916.727 76.1572C919.571 69.9109 920.622 61.5266 920.622 53H919.622C919.622 61.4734 918.573 69.6891 915.817 75.7428C914.441 78.7646 912.65 81.2252 910.374 82.9175C908.104 84.6048 905.325 85.5486 901.929 85.5001L901.915 86.4999ZM920.622 53C920.622 43.9769 919.596 35.3191 916.78 28.8991C915.369 25.6839 913.499 23.0064 911.061 21.1318C908.616 19.2518 905.626 18.2 902.022 18.2V19.2C905.417 19.2 908.19 20.1857 910.451 21.9245C912.72 23.6686 914.5 26.1911 915.864 29.3009C918.597 35.5308 919.622 44.0231 919.622 53H920.622ZM986.278 45.8V45.3H985.857L985.785 45.7146L986.278 45.8ZM984.978 53.3L984.485 53.2146L984.484 53.2206L984.978 53.3ZM972.178 63V63.5L972.185 63.5L972.178 63ZM971.378 63H970.878V63.5H971.378V63ZM971.378 46H971.878V45.0117L971.082 45.5972L971.378 46ZM964.578 51L964.282 50.5972L964.078 50.747V51H964.578ZM964.578 63V63.5H965.078V63H964.578ZM937.678 63L937.252 62.7378L936.783 63.5H937.678V63ZM965.578 17.7L966.004 17.9622L966.473 17.2H965.578V17.7ZM957.078 17.7V17.2H956.761L956.626 17.4865L957.078 17.7ZM934.078 66.4L933.626 66.1865L933.578 66.2879V66.4H934.078ZM934.078 68.4H933.578V68.9H934.078V68.4ZM964.578 68.4H965.078V67.9H964.578V68.4ZM964.578 86V86.5H965.078V86H964.578ZM961.578 86V85.5H961.078V86H961.578ZM961.578 87H961.078V87.5H961.578V87ZM974.378 87V87.5H974.878V87H974.378ZM974.378 86H974.878V85.5H974.378V86ZM971.378 86H970.878V86.5H971.378V86ZM971.378 68.4V67.9H970.878V68.4H971.378ZM983.578 68.4V68.9H984.003L984.072 68.4808L983.578 68.4ZM987.278 45.8L987.772 45.8808L987.867 45.3H987.278V45.8ZM985.785 45.7146L984.485 53.2146L985.471 53.3854L986.771 45.8854L985.785 45.7146ZM984.484 53.2206C983.793 57.5159 982.531 59.7423 980.634 60.9536C978.696 62.1911 975.989 62.4498 972.172 62.5L972.185 63.5C975.967 63.4502 978.96 63.2089 981.172 61.7964C983.425 60.3577 984.763 57.7841 985.472 53.3794L984.484 53.2206ZM972.178 62.5H971.378V63.5H972.178V62.5ZM971.878 63V46H970.878V63H971.878ZM971.082 45.5972L964.282 50.5972L964.874 51.4028L971.674 46.4028L971.082 45.5972ZM964.078 51V63H965.078V51H964.078ZM964.578 62.5L937.678 62.5V63.5L964.578 63.5V62.5ZM938.104 63.2622L966.004 17.9622L965.152 17.4378L937.252 62.7378L938.104 63.2622ZM965.578 17.2H957.078V18.2H965.578V17.2ZM956.626 17.4865L933.626 66.1865L934.53 66.6135L957.53 17.9135L956.626 17.4865ZM933.578 66.4V68.4H934.578V66.4H933.578ZM934.078 68.9H964.578V67.9H934.078V68.9ZM964.078 68.4V86H965.078V68.4H964.078ZM964.578 85.5H961.578V86.5H964.578V85.5ZM961.078 86V87H962.078V86H961.078ZM961.578 87.5H974.378V86.5H961.578V87.5ZM974.878 87V86H973.878V87H974.878ZM974.378 85.5H971.378V86.5H974.378V85.5ZM971.878 86V68.4H970.878V86H971.878ZM971.378 68.9H983.578V67.9H971.378V68.9ZM984.072 68.4808L987.772 45.8808L986.785 45.7192L983.085 68.3192L984.072 68.4808ZM987.278 45.3H986.278V46.3H987.278V45.3Z" fill="black"/>
<path d="M483.895 45.8V45.3H483.475L483.403 45.7146L483.895 45.8ZM482.595 53.3L482.103 53.2146L482.102 53.2206L482.595 53.3ZM469.795 63V63.5L469.802 63.5L469.795 63ZM468.995 63H468.495V63.5H468.995V63ZM468.995 46H469.495V45.0117L468.699 45.5972L468.995 46ZM462.195 51L461.899 50.5972L461.695 50.747V51H462.195ZM462.195 63V63.5H462.695V63H462.195ZM435.295 63L434.87 62.7378L434.4 63.5H435.295V63ZM463.195 17.7L463.621 17.9622L464.09 17.2H463.195V17.7ZM454.695 17.7V17.2H454.378L454.243 17.4865L454.695 17.7ZM431.695 66.4L431.243 66.1865L431.195 66.2879V66.4H431.695ZM431.695 68.4H431.195V68.9H431.695V68.4ZM462.195 68.4H462.695V67.9H462.195V68.4ZM462.195 86V86.5H462.695V86H462.195ZM459.195 86V85.5H458.695V86H459.195ZM459.195 87H458.695V87.5H459.195V87ZM471.995 87V87.5H472.495V87H471.995ZM471.995 86H472.495V85.5H471.995V86ZM468.995 86H468.495V86.5H468.995V86ZM468.995 68.4V67.9H468.495V68.4H468.995ZM481.195 68.4V68.9H481.62L481.689 68.4808L481.195 68.4ZM484.895 45.8L485.389 45.8808L485.484 45.3H484.895V45.8ZM483.403 45.7146L482.103 53.2146L483.088 53.3854L484.388 45.8854L483.403 45.7146ZM482.102 53.2206C481.41 57.5159 480.148 59.7423 478.251 60.9536C476.313 62.1911 473.606 62.4498 469.789 62.5L469.802 63.5C473.584 63.4502 476.577 63.2089 478.789 61.7964C481.042 60.3577 482.38 57.7841 483.089 53.3794L482.102 53.2206ZM469.795 62.5H468.995V63.5H469.795V62.5ZM469.495 63V46H468.495V63H469.495ZM468.699 45.5972L461.899 50.5972L462.492 51.4028L469.292 46.4028L468.699 45.5972ZM461.695 51V63H462.695V51H461.695ZM462.195 62.5L435.295 62.5V63.5L462.195 63.5V62.5ZM435.721 63.2622L463.621 17.9622L462.77 17.4378L434.87 62.7378L435.721 63.2622ZM463.195 17.2H454.695V18.2H463.195V17.2ZM454.243 17.4865L431.243 66.1865L432.147 66.6135L455.147 17.9135L454.243 17.4865ZM431.195 66.4V68.4H432.195V66.4H431.195ZM431.695 68.9H462.195V67.9H431.695V68.9ZM461.695 68.4V86H462.695V68.4H461.695ZM462.195 85.5H459.195V86.5H462.195V85.5ZM458.695 86V87H459.695V86H458.695ZM459.195 87.5H471.995V86.5H459.195V87.5ZM472.495 87V86H471.495V87H472.495ZM471.995 85.5H468.995V86.5H471.995V85.5ZM469.495 86V68.4H468.495V86H469.495ZM468.995 68.9H481.195V67.9H468.995V68.9ZM481.689 68.4808L485.389 45.8808L484.402 45.7192L480.702 68.3192L481.689 68.4808ZM484.895 45.3H483.895V46.3H484.895V45.3ZM516.922 86L516.929 85.5001L516.922 86ZM543.622 53C543.622 73.8101 531.567 86.5 516.922 86.5V87.5C532.277 87.5 544.622 74.1899 544.622 53H543.622ZM516.922 86.5C502.281 86.5 490.422 73.8152 490.422 53H489.422C489.422 74.1848 501.562 87.5 516.922 87.5V86.5ZM490.422 53C490.422 31.1704 502.393 18.2 517.022 18.2V17.2C501.651 17.2 489.422 30.8296 489.422 53H490.422ZM517.022 18.2C531.651 18.2 543.622 31.1704 543.622 53H544.622C544.622 30.8296 532.393 17.2 517.022 17.2V18.2ZM517.022 18.2C513.417 18.2 510.428 19.2518 507.983 21.1318C505.545 23.0064 503.675 25.6839 502.264 28.8991C499.447 35.3191 498.422 43.9769 498.422 53H499.422C499.422 44.0231 500.446 35.5308 503.18 29.3009C504.544 26.1911 506.324 23.6686 508.592 21.9245C510.854 20.1857 513.626 19.2 517.022 19.2V18.2ZM498.422 53C498.422 61.5245 499.423 69.809 502.216 76.0055C503.615 79.1092 505.474 81.7101 507.901 83.5486C510.335 85.3915 513.314 86.4485 516.915 86.4999L516.929 85.5001C513.529 85.4515 510.759 84.4585 508.505 82.7514C506.245 81.0399 504.478 78.5908 503.128 75.5945C500.421 69.591 499.422 61.4755 499.422 53H498.422ZM516.915 86.4999C520.519 86.5514 523.515 85.5452 525.97 83.72C528.419 81.8998 530.303 79.2854 531.727 76.1572C534.571 69.9109 535.622 61.5266 535.622 53H534.622C534.622 61.4734 533.573 69.6891 530.817 75.7428C529.441 78.7646 527.65 81.2252 525.374 82.9175C523.104 84.6048 520.325 85.5486 516.929 85.5001L516.915 86.4999ZM535.622 53C535.622 43.9769 534.596 35.3191 531.78 28.8991C530.369 25.6839 528.499 23.0064 526.061 21.1318C523.616 19.2518 520.626 18.2 517.022 18.2V19.2C520.417 19.2 523.19 20.1857 525.451 21.9245C527.72 23.6686 529.5 26.1911 530.864 29.3009C533.597 35.5308 534.622 44.0231 534.622 53H535.622ZM601.278 45.8V45.3H600.857L600.785 45.7146L601.278 45.8ZM599.978 53.3L599.485 53.2146L599.484 53.2206L599.978 53.3ZM587.178 63V63.5L587.185 63.5L587.178 63ZM586.378 63H585.878V63.5H586.378V63ZM586.378 46H586.878V45.0117L586.082 45.5972L586.378 46ZM579.578 51L579.282 50.5972L579.078 50.747V51H579.578ZM579.578 63V63.5H580.078V63H579.578ZM552.678 63L552.252 62.7378L551.783 63.5H552.678V63ZM580.578 17.7L581.004 17.9622L581.473 17.2H580.578V17.7ZM572.078 17.7V17.2H571.761L571.626 17.4865L572.078 17.7ZM549.078 66.4L548.626 66.1865L548.578 66.2879V66.4H549.078ZM549.078 68.4H548.578V68.9H549.078V68.4ZM579.578 68.4H580.078V67.9H579.578V68.4ZM579.578 86V86.5H580.078V86H579.578ZM576.578 86V85.5H576.078V86H576.578ZM576.578 87H576.078V87.5H576.578V87ZM589.378 87V87.5H589.878V87H589.378ZM589.378 86H589.878V85.5H589.378V86ZM586.378 86H585.878V86.5H586.378V86ZM586.378 68.4V67.9H585.878V68.4H586.378ZM598.578 68.4V68.9H599.003L599.072 68.4808L598.578 68.4ZM602.278 45.8L602.772 45.8808L602.867 45.3H602.278V45.8ZM600.785 45.7146L599.485 53.2146L600.471 53.3854L601.771 45.8854L600.785 45.7146ZM599.484 53.2206C598.793 57.5159 597.531 59.7423 595.634 60.9536C593.696 62.1911 590.989 62.4498 587.172 62.5L587.185 63.5C590.967 63.4502 593.96 63.2089 596.172 61.7964C598.425 60.3577 599.763 57.7841 600.472 53.3794L599.484 53.2206ZM587.178 62.5H586.378V63.5H587.178V62.5ZM586.878 63V46H585.878V63H586.878ZM586.082 45.5972L579.282 50.5972L579.874 51.4028L586.674 46.4028L586.082 45.5972ZM579.078 51V63H580.078V51H579.078ZM579.578 62.5L552.678 62.5V63.5L579.578 63.5V62.5ZM553.104 63.2622L581.004 17.9622L580.152 17.4378L552.252 62.7378L553.104 63.2622ZM580.578 17.2H572.078V18.2H580.578V17.2ZM571.626 17.4865L548.626 66.1865L549.53 66.6135L572.53 17.9135L571.626 17.4865ZM548.578 66.4V68.4H549.578V66.4H548.578ZM549.078 68.9H579.578V67.9H549.078V68.9ZM579.078 68.4V86H580.078V68.4H579.078ZM579.578 85.5H576.578V86.5H579.578V85.5ZM576.078 86V87H577.078V86H576.078ZM576.578 87.5H589.378V86.5H576.578V87.5ZM589.878 87V86H588.878V87H589.878ZM589.378 85.5H586.378V86.5H589.378V85.5ZM586.878 86V68.4H585.878V86H586.878ZM586.378 68.9H598.578V67.9H586.378V68.9ZM599.072 68.4808L602.772 45.8808L601.785 45.7192L598.085 68.3192L599.072 68.4808ZM602.278 45.3H601.278V46.3H602.278V45.3Z" fill="black"/>
<path d="M1253.9 45.8V45.3H1253.47L1253.4 45.7146L1253.9 45.8ZM1252.6 53.3L1252.1 53.2146L1252.1 53.2206L1252.6 53.3ZM1239.8 63V63.5L1239.8 63.5L1239.8 63ZM1239 63H1238.5V63.5H1239V63ZM1239 46H1239.5V45.0117L1238.7 45.5972L1239 46ZM1232.2 51L1231.9 50.5972L1231.7 50.747V51H1232.2ZM1232.2 63V63.5H1232.7V63H1232.2ZM1205.3 63L1204.87 62.7378L1204.4 63.5H1205.3V63ZM1233.2 17.7L1233.62 17.9622L1234.09 17.2H1233.2V17.7ZM1224.7 17.7V17.2H1224.38L1224.24 17.4865L1224.7 17.7ZM1201.7 66.4L1201.24 66.1865L1201.2 66.2879V66.4H1201.7ZM1201.7 68.4H1201.2V68.9H1201.7V68.4ZM1232.2 68.4H1232.7V67.9H1232.2V68.4ZM1232.2 86V86.5H1232.7V86H1232.2ZM1229.2 86V85.5H1228.7V86H1229.2ZM1229.2 87H1228.7V87.5H1229.2V87ZM1242 87V87.5H1242.5V87H1242ZM1242 86H1242.5V85.5H1242V86ZM1239 86H1238.5V86.5H1239V86ZM1239 68.4V67.9H1238.5V68.4H1239ZM1251.2 68.4V68.9H1251.62L1251.69 68.4808L1251.2 68.4ZM1254.9 45.8L1255.39 45.8808L1255.48 45.3H1254.9V45.8ZM1253.4 45.7146L1252.1 53.2146L1253.09 53.3854L1254.39 45.8854L1253.4 45.7146ZM1252.1 53.2206C1251.41 57.5159 1250.15 59.7423 1248.25 60.9536C1246.31 62.1911 1243.61 62.4498 1239.79 62.5L1239.8 63.5C1243.58 63.4502 1246.58 63.2089 1248.79 61.7964C1251.04 60.3577 1252.38 57.7841 1253.09 53.3794L1252.1 53.2206ZM1239.8 62.5H1239V63.5H1239.8V62.5ZM1239.5 63V46H1238.5V63H1239.5ZM1238.7 45.5972L1231.9 50.5972L1232.49 51.4028L1239.29 46.4028L1238.7 45.5972ZM1231.7 51V63H1232.7V51H1231.7ZM1232.2 62.5L1205.3 62.5V63.5L1232.2 63.5V62.5ZM1205.72 63.2622L1233.62 17.9622L1232.77 17.4378L1204.87 62.7378L1205.72 63.2622ZM1233.2 17.2H1224.7V18.2H1233.2V17.2ZM1224.24 17.4865L1201.24 66.1865L1202.15 66.6135L1225.15 17.9135L1224.24 17.4865ZM1201.2 66.4V68.4H1202.2V66.4H1201.2ZM1201.7 68.9H1232.2V67.9H1201.7V68.9ZM1231.7 68.4V86H1232.7V68.4H1231.7ZM1232.2 85.5H1229.2V86.5H1232.2V85.5ZM1228.7 86V87H1229.7V86H1228.7ZM1229.2 87.5H1242V86.5H1229.2V87.5ZM1242.5 87V86H1241.5V87H1242.5ZM1242 85.5H1239V86.5H1242V85.5ZM1239.5 86V68.4H1238.5V86H1239.5ZM1239 68.9H1251.2V67.9H1239V68.9ZM1251.69 68.4808L1255.39 45.8808L1254.4 45.7192L1250.7 68.3192L1251.69 68.4808ZM1254.9 45.3H1253.9V46.3H1254.9V45.3ZM1286.92 86L1286.93 85.5001L1286.92 86ZM1313.62 53C1313.62 73.8101 1301.57 86.5 1286.92 86.5V87.5C1302.28 87.5 1314.62 74.1899 1314.62 53H1313.62ZM1286.92 86.5C1272.28 86.5 1260.42 73.8152 1260.42 53H1259.42C1259.42 74.1848 1271.56 87.5 1286.92 87.5V86.5ZM1260.42 53C1260.42 31.1704 1272.39 18.2 1287.02 18.2V17.2C1271.65 17.2 1259.42 30.8296 1259.42 53H1260.42ZM1287.02 18.2C1301.65 18.2 1313.62 31.1704 1313.62 53H1314.62C1314.62 30.8296 1302.39 17.2 1287.02 17.2V18.2ZM1287.02 18.2C1283.42 18.2 1280.43 19.2518 1277.98 21.1318C1275.54 23.0064 1273.67 25.6839 1272.26 28.8991C1269.45 35.3191 1268.42 43.9769 1268.42 53H1269.42C1269.42 44.0231 1270.45 35.5308 1273.18 29.3009C1274.54 26.1911 1276.32 23.6686 1278.59 21.9245C1280.85 20.1857 1283.63 19.2 1287.02 19.2V18.2ZM1268.42 53C1268.42 61.5245 1269.42 69.809 1272.22 76.0055C1273.62 79.1092 1275.47 81.7101 1277.9 83.5486C1280.33 85.3915 1283.31 86.4485 1286.91 86.4999L1286.93 85.5001C1283.53 85.4515 1280.76 84.4585 1278.5 82.7514C1276.25 81.0399 1274.48 78.5908 1273.13 75.5945C1270.42 69.591 1269.42 61.4755 1269.42 53H1268.42ZM1286.91 86.4999C1290.52 86.5514 1293.51 85.5452 1295.97 83.72C1298.42 81.8998 1300.3 79.2854 1301.73 76.1572C1304.57 69.9109 1305.62 61.5266 1305.62 53H1304.62C1304.62 61.4734 1303.57 69.6891 1300.82 75.7428C1299.44 78.7646 1297.65 81.2252 1295.37 82.9175C1293.1 84.6048 1290.32 85.5486 1286.93 85.5001L1286.91 86.4999ZM1305.62 53C1305.62 43.9769 1304.6 35.3191 1301.78 28.8991C1300.37 25.6839 1298.5 23.0064 1296.06 21.1318C1293.62 19.2518 1290.63 18.2 1287.02 18.2V19.2C1290.42 19.2 1293.19 20.1857 1295.45 21.9245C1297.72 23.6686 1299.5 26.1911 1300.86 29.3009C1303.6 35.5308 1304.62 44.0231 1304.62 53H1305.62ZM1371.28 45.8V45.3H1370.86L1370.79 45.7146L1371.28 45.8ZM1369.98 53.3L1369.49 53.2146L1369.48 53.2206L1369.98 53.3ZM1357.18 63V63.5L1357.18 63.5L1357.18 63ZM1356.38 63H1355.88V63.5H1356.38V63ZM1356.38 46H1356.88V45.0117L1356.08 45.5972L1356.38 46ZM1349.58 51L1349.28 50.5972L1349.08 50.747V51H1349.58ZM1349.58 63V63.5H1350.08V63H1349.58ZM1322.68 63L1322.25 62.7378L1321.78 63.5H1322.68V63ZM1350.58 17.7L1351 17.9622L1351.47 17.2H1350.58V17.7ZM1342.08 17.7V17.2H1341.76L1341.63 17.4865L1342.08 17.7ZM1319.08 66.4L1318.63 66.1865L1318.58 66.2879V66.4H1319.08ZM1319.08 68.4H1318.58V68.9H1319.08V68.4ZM1349.58 68.4H1350.08V67.9H1349.58V68.4ZM1349.58 86V86.5H1350.08V86H1349.58ZM1346.58 86V85.5H1346.08V86H1346.58ZM1346.58 87H1346.08V87.5H1346.58V87ZM1359.38 87V87.5H1359.88V87H1359.38ZM1359.38 86H1359.88V85.5H1359.38V86ZM1356.38 86H1355.88V86.5H1356.38V86ZM1356.38 68.4V67.9H1355.88V68.4H1356.38ZM1368.58 68.4V68.9H1369L1369.07 68.4808L1368.58 68.4ZM1372.28 45.8L1372.77 45.8808L1372.87 45.3H1372.28V45.8ZM1370.79 45.7146L1369.49 53.2146L1370.47 53.3854L1371.77 45.8854L1370.79 45.7146ZM1369.48 53.2206C1368.79 57.5159 1367.53 59.7423 1365.63 60.9536C1363.7 62.1911 1360.99 62.4498 1357.17 62.5L1357.18 63.5C1360.97 63.4502 1363.96 63.2089 1366.17 61.7964C1368.43 60.3577 1369.76 57.7841 1370.47 53.3794L1369.48 53.2206ZM1357.18 62.5H1356.38V63.5H1357.18V62.5ZM1356.88 63V46H1355.88V63H1356.88ZM1356.08 45.5972L1349.28 50.5972L1349.87 51.4028L1356.67 46.4028L1356.08 45.5972ZM1349.08 51V63H1350.08V51H1349.08ZM1349.58 62.5L1322.68 62.5V63.5L1349.58 63.5V62.5ZM1323.1 63.2622L1351 17.9622L1350.15 17.4378L1322.25 62.7378L1323.1 63.2622ZM1350.58 17.2H1342.08V18.2H1350.58V17.2ZM1341.63 17.4865L1318.63 66.1865L1319.53 66.6135L1342.53 17.9135L1341.63 17.4865ZM1318.58 66.4V68.4H1319.58V66.4H1318.58ZM1319.08 68.9H1349.58V67.9H1319.08V68.9ZM1349.08 68.4V86H1350.08V68.4H1349.08ZM1349.58 85.5H1346.58V86.5H1349.58V85.5ZM1346.08 86V87H1347.08V86H1346.08ZM1346.58 87.5H1359.38V86.5H1346.58V87.5ZM1359.88 87V86H1358.88V87H1359.88ZM1359.38 85.5H1356.38V86.5H1359.38V85.5ZM1356.88 86V68.4H1355.88V86H1356.88ZM1356.38 68.9H1368.58V67.9H1356.38V68.9ZM1369.07 68.4808L1372.77 45.8808L1371.78 45.7192L1368.08 68.3192L1369.07 68.4808ZM1372.28 45.3H1371.28V46.3H1372.28V45.3Z" fill="black"/>
<rect x="247" y="38" width="138" height="24" rx="12" stroke="black"/>
<rect x="1017" y="38" width="138" height="24" rx="12" stroke="black"/>
<rect x="632" y="38" width="138" height="24" rx="12" stroke="black"/>
<rect x="1402" y="38" width="138" height="24" rx="12" stroke="black"/>
<path d="M264.914 53.006C264.121 53.006 263.491 52.7307 263.024 52.18C262.567 51.6293 262.338 50.9153 262.338 50.038V49.94C262.338 49.3613 262.445 48.848 262.66 48.4C262.884 47.952 263.192 47.5973 263.584 47.336C263.78 47.2147 263.995 47.1213 264.228 47.056C264.461 46.9907 264.709 46.958 264.97 46.958C265.726 46.958 266.342 47.224 266.818 47.756C267.294 48.2787 267.532 49.016 267.532 49.968V50.122C267.532 51.0273 267.303 51.7367 266.846 52.25C266.389 52.754 265.745 53.006 264.914 53.006ZM265.306 54.182C266.025 54.182 266.65 54.028 267.182 53.72C267.723 53.4027 268.148 52.9407 268.456 52.334C268.605 52.0353 268.717 51.704 268.792 51.34C268.867 50.976 268.904 50.5793 268.904 50.15V49.968C268.904 49.0813 268.755 48.33 268.456 47.714C268.167 47.0887 267.756 46.608 267.224 46.272C266.963 46.1133 266.673 45.992 266.356 45.908C266.048 45.824 265.712 45.782 265.348 45.782C264.583 45.782 263.948 45.9733 263.444 46.356C262.949 46.7293 262.585 47.2147 262.352 47.812L262.198 46.006H261.078V56.786H262.394V52.348C262.637 52.908 263.001 53.356 263.486 53.692C263.971 54.0187 264.578 54.182 265.306 54.182ZM273.225 53.132C272.703 53.132 272.311 53.0247 272.049 52.81C271.797 52.586 271.671 52.2873 271.671 51.914C271.671 51.6807 271.718 51.4753 271.811 51.298C271.914 51.1207 272.059 50.9713 272.245 50.85C272.469 50.7007 272.735 50.584 273.043 50.5C273.361 50.416 273.823 50.3273 274.429 50.234C274.868 50.1593 275.251 50.08 275.577 49.996C275.904 49.9027 276.156 49.7813 276.333 49.632V50.22C276.333 50.556 276.259 50.8967 276.109 51.242C275.96 51.578 275.745 51.8907 275.465 52.18C275.195 52.4693 274.868 52.7027 274.485 52.88C274.103 53.048 273.683 53.132 273.225 53.132ZM276.529 54H277.635V48.484C277.635 47.6627 277.369 47.0093 276.837 46.524C276.315 46.0293 275.433 45.782 274.191 45.782C273.435 45.782 272.782 45.908 272.231 46.16C271.69 46.412 271.265 46.762 270.957 47.21C270.808 47.434 270.687 47.6767 270.593 47.938C270.509 48.19 270.458 48.4607 270.439 48.75H271.825C271.863 48.19 272.077 47.7373 272.469 47.392C272.871 47.0373 273.463 46.86 274.247 46.86C274.994 46.86 275.526 46.9907 275.843 47.252C276.161 47.504 276.319 47.8447 276.319 48.274C276.319 48.6473 276.128 48.8993 275.745 49.03C275.372 49.1513 274.835 49.2633 274.135 49.366C273.603 49.4407 273.16 49.5153 272.805 49.59C272.451 49.6647 272.152 49.744 271.909 49.828C271.788 49.8747 271.671 49.926 271.559 49.982C271.447 50.038 271.335 50.1033 271.223 50.178C270.906 50.374 270.654 50.6353 270.467 50.962C270.281 51.2887 270.187 51.662 270.187 52.082C270.187 52.726 270.407 53.244 270.845 53.636C271.293 54.0187 271.947 54.21 272.805 54.21C273.692 54.21 274.439 54 275.045 53.58C275.652 53.1507 276.095 52.628 276.375 52.012L276.529 54ZM282.822 57.668C284.24 57.668 285.272 57.4207 285.916 56.926C286.569 56.4313 286.896 55.7873 286.896 54.994C286.896 54.3033 286.653 53.7573 286.168 53.356C285.682 52.9547 284.903 52.754 283.83 52.754H281.954C281.45 52.7633 281.09 52.712 280.876 52.6C280.67 52.4787 280.568 52.306 280.568 52.082C280.568 51.9233 280.619 51.788 280.722 51.676C280.834 51.5547 281.034 51.466 281.324 51.41C281.464 51.3727 281.636 51.3493 281.842 51.34C282.056 51.3213 282.299 51.312 282.57 51.312H282.836C283.946 51.312 284.814 51.0693 285.44 50.584C286.065 50.0893 286.378 49.422 286.378 48.582V48.526C286.378 48.1433 286.289 47.7887 286.112 47.462C285.944 47.126 285.692 46.8413 285.356 46.608C285.188 46.496 285.001 46.4027 284.796 46.328C284.59 46.2533 284.366 46.202 284.124 46.174H284.096C284.684 46.1553 285.141 46.0853 285.468 45.964C285.804 45.8427 286.037 45.6607 286.168 45.418C286.233 45.2967 286.28 45.1613 286.308 45.012C286.345 44.8533 286.364 44.6807 286.364 44.494V44.256H284.824V44.41C284.824 44.746 284.782 45.0167 284.698 45.222C284.614 45.4273 284.441 45.586 284.18 45.698C284.049 45.7447 283.886 45.7867 283.69 45.824C283.503 45.852 283.279 45.8753 283.018 45.894C282.924 45.894 282.798 45.8987 282.64 45.908C282.49 45.9173 282.378 45.9313 282.304 45.95C281.38 46.0433 280.666 46.3187 280.162 46.776C279.658 47.224 279.406 47.8167 279.406 48.554V48.568C279.406 49.1747 279.55 49.6693 279.84 50.052C280.129 50.4347 280.563 50.71 281.142 50.878C280.554 50.9807 280.11 51.1673 279.812 51.438C279.513 51.7087 279.364 52.04 279.364 52.432C279.364 52.8053 279.485 53.118 279.728 53.37C279.98 53.622 280.362 53.7853 280.876 53.86C280.25 54.0187 279.793 54.2567 279.504 54.574C279.214 54.8913 279.07 55.2693 279.07 55.708C279.07 56.1093 279.177 56.4547 279.392 56.744C279.616 57.0427 279.994 57.2713 280.526 57.43C280.787 57.5047 281.1 57.5607 281.464 57.598C281.828 57.6447 282.238 57.668 282.696 57.668H282.822ZM282.836 50.304C282.173 50.304 281.66 50.1593 281.296 49.87C280.941 49.5713 280.764 49.1513 280.764 48.61V48.582C280.754 48.05 280.922 47.6347 281.268 47.336C281.613 47.028 282.07 46.8553 282.64 46.818C282.686 46.8087 282.733 46.804 282.78 46.804C282.826 46.7947 282.882 46.79 282.948 46.79C283.321 46.79 283.662 46.846 283.97 46.958C284.287 47.0607 284.539 47.2427 284.726 47.504C284.819 47.6347 284.889 47.7887 284.936 47.966C284.992 48.1433 285.02 48.344 285.02 48.568V48.596C285.02 49.1373 284.833 49.5573 284.46 49.856C284.086 50.1547 283.545 50.304 282.836 50.304ZM282.584 56.534C281.818 56.534 281.263 56.4127 280.918 56.17C280.572 55.9367 280.4 55.6473 280.4 55.302V55.288C280.4 54.9053 280.554 54.588 280.862 54.336C281.179 54.0933 281.655 53.9487 282.29 53.902H283.774C284.455 53.902 284.936 54.0093 285.216 54.224C285.496 54.4387 285.636 54.7187 285.636 55.064C285.636 55.5027 285.416 55.8573 284.978 56.128C284.548 56.3987 283.834 56.534 282.836 56.534H282.584ZM291.747 46.888C292.512 46.888 293.105 47.1167 293.525 47.574C293.945 48.022 294.183 48.624 294.239 49.38H289.059C289.143 48.6053 289.418 47.9987 289.885 47.56C290.361 47.112 290.982 46.888 291.747 46.888ZM295.485 51.62H294.015C293.866 52.0867 293.595 52.446 293.203 52.698C292.811 52.9407 292.326 53.062 291.747 53.062C290.926 53.062 290.282 52.8333 289.815 52.376C289.348 51.9187 289.092 51.2793 289.045 50.458H295.597V49.814C295.597 49.0953 295.457 48.4327 295.177 47.826C294.897 47.21 294.472 46.7153 293.903 46.342C293.623 46.1553 293.301 46.0153 292.937 45.922C292.573 45.8287 292.172 45.782 291.733 45.782C290.912 45.782 290.198 45.9593 289.591 46.314C288.984 46.6593 288.518 47.1447 288.191 47.77C288.032 48.0873 287.911 48.4327 287.827 48.806C287.743 49.17 287.701 49.562 287.701 49.982V50.15C287.701 51.3913 288.032 52.3807 288.695 53.118C289.367 53.846 290.366 54.21 291.691 54.21C292.68 54.21 293.502 53.986 294.155 53.538C294.808 53.0807 295.252 52.4413 295.485 51.62ZM303.151 49.814C303.151 48.9647 303.361 48.2787 303.781 47.756C304.201 47.2333 304.803 46.972 305.587 46.972C306.361 46.972 306.912 47.2007 307.239 47.658C307.575 48.106 307.743 48.7033 307.743 49.45V54H309.115V49.142C309.115 48.134 308.849 47.322 308.317 46.706C307.794 46.09 307.019 45.782 305.993 45.782C305.237 45.782 304.611 45.9687 304.117 46.342C303.631 46.7153 303.281 47.21 303.067 47.826L302.927 46.006H301.779V54H303.151V49.814ZM314.769 54.21C315.581 54.21 316.286 54.0513 316.883 53.734C317.481 53.4073 317.947 52.9407 318.283 52.334C318.442 52.026 318.563 51.69 318.647 51.326C318.731 50.962 318.773 50.5653 318.773 50.136V49.954C318.773 49.0767 318.601 48.33 318.255 47.714C317.919 47.0887 317.448 46.6127 316.841 46.286C316.543 46.118 316.221 45.992 315.875 45.908C315.53 45.824 315.161 45.782 314.769 45.782C314.004 45.782 313.318 45.9453 312.711 46.272C312.105 46.5987 311.629 47.07 311.283 47.686C311.115 48.0033 310.985 48.3487 310.891 48.722C310.807 49.0953 310.765 49.506 310.765 49.954V50.136C310.765 51.4147 311.115 52.4133 311.815 53.132C312.515 53.8507 313.5 54.21 314.769 54.21ZM314.769 52.992C313.948 52.992 313.304 52.74 312.837 52.236C312.38 51.7227 312.151 51.0133 312.151 50.108V49.954C312.151 48.9927 312.394 48.2553 312.879 47.742C313.374 47.2193 314.004 46.958 314.769 46.958C315.544 46.958 316.174 47.2287 316.659 47.77C317.145 48.302 317.387 49.03 317.387 49.954V50.108C317.387 51.0133 317.159 51.7227 316.701 52.236C316.244 52.74 315.6 52.992 314.769 52.992ZM324.655 52.726H324.081C323.605 52.726 323.237 52.6793 322.975 52.586C322.723 52.4833 322.546 52.2873 322.443 51.998C322.397 51.858 322.359 51.6807 322.331 51.466C322.313 51.2513 322.303 50.9993 322.303 50.71V47.21H324.655V46.006H322.303V43.892H321.155C321.155 43.948 321.151 44.0507 321.141 44.2C321.141 44.3493 321.141 44.5033 321.141 44.662C321.132 44.7367 321.127 44.8067 321.127 44.872C321.127 44.928 321.127 44.9747 321.127 45.012C321.109 45.3107 321.076 45.5347 321.029 45.684C320.992 45.8333 320.913 45.9313 320.791 45.978C320.726 46.006 320.647 46.0247 320.553 46.034C320.469 46.0433 320.367 46.048 320.245 46.048H319.475V47.21H321.043V50.906C321.043 51.6993 321.123 52.32 321.281 52.768C321.44 53.216 321.715 53.5333 322.107 53.72C322.303 53.8133 322.541 53.8833 322.821 53.93C323.101 53.9767 323.419 54 323.773 54H324.655V52.726ZM334.631 47.182V46.006H332.475V45.81C332.475 45.2967 332.512 44.914 332.587 44.662C332.661 44.4007 332.806 44.228 333.021 44.144C333.133 44.0973 333.263 44.0647 333.413 44.046C333.571 44.018 333.753 44.004 333.959 44.004H334.631V42.884H333.791C333.156 42.884 332.647 42.968 332.265 43.136C331.882 43.304 331.602 43.5933 331.425 44.004C331.341 44.2 331.275 44.438 331.229 44.718C331.191 44.9887 331.173 45.3013 331.173 45.656V46.006H329.675V47.182H331.173V54H332.475V47.182H334.631ZM339.228 54.21C340.04 54.21 340.745 54.0513 341.342 53.734C341.94 53.4073 342.406 52.9407 342.742 52.334C342.901 52.026 343.022 51.69 343.106 51.326C343.19 50.962 343.232 50.5653 343.232 50.136V49.954C343.232 49.0767 343.06 48.33 342.714 47.714C342.378 47.0887 341.907 46.6127 341.3 46.286C341.002 46.118 340.68 45.992 340.334 45.908C339.989 45.824 339.62 45.782 339.228 45.782C338.463 45.782 337.777 45.9453 337.17 46.272C336.564 46.5987 336.088 47.07 335.742 47.686C335.574 48.0033 335.444 48.3487 335.35 48.722C335.266 49.0953 335.224 49.506 335.224 49.954V50.136C335.224 51.4147 335.574 52.4133 336.274 53.132C336.974 53.8507 337.959 54.21 339.228 54.21ZM339.228 52.992C338.407 52.992 337.763 52.74 337.296 52.236C336.839 51.7227 336.61 51.0133 336.61 50.108V49.954C336.61 48.9927 336.853 48.2553 337.338 47.742C337.833 47.2193 338.463 46.958 339.228 46.958C340.003 46.958 340.633 47.2287 341.118 47.77C341.604 48.302 341.846 49.03 341.846 49.954V50.108C341.846 51.0133 341.618 51.7227 341.16 52.236C340.703 52.74 340.059 52.992 339.228 52.992ZM350.738 54H351.872V46.006H350.514V50.164C350.514 50.9853 350.313 51.6573 349.912 52.18C349.51 52.7027 348.95 52.964 348.232 52.964C347.494 52.964 346.972 52.7353 346.664 52.278C346.356 51.8207 346.202 51.2327 346.202 50.514V46.006H344.844V50.85C344.844 51.8673 345.091 52.6793 345.586 53.286C346.08 53.8833 346.822 54.182 347.812 54.182C348.521 54.182 349.109 54.0093 349.576 53.664C350.052 53.3093 350.392 52.8473 350.598 52.278L350.738 54ZM355.35 49.814C355.35 48.9647 355.56 48.2787 355.98 47.756C356.4 47.2333 357.002 46.972 357.786 46.972C358.56 46.972 359.111 47.2007 359.438 47.658C359.774 48.106 359.942 48.7033 359.942 49.45V54H361.314V49.142C361.314 48.134 361.048 47.322 360.516 46.706C359.993 46.09 359.218 45.782 358.192 45.782C357.436 45.782 356.81 45.9687 356.316 46.342C355.83 46.7153 355.48 47.21 355.266 47.826L355.126 46.006H353.978V54H355.35V49.814ZM366.871 52.992C366.143 52.992 365.541 52.74 365.065 52.236C364.598 51.7227 364.365 50.99 364.365 50.038V49.898C364.365 48.9927 364.589 48.274 365.037 47.742C365.485 47.21 366.129 46.944 366.969 46.944C367.501 46.944 367.958 47.07 368.341 47.322C368.723 47.574 369.017 47.924 369.223 48.372C369.325 48.596 369.4 48.8387 369.447 49.1C369.503 49.352 369.531 49.6273 369.531 49.926V50.024C369.531 50.6027 369.423 51.116 369.209 51.564C368.994 52.012 368.686 52.362 368.285 52.614C368.089 52.7353 367.869 52.8287 367.627 52.894C367.393 52.9593 367.141 52.992 366.871 52.992ZM369.671 54H370.791V43.29H369.475V47.602C369.241 47.0513 368.882 46.6127 368.397 46.286C367.911 45.9593 367.309 45.796 366.591 45.796C365.872 45.796 365.237 45.9547 364.687 46.272C364.145 46.5893 363.721 47.0513 363.413 47.658C363.263 47.966 363.151 48.3067 363.077 48.68C363.002 49.044 362.965 49.4407 362.965 49.87V50.052C362.965 50.9293 363.114 51.676 363.413 52.292C363.711 52.908 364.127 53.3793 364.659 53.706C364.929 53.8647 365.219 53.9813 365.527 54.056C365.835 54.14 366.161 54.182 366.507 54.182C367.281 54.182 367.921 53.9907 368.425 53.608C368.929 53.216 369.293 52.7213 369.517 52.124L369.671 54Z" fill="black"/>
<path d="M1034.91 53.006C1034.12 53.006 1033.49 52.7307 1033.02 52.18C1032.57 51.6293 1032.34 50.9153 1032.34 50.038V49.94C1032.34 49.3613 1032.45 48.848 1032.66 48.4C1032.88 47.952 1033.19 47.5973 1033.58 47.336C1033.78 47.2147 1033.99 47.1213 1034.23 47.056C1034.46 46.9907 1034.71 46.958 1034.97 46.958C1035.73 46.958 1036.34 47.224 1036.82 47.756C1037.29 48.2787 1037.53 49.016 1037.53 49.968V50.122C1037.53 51.0273 1037.3 51.7367 1036.85 52.25C1036.39 52.754 1035.74 53.006 1034.91 53.006ZM1035.31 54.182C1036.02 54.182 1036.65 54.028 1037.18 53.72C1037.72 53.4027 1038.15 52.9407 1038.46 52.334C1038.61 52.0353 1038.72 51.704 1038.79 51.34C1038.87 50.976 1038.9 50.5793 1038.9 50.15V49.968C1038.9 49.0813 1038.75 48.33 1038.46 47.714C1038.17 47.0887 1037.76 46.608 1037.22 46.272C1036.96 46.1133 1036.67 45.992 1036.36 45.908C1036.05 45.824 1035.71 45.782 1035.35 45.782C1034.58 45.782 1033.95 45.9733 1033.44 46.356C1032.95 46.7293 1032.59 47.2147 1032.35 47.812L1032.2 46.006H1031.08V56.786H1032.39V52.348C1032.64 52.908 1033 53.356 1033.49 53.692C1033.97 54.0187 1034.58 54.182 1035.31 54.182ZM1043.23 53.132C1042.7 53.132 1042.31 53.0247 1042.05 52.81C1041.8 52.586 1041.67 52.2873 1041.67 51.914C1041.67 51.6807 1041.72 51.4753 1041.81 51.298C1041.91 51.1207 1042.06 50.9713 1042.25 50.85C1042.47 50.7007 1042.74 50.584 1043.04 50.5C1043.36 50.416 1043.82 50.3273 1044.43 50.234C1044.87 50.1593 1045.25 50.08 1045.58 49.996C1045.9 49.9027 1046.16 49.7813 1046.33 49.632V50.22C1046.33 50.556 1046.26 50.8967 1046.11 51.242C1045.96 51.578 1045.75 51.8907 1045.47 52.18C1045.19 52.4693 1044.87 52.7027 1044.49 52.88C1044.1 53.048 1043.68 53.132 1043.23 53.132ZM1046.53 54H1047.64V48.484C1047.64 47.6627 1047.37 47.0093 1046.84 46.524C1046.31 46.0293 1045.43 45.782 1044.19 45.782C1043.44 45.782 1042.78 45.908 1042.23 46.16C1041.69 46.412 1041.27 46.762 1040.96 47.21C1040.81 47.434 1040.69 47.6767 1040.59 47.938C1040.51 48.19 1040.46 48.4607 1040.44 48.75H1041.83C1041.86 48.19 1042.08 47.7373 1042.47 47.392C1042.87 47.0373 1043.46 46.86 1044.25 46.86C1044.99 46.86 1045.53 46.9907 1045.84 47.252C1046.16 47.504 1046.32 47.8447 1046.32 48.274C1046.32 48.6473 1046.13 48.8993 1045.75 49.03C1045.37 49.1513 1044.84 49.2633 1044.14 49.366C1043.6 49.4407 1043.16 49.5153 1042.81 49.59C1042.45 49.6647 1042.15 49.744 1041.91 49.828C1041.79 49.8747 1041.67 49.926 1041.56 49.982C1041.45 50.038 1041.34 50.1033 1041.22 50.178C1040.91 50.374 1040.65 50.6353 1040.47 50.962C1040.28 51.2887 1040.19 51.662 1040.19 52.082C1040.19 52.726 1040.41 53.244 1040.85 53.636C1041.29 54.0187 1041.95 54.21 1042.81 54.21C1043.69 54.21 1044.44 54 1045.05 53.58C1045.65 53.1507 1046.1 52.628 1046.38 52.012L1046.53 54ZM1052.82 57.668C1054.24 57.668 1055.27 57.4207 1055.92 56.926C1056.57 56.4313 1056.9 55.7873 1056.9 54.994C1056.9 54.3033 1056.65 53.7573 1056.17 53.356C1055.68 52.9547 1054.9 52.754 1053.83 52.754H1051.95C1051.45 52.7633 1051.09 52.712 1050.88 52.6C1050.67 52.4787 1050.57 52.306 1050.57 52.082C1050.57 51.9233 1050.62 51.788 1050.72 51.676C1050.83 51.5547 1051.03 51.466 1051.32 51.41C1051.46 51.3727 1051.64 51.3493 1051.84 51.34C1052.06 51.3213 1052.3 51.312 1052.57 51.312H1052.84C1053.95 51.312 1054.81 51.0693 1055.44 50.584C1056.07 50.0893 1056.38 49.422 1056.38 48.582V48.526C1056.38 48.1433 1056.29 47.7887 1056.11 47.462C1055.94 47.126 1055.69 46.8413 1055.36 46.608C1055.19 46.496 1055 46.4027 1054.8 46.328C1054.59 46.2533 1054.37 46.202 1054.12 46.174H1054.1C1054.68 46.1553 1055.14 46.0853 1055.47 45.964C1055.8 45.8427 1056.04 45.6607 1056.17 45.418C1056.23 45.2967 1056.28 45.1613 1056.31 45.012C1056.35 44.8533 1056.36 44.6807 1056.36 44.494V44.256H1054.82V44.41C1054.82 44.746 1054.78 45.0167 1054.7 45.222C1054.61 45.4273 1054.44 45.586 1054.18 45.698C1054.05 45.7447 1053.89 45.7867 1053.69 45.824C1053.5 45.852 1053.28 45.8753 1053.02 45.894C1052.92 45.894 1052.8 45.8987 1052.64 45.908C1052.49 45.9173 1052.38 45.9313 1052.3 45.95C1051.38 46.0433 1050.67 46.3187 1050.16 46.776C1049.66 47.224 1049.41 47.8167 1049.41 48.554V48.568C1049.41 49.1747 1049.55 49.6693 1049.84 50.052C1050.13 50.4347 1050.56 50.71 1051.14 50.878C1050.55 50.9807 1050.11 51.1673 1049.81 51.438C1049.51 51.7087 1049.36 52.04 1049.36 52.432C1049.36 52.8053 1049.49 53.118 1049.73 53.37C1049.98 53.622 1050.36 53.7853 1050.88 53.86C1050.25 54.0187 1049.79 54.2567 1049.5 54.574C1049.21 54.8913 1049.07 55.2693 1049.07 55.708C1049.07 56.1093 1049.18 56.4547 1049.39 56.744C1049.62 57.0427 1049.99 57.2713 1050.53 57.43C1050.79 57.5047 1051.1 57.5607 1051.46 57.598C1051.83 57.6447 1052.24 57.668 1052.7 57.668H1052.82ZM1052.84 50.304C1052.17 50.304 1051.66 50.1593 1051.3 49.87C1050.94 49.5713 1050.76 49.1513 1050.76 48.61V48.582C1050.75 48.05 1050.92 47.6347 1051.27 47.336C1051.61 47.028 1052.07 46.8553 1052.64 46.818C1052.69 46.8087 1052.73 46.804 1052.78 46.804C1052.83 46.7947 1052.88 46.79 1052.95 46.79C1053.32 46.79 1053.66 46.846 1053.97 46.958C1054.29 47.0607 1054.54 47.2427 1054.73 47.504C1054.82 47.6347 1054.89 47.7887 1054.94 47.966C1054.99 48.1433 1055.02 48.344 1055.02 48.568V48.596C1055.02 49.1373 1054.83 49.5573 1054.46 49.856C1054.09 50.1547 1053.55 50.304 1052.84 50.304ZM1052.58 56.534C1051.82 56.534 1051.26 56.4127 1050.92 56.17C1050.57 55.9367 1050.4 55.6473 1050.4 55.302V55.288C1050.4 54.9053 1050.55 54.588 1050.86 54.336C1051.18 54.0933 1051.66 53.9487 1052.29 53.902H1053.77C1054.46 53.902 1054.94 54.0093 1055.22 54.224C1055.5 54.4387 1055.64 54.7187 1055.64 55.064C1055.64 55.5027 1055.42 55.8573 1054.98 56.128C1054.55 56.3987 1053.83 56.534 1052.84 56.534H1052.58ZM1061.75 46.888C1062.51 46.888 1063.1 47.1167 1063.52 47.574C1063.94 48.022 1064.18 48.624 1064.24 49.38H1059.06C1059.14 48.6053 1059.42 47.9987 1059.88 47.56C1060.36 47.112 1060.98 46.888 1061.75 46.888ZM1065.48 51.62H1064.01C1063.87 52.0867 1063.59 52.446 1063.2 52.698C1062.81 52.9407 1062.33 53.062 1061.75 53.062C1060.93 53.062 1060.28 52.8333 1059.81 52.376C1059.35 51.9187 1059.09 51.2793 1059.04 50.458H1065.6V49.814C1065.6 49.0953 1065.46 48.4327 1065.18 47.826C1064.9 47.21 1064.47 46.7153 1063.9 46.342C1063.62 46.1553 1063.3 46.0153 1062.94 45.922C1062.57 45.8287 1062.17 45.782 1061.73 45.782C1060.91 45.782 1060.2 45.9593 1059.59 46.314C1058.98 46.6593 1058.52 47.1447 1058.19 47.77C1058.03 48.0873 1057.91 48.4327 1057.83 48.806C1057.74 49.17 1057.7 49.562 1057.7 49.982V50.15C1057.7 51.3913 1058.03 52.3807 1058.69 53.118C1059.37 53.846 1060.37 54.21 1061.69 54.21C1062.68 54.21 1063.5 53.986 1064.15 53.538C1064.81 53.0807 1065.25 52.4413 1065.48 51.62ZM1073.15 49.814C1073.15 48.9647 1073.36 48.2787 1073.78 47.756C1074.2 47.2333 1074.8 46.972 1075.59 46.972C1076.36 46.972 1076.91 47.2007 1077.24 47.658C1077.57 48.106 1077.74 48.7033 1077.74 49.45V54H1079.11V49.142C1079.11 48.134 1078.85 47.322 1078.32 46.706C1077.79 46.09 1077.02 45.782 1075.99 45.782C1075.24 45.782 1074.61 45.9687 1074.12 46.342C1073.63 46.7153 1073.28 47.21 1073.07 47.826L1072.93 46.006H1071.78V54H1073.15V49.814ZM1084.77 54.21C1085.58 54.21 1086.29 54.0513 1086.88 53.734C1087.48 53.4073 1087.95 52.9407 1088.28 52.334C1088.44 52.026 1088.56 51.69 1088.65 51.326C1088.73 50.962 1088.77 50.5653 1088.77 50.136V49.954C1088.77 49.0767 1088.6 48.33 1088.26 47.714C1087.92 47.0887 1087.45 46.6127 1086.84 46.286C1086.54 46.118 1086.22 45.992 1085.88 45.908C1085.53 45.824 1085.16 45.782 1084.77 45.782C1084 45.782 1083.32 45.9453 1082.71 46.272C1082.1 46.5987 1081.63 47.07 1081.28 47.686C1081.12 48.0033 1080.98 48.3487 1080.89 48.722C1080.81 49.0953 1080.77 49.506 1080.77 49.954V50.136C1080.77 51.4147 1081.12 52.4133 1081.82 53.132C1082.52 53.8507 1083.5 54.21 1084.77 54.21ZM1084.77 52.992C1083.95 52.992 1083.3 52.74 1082.84 52.236C1082.38 51.7227 1082.15 51.0133 1082.15 50.108V49.954C1082.15 48.9927 1082.39 48.2553 1082.88 47.742C1083.37 47.2193 1084 46.958 1084.77 46.958C1085.54 46.958 1086.17 47.2287 1086.66 47.77C1087.14 48.302 1087.39 49.03 1087.39 49.954V50.108C1087.39 51.0133 1087.16 51.7227 1086.7 52.236C1086.24 52.74 1085.6 52.992 1084.77 52.992ZM1094.66 52.726H1094.08C1093.61 52.726 1093.24 52.6793 1092.98 52.586C1092.72 52.4833 1092.55 52.2873 1092.44 51.998C1092.4 51.858 1092.36 51.6807 1092.33 51.466C1092.31 51.2513 1092.3 50.9993 1092.3 50.71V47.21H1094.66V46.006H1092.3V43.892H1091.16C1091.16 43.948 1091.15 44.0507 1091.14 44.2C1091.14 44.3493 1091.14 44.5033 1091.14 44.662C1091.13 44.7367 1091.13 44.8067 1091.13 44.872C1091.13 44.928 1091.13 44.9747 1091.13 45.012C1091.11 45.3107 1091.08 45.5347 1091.03 45.684C1090.99 45.8333 1090.91 45.9313 1090.79 45.978C1090.73 46.006 1090.65 46.0247 1090.55 46.034C1090.47 46.0433 1090.37 46.048 1090.25 46.048H1089.48V47.21H1091.04V50.906C1091.04 51.6993 1091.12 52.32 1091.28 52.768C1091.44 53.216 1091.72 53.5333 1092.11 53.72C1092.3 53.8133 1092.54 53.8833 1092.82 53.93C1093.1 53.9767 1093.42 54 1093.77 54H1094.66V52.726ZM1104.63 47.182V46.006H1102.47V45.81C1102.47 45.2967 1102.51 44.914 1102.59 44.662C1102.66 44.4007 1102.81 44.228 1103.02 44.144C1103.13 44.0973 1103.26 44.0647 1103.41 44.046C1103.57 44.018 1103.75 44.004 1103.96 44.004H1104.63V42.884H1103.79C1103.16 42.884 1102.65 42.968 1102.26 43.136C1101.88 43.304 1101.6 43.5933 1101.42 44.004C1101.34 44.2 1101.28 44.438 1101.23 44.718C1101.19 44.9887 1101.17 45.3013 1101.17 45.656V46.006H1099.67V47.182H1101.17V54H1102.47V47.182H1104.63ZM1109.23 54.21C1110.04 54.21 1110.75 54.0513 1111.34 53.734C1111.94 53.4073 1112.41 52.9407 1112.74 52.334C1112.9 52.026 1113.02 51.69 1113.11 51.326C1113.19 50.962 1113.23 50.5653 1113.23 50.136V49.954C1113.23 49.0767 1113.06 48.33 1112.71 47.714C1112.38 47.0887 1111.91 46.6127 1111.3 46.286C1111 46.118 1110.68 45.992 1110.33 45.908C1109.99 45.824 1109.62 45.782 1109.23 45.782C1108.46 45.782 1107.78 45.9453 1107.17 46.272C1106.56 46.5987 1106.09 47.07 1105.74 47.686C1105.57 48.0033 1105.44 48.3487 1105.35 48.722C1105.27 49.0953 1105.22 49.506 1105.22 49.954V50.136C1105.22 51.4147 1105.57 52.4133 1106.27 53.132C1106.97 53.8507 1107.96 54.21 1109.23 54.21ZM1109.23 52.992C1108.41 52.992 1107.76 52.74 1107.3 52.236C1106.84 51.7227 1106.61 51.0133 1106.61 50.108V49.954C1106.61 48.9927 1106.85 48.2553 1107.34 47.742C1107.83 47.2193 1108.46 46.958 1109.23 46.958C1110 46.958 1110.63 47.2287 1111.12 47.77C1111.6 48.302 1111.85 49.03 1111.85 49.954V50.108C1111.85 51.0133 1111.62 51.7227 1111.16 52.236C1110.7 52.74 1110.06 52.992 1109.23 52.992ZM1120.74 54H1121.87V46.006H1120.51V50.164C1120.51 50.9853 1120.31 51.6573 1119.91 52.18C1119.51 52.7027 1118.95 52.964 1118.23 52.964C1117.49 52.964 1116.97 52.7353 1116.66 52.278C1116.36 51.8207 1116.2 51.2327 1116.2 50.514V46.006H1114.84V50.85C1114.84 51.8673 1115.09 52.6793 1115.59 53.286C1116.08 53.8833 1116.82 54.182 1117.81 54.182C1118.52 54.182 1119.11 54.0093 1119.58 53.664C1120.05 53.3093 1120.39 52.8473 1120.6 52.278L1120.74 54ZM1125.35 49.814C1125.35 48.9647 1125.56 48.2787 1125.98 47.756C1126.4 47.2333 1127 46.972 1127.79 46.972C1128.56 46.972 1129.11 47.2007 1129.44 47.658C1129.77 48.106 1129.94 48.7033 1129.94 49.45V54H1131.31V49.142C1131.31 48.134 1131.05 47.322 1130.52 46.706C1129.99 46.09 1129.22 45.782 1128.19 45.782C1127.44 45.782 1126.81 45.9687 1126.32 46.342C1125.83 46.7153 1125.48 47.21 1125.27 47.826L1125.13 46.006H1123.98V54H1125.35V49.814ZM1136.87 52.992C1136.14 52.992 1135.54 52.74 1135.06 52.236C1134.6 51.7227 1134.36 50.99 1134.36 50.038V49.898C1134.36 48.9927 1134.59 48.274 1135.04 47.742C1135.48 47.21 1136.13 46.944 1136.97 46.944C1137.5 46.944 1137.96 47.07 1138.34 47.322C1138.72 47.574 1139.02 47.924 1139.22 48.372C1139.33 48.596 1139.4 48.8387 1139.45 49.1C1139.5 49.352 1139.53 49.6273 1139.53 49.926V50.024C1139.53 50.6027 1139.42 51.116 1139.21 51.564C1138.99 52.012 1138.69 52.362 1138.28 52.614C1138.09 52.7353 1137.87 52.8287 1137.63 52.894C1137.39 52.9593 1137.14 52.992 1136.87 52.992ZM1139.67 54H1140.79V43.29H1139.47V47.602C1139.24 47.0513 1138.88 46.6127 1138.4 46.286C1137.91 45.9593 1137.31 45.796 1136.59 45.796C1135.87 45.796 1135.24 45.9547 1134.69 46.272C1134.15 46.5893 1133.72 47.0513 1133.41 47.658C1133.26 47.966 1133.15 48.3067 1133.08 48.68C1133 49.044 1132.96 49.4407 1132.96 49.87V50.052C1132.96 50.9293 1133.11 51.676 1133.41 52.292C1133.71 52.908 1134.13 53.3793 1134.66 53.706C1134.93 53.8647 1135.22 53.9813 1135.53 54.056C1135.83 54.14 1136.16 54.182 1136.51 54.182C1137.28 54.182 1137.92 53.9907 1138.42 53.608C1138.93 53.216 1139.29 52.7213 1139.52 52.124L1139.67 54Z" fill="black"/>
<path d="M649.914 53.006C649.121 53.006 648.491 52.7307 648.024 52.18C647.567 51.6293 647.338 50.9153 647.338 50.038V49.94C647.338 49.3613 647.445 48.848 647.66 48.4C647.884 47.952 648.192 47.5973 648.584 47.336C648.78 47.2147 648.995 47.1213 649.228 47.056C649.461 46.9907 649.709 46.958 649.97 46.958C650.726 46.958 651.342 47.224 651.818 47.756C652.294 48.2787 652.532 49.016 652.532 49.968V50.122C652.532 51.0273 652.303 51.7367 651.846 52.25C651.389 52.754 650.745 53.006 649.914 53.006ZM650.306 54.182C651.025 54.182 651.65 54.028 652.182 53.72C652.723 53.4027 653.148 52.9407 653.456 52.334C653.605 52.0353 653.717 51.704 653.792 51.34C653.867 50.976 653.904 50.5793 653.904 50.15V49.968C653.904 49.0813 653.755 48.33 653.456 47.714C653.167 47.0887 652.756 46.608 652.224 46.272C651.963 46.1133 651.673 45.992 651.356 45.908C651.048 45.824 650.712 45.782 650.348 45.782C649.583 45.782 648.948 45.9733 648.444 46.356C647.949 46.7293 647.585 47.2147 647.352 47.812L647.198 46.006H646.078V56.786H647.394V52.348C647.637 52.908 648.001 53.356 648.486 53.692C648.971 54.0187 649.578 54.182 650.306 54.182ZM658.225 53.132C657.703 53.132 657.311 53.0247 657.049 52.81C656.797 52.586 656.671 52.2873 656.671 51.914C656.671 51.6807 656.718 51.4753 656.811 51.298C656.914 51.1207 657.059 50.9713 657.245 50.85C657.469 50.7007 657.735 50.584 658.043 50.5C658.361 50.416 658.823 50.3273 659.429 50.234C659.868 50.1593 660.251 50.08 660.577 49.996C660.904 49.9027 661.156 49.7813 661.333 49.632V50.22C661.333 50.556 661.259 50.8967 661.109 51.242C660.96 51.578 660.745 51.8907 660.465 52.18C660.195 52.4693 659.868 52.7027 659.485 52.88C659.103 53.048 658.683 53.132 658.225 53.132ZM661.529 54H662.635V48.484C662.635 47.6627 662.369 47.0093 661.837 46.524C661.315 46.0293 660.433 45.782 659.191 45.782C658.435 45.782 657.782 45.908 657.231 46.16C656.69 46.412 656.265 46.762 655.957 47.21C655.808 47.434 655.687 47.6767 655.593 47.938C655.509 48.19 655.458 48.4607 655.439 48.75H656.825C656.863 48.19 657.077 47.7373 657.469 47.392C657.871 47.0373 658.463 46.86 659.247 46.86C659.994 46.86 660.526 46.9907 660.843 47.252C661.161 47.504 661.319 47.8447 661.319 48.274C661.319 48.6473 661.128 48.8993 660.745 49.03C660.372 49.1513 659.835 49.2633 659.135 49.366C658.603 49.4407 658.16 49.5153 657.805 49.59C657.451 49.6647 657.152 49.744 656.909 49.828C656.788 49.8747 656.671 49.926 656.559 49.982C656.447 50.038 656.335 50.1033 656.223 50.178C655.906 50.374 655.654 50.6353 655.467 50.962C655.281 51.2887 655.187 51.662 655.187 52.082C655.187 52.726 655.407 53.244 655.845 53.636C656.293 54.0187 656.947 54.21 657.805 54.21C658.692 54.21 659.439 54 660.045 53.58C660.652 53.1507 661.095 52.628 661.375 52.012L661.529 54ZM667.822 57.668C669.24 57.668 670.272 57.4207 670.916 56.926C671.569 56.4313 671.896 55.7873 671.896 54.994C671.896 54.3033 671.653 53.7573 671.168 53.356C670.682 52.9547 669.903 52.754 668.83 52.754H666.954C666.45 52.7633 666.09 52.712 665.876 52.6C665.67 52.4787 665.568 52.306 665.568 52.082C665.568 51.9233 665.619 51.788 665.722 51.676C665.834 51.5547 666.034 51.466 666.324 51.41C666.464 51.3727 666.636 51.3493 666.842 51.34C667.056 51.3213 667.299 51.312 667.57 51.312H667.836C668.946 51.312 669.814 51.0693 670.44 50.584C671.065 50.0893 671.378 49.422 671.378 48.582V48.526C671.378 48.1433 671.289 47.7887 671.112 47.462C670.944 47.126 670.692 46.8413 670.356 46.608C670.188 46.496 670.001 46.4027 669.796 46.328C669.59 46.2533 669.366 46.202 669.124 46.174H669.096C669.684 46.1553 670.141 46.0853 670.468 45.964C670.804 45.8427 671.037 45.6607 671.168 45.418C671.233 45.2967 671.28 45.1613 671.308 45.012C671.345 44.8533 671.364 44.6807 671.364 44.494V44.256H669.824V44.41C669.824 44.746 669.782 45.0167 669.698 45.222C669.614 45.4273 669.441 45.586 669.18 45.698C669.049 45.7447 668.886 45.7867 668.69 45.824C668.503 45.852 668.279 45.8753 668.018 45.894C667.924 45.894 667.798 45.8987 667.64 45.908C667.49 45.9173 667.378 45.9313 667.304 45.95C666.38 46.0433 665.666 46.3187 665.162 46.776C664.658 47.224 664.406 47.8167 664.406 48.554V48.568C664.406 49.1747 664.55 49.6693 664.84 50.052C665.129 50.4347 665.563 50.71 666.142 50.878C665.554 50.9807 665.11 51.1673 664.812 51.438C664.513 51.7087 664.364 52.04 664.364 52.432C664.364 52.8053 664.485 53.118 664.728 53.37C664.98 53.622 665.362 53.7853 665.876 53.86C665.25 54.0187 664.793 54.2567 664.504 54.574C664.214 54.8913 664.07 55.2693 664.07 55.708C664.07 56.1093 664.177 56.4547 664.392 56.744C664.616 57.0427 664.994 57.2713 665.526 57.43C665.787 57.5047 666.1 57.5607 666.464 57.598C666.828 57.6447 667.238 57.668 667.696 57.668H667.822ZM667.836 50.304C667.173 50.304 666.66 50.1593 666.296 49.87C665.941 49.5713 665.764 49.1513 665.764 48.61V48.582C665.754 48.05 665.922 47.6347 666.268 47.336C666.613 47.028 667.07 46.8553 667.64 46.818C667.686 46.8087 667.733 46.804 667.78 46.804C667.826 46.7947 667.882 46.79 667.948 46.79C668.321 46.79 668.662 46.846 668.97 46.958C669.287 47.0607 669.539 47.2427 669.726 47.504C669.819 47.6347 669.889 47.7887 669.936 47.966C669.992 48.1433 670.02 48.344 670.02 48.568V48.596C670.02 49.1373 669.833 49.5573 669.46 49.856C669.086 50.1547 668.545 50.304 667.836 50.304ZM667.584 56.534C666.818 56.534 666.263 56.4127 665.918 56.17C665.572 55.9367 665.4 55.6473 665.4 55.302V55.288C665.4 54.9053 665.554 54.588 665.862 54.336C666.179 54.0933 666.655 53.9487 667.29 53.902H668.774C669.455 53.902 669.936 54.0093 670.216 54.224C670.496 54.4387 670.636 54.7187 670.636 55.064C670.636 55.5027 670.416 55.8573 669.978 56.128C669.548 56.3987 668.834 56.534 667.836 56.534H667.584ZM676.747 46.888C677.512 46.888 678.105 47.1167 678.525 47.574C678.945 48.022 679.183 48.624 679.239 49.38H674.059C674.143 48.6053 674.418 47.9987 674.885 47.56C675.361 47.112 675.982 46.888 676.747 46.888ZM680.485 51.62H679.015C678.866 52.0867 678.595 52.446 678.203 52.698C677.811 52.9407 677.326 53.062 676.747 53.062C675.926 53.062 675.282 52.8333 674.815 52.376C674.348 51.9187 674.092 51.2793 674.045 50.458H680.597V49.814C680.597 49.0953 680.457 48.4327 680.177 47.826C679.897 47.21 679.472 46.7153 678.903 46.342C678.623 46.1553 678.301 46.0153 677.937 45.922C677.573 45.8287 677.172 45.782 676.733 45.782C675.912 45.782 675.198 45.9593 674.591 46.314C673.984 46.6593 673.518 47.1447 673.191 47.77C673.032 48.0873 672.911 48.4327 672.827 48.806C672.743 49.17 672.701 49.562 672.701 49.982V50.15C672.701 51.3913 673.032 52.3807 673.695 53.118C674.367 53.846 675.366 54.21 676.691 54.21C677.68 54.21 678.502 53.986 679.155 53.538C679.808 53.0807 680.252 52.4413 680.485 51.62ZM688.151 49.814C688.151 48.9647 688.361 48.2787 688.781 47.756C689.201 47.2333 689.803 46.972 690.587 46.972C691.361 46.972 691.912 47.2007 692.239 47.658C692.575 48.106 692.743 48.7033 692.743 49.45V54H694.115V49.142C694.115 48.134 693.849 47.322 693.317 46.706C692.794 46.09 692.019 45.782 690.993 45.782C690.237 45.782 689.611 45.9687 689.117 46.342C688.631 46.7153 688.281 47.21 688.067 47.826L687.927 46.006H686.779V54H688.151V49.814ZM699.769 54.21C700.581 54.21 701.286 54.0513 701.883 53.734C702.481 53.4073 702.947 52.9407 703.283 52.334C703.442 52.026 703.563 51.69 703.647 51.326C703.731 50.962 703.773 50.5653 703.773 50.136V49.954C703.773 49.0767 703.601 48.33 703.255 47.714C702.919 47.0887 702.448 46.6127 701.841 46.286C701.543 46.118 701.221 45.992 700.875 45.908C700.53 45.824 700.161 45.782 699.769 45.782C699.004 45.782 698.318 45.9453 697.711 46.272C697.105 46.5987 696.629 47.07 696.283 47.686C696.115 48.0033 695.985 48.3487 695.891 48.722C695.807 49.0953 695.765 49.506 695.765 49.954V50.136C695.765 51.4147 696.115 52.4133 696.815 53.132C697.515 53.8507 698.5 54.21 699.769 54.21ZM699.769 52.992C698.948 52.992 698.304 52.74 697.837 52.236C697.38 51.7227 697.151 51.0133 697.151 50.108V49.954C697.151 48.9927 697.394 48.2553 697.879 47.742C698.374 47.2193 699.004 46.958 699.769 46.958C700.544 46.958 701.174 47.2287 701.659 47.77C702.145 48.302 702.387 49.03 702.387 49.954V50.108C702.387 51.0133 702.159 51.7227 701.701 52.236C701.244 52.74 700.6 52.992 699.769 52.992ZM709.655 52.726H709.081C708.605 52.726 708.237 52.6793 707.975 52.586C707.723 52.4833 707.546 52.2873 707.443 51.998C707.397 51.858 707.359 51.6807 707.331 51.466C707.313 51.2513 707.303 50.9993 707.303 50.71V47.21H709.655V46.006H707.303V43.892H706.155C706.155 43.948 706.151 44.0507 706.141 44.2C706.141 44.3493 706.141 44.5033 706.141 44.662C706.132 44.7367 706.127 44.8067 706.127 44.872C706.127 44.928 706.127 44.9747 706.127 45.012C706.109 45.3107 706.076 45.5347 706.029 45.684C705.992 45.8333 705.913 45.9313 705.791 45.978C705.726 46.006 705.647 46.0247 705.553 46.034C705.469 46.0433 705.367 46.048 705.245 46.048H704.475V47.21H706.043V50.906C706.043 51.6993 706.123 52.32 706.281 52.768C706.44 53.216 706.715 53.5333 707.107 53.72C707.303 53.8133 707.541 53.8833 707.821 53.93C708.101 53.9767 708.419 54 708.773 54H709.655V52.726ZM719.631 47.182V46.006H717.475V45.81C717.475 45.2967 717.512 44.914 717.587 44.662C717.661 44.4007 717.806 44.228 718.021 44.144C718.133 44.0973 718.263 44.0647 718.413 44.046C718.571 44.018 718.753 44.004 718.959 44.004H719.631V42.884H718.791C718.156 42.884 717.647 42.968 717.265 43.136C716.882 43.304 716.602 43.5933 716.425 44.004C716.341 44.2 716.275 44.438 716.229 44.718C716.191 44.9887 716.173 45.3013 716.173 45.656V46.006H714.675V47.182H716.173V54H717.475V47.182H719.631ZM724.228 54.21C725.04 54.21 725.745 54.0513 726.342 53.734C726.94 53.4073 727.406 52.9407 727.742 52.334C727.901 52.026 728.022 51.69 728.106 51.326C728.19 50.962 728.232 50.5653 728.232 50.136V49.954C728.232 49.0767 728.06 48.33 727.714 47.714C727.378 47.0887 726.907 46.6127 726.3 46.286C726.002 46.118 725.68 45.992 725.334 45.908C724.989 45.824 724.62 45.782 724.228 45.782C723.463 45.782 722.777 45.9453 722.17 46.272C721.564 46.5987 721.088 47.07 720.742 47.686C720.574 48.0033 720.444 48.3487 720.35 48.722C720.266 49.0953 720.224 49.506 720.224 49.954V50.136C720.224 51.4147 720.574 52.4133 721.274 53.132C721.974 53.8507 722.959 54.21 724.228 54.21ZM724.228 52.992C723.407 52.992 722.763 52.74 722.296 52.236C721.839 51.7227 721.61 51.0133 721.61 50.108V49.954C721.61 48.9927 721.853 48.2553 722.338 47.742C722.833 47.2193 723.463 46.958 724.228 46.958C725.003 46.958 725.633 47.2287 726.118 47.77C726.604 48.302 726.846 49.03 726.846 49.954V50.108C726.846 51.0133 726.618 51.7227 726.16 52.236C725.703 52.74 725.059 52.992 724.228 52.992ZM735.738 54H736.872V46.006H735.514V50.164C735.514 50.9853 735.313 51.6573 734.912 52.18C734.51 52.7027 733.95 52.964 733.232 52.964C732.494 52.964 731.972 52.7353 731.664 52.278C731.356 51.8207 731.202 51.2327 731.202 50.514V46.006H729.844V50.85C729.844 51.8673 730.091 52.6793 730.586 53.286C731.08 53.8833 731.822 54.182 732.812 54.182C733.521 54.182 734.109 54.0093 734.576 53.664C735.052 53.3093 735.392 52.8473 735.598 52.278L735.738 54ZM740.35 49.814C740.35 48.9647 740.56 48.2787 740.98 47.756C741.4 47.2333 742.002 46.972 742.786 46.972C743.56 46.972 744.111 47.2007 744.438 47.658C744.774 48.106 744.942 48.7033 744.942 49.45V54H746.314V49.142C746.314 48.134 746.048 47.322 745.516 46.706C744.993 46.09 744.218 45.782 743.192 45.782C742.436 45.782 741.81 45.9687 741.316 46.342C740.83 46.7153 740.48 47.21 740.266 47.826L740.126 46.006H738.978V54H740.35V49.814ZM751.871 52.992C751.143 52.992 750.541 52.74 750.065 52.236C749.598 51.7227 749.365 50.99 749.365 50.038V49.898C749.365 48.9927 749.589 48.274 750.037 47.742C750.485 47.21 751.129 46.944 751.969 46.944C752.501 46.944 752.958 47.07 753.341 47.322C753.723 47.574 754.017 47.924 754.223 48.372C754.325 48.596 754.4 48.8387 754.447 49.1C754.503 49.352 754.531 49.6273 754.531 49.926V50.024C754.531 50.6027 754.423 51.116 754.209 51.564C753.994 52.012 753.686 52.362 753.285 52.614C753.089 52.7353 752.869 52.8287 752.627 52.894C752.393 52.9593 752.141 52.992 751.871 52.992ZM754.671 54H755.791V43.29H754.475V47.602C754.241 47.0513 753.882 46.6127 753.397 46.286C752.911 45.9593 752.309 45.796 751.591 45.796C750.872 45.796 750.237 45.9547 749.687 46.272C749.145 46.5893 748.721 47.0513 748.413 47.658C748.263 47.966 748.151 48.3067 748.077 48.68C748.002 49.044 747.965 49.4407 747.965 49.87V50.052C747.965 50.9293 748.114 51.676 748.413 52.292C748.711 52.908 749.127 53.3793 749.659 53.706C749.929 53.8647 750.219 53.9813 750.527 54.056C750.835 54.14 751.161 54.182 751.507 54.182C752.281 54.182 752.921 53.9907 753.425 53.608C753.929 53.216 754.293 52.7213 754.517 52.124L754.671 54Z" fill="black"/>
<path d="M1419.91 53.006C1419.12 53.006 1418.49 52.7307 1418.02 52.18C1417.57 51.6293 1417.34 50.9153 1417.34 50.038V49.94C1417.34 49.3613 1417.45 48.848 1417.66 48.4C1417.88 47.952 1418.19 47.5973 1418.58 47.336C1418.78 47.2147 1418.99 47.1213 1419.23 47.056C1419.46 46.9907 1419.71 46.958 1419.97 46.958C1420.73 46.958 1421.34 47.224 1421.82 47.756C1422.29 48.2787 1422.53 49.016 1422.53 49.968V50.122C1422.53 51.0273 1422.3 51.7367 1421.85 52.25C1421.39 52.754 1420.74 53.006 1419.91 53.006ZM1420.31 54.182C1421.02 54.182 1421.65 54.028 1422.18 53.72C1422.72 53.4027 1423.15 52.9407 1423.46 52.334C1423.61 52.0353 1423.72 51.704 1423.79 51.34C1423.87 50.976 1423.9 50.5793 1423.9 50.15V49.968C1423.9 49.0813 1423.75 48.33 1423.46 47.714C1423.17 47.0887 1422.76 46.608 1422.22 46.272C1421.96 46.1133 1421.67 45.992 1421.36 45.908C1421.05 45.824 1420.71 45.782 1420.35 45.782C1419.58 45.782 1418.95 45.9733 1418.44 46.356C1417.95 46.7293 1417.59 47.2147 1417.35 47.812L1417.2 46.006H1416.08V56.786H1417.39V52.348C1417.64 52.908 1418 53.356 1418.49 53.692C1418.97 54.0187 1419.58 54.182 1420.31 54.182ZM1428.23 53.132C1427.7 53.132 1427.31 53.0247 1427.05 52.81C1426.8 52.586 1426.67 52.2873 1426.67 51.914C1426.67 51.6807 1426.72 51.4753 1426.81 51.298C1426.91 51.1207 1427.06 50.9713 1427.25 50.85C1427.47 50.7007 1427.74 50.584 1428.04 50.5C1428.36 50.416 1428.82 50.3273 1429.43 50.234C1429.87 50.1593 1430.25 50.08 1430.58 49.996C1430.9 49.9027 1431.16 49.7813 1431.33 49.632V50.22C1431.33 50.556 1431.26 50.8967 1431.11 51.242C1430.96 51.578 1430.75 51.8907 1430.47 52.18C1430.19 52.4693 1429.87 52.7027 1429.49 52.88C1429.1 53.048 1428.68 53.132 1428.23 53.132ZM1431.53 54H1432.64V48.484C1432.64 47.6627 1432.37 47.0093 1431.84 46.524C1431.31 46.0293 1430.43 45.782 1429.19 45.782C1428.44 45.782 1427.78 45.908 1427.23 46.16C1426.69 46.412 1426.27 46.762 1425.96 47.21C1425.81 47.434 1425.69 47.6767 1425.59 47.938C1425.51 48.19 1425.46 48.4607 1425.44 48.75H1426.83C1426.86 48.19 1427.08 47.7373 1427.47 47.392C1427.87 47.0373 1428.46 46.86 1429.25 46.86C1429.99 46.86 1430.53 46.9907 1430.84 47.252C1431.16 47.504 1431.32 47.8447 1431.32 48.274C1431.32 48.6473 1431.13 48.8993 1430.75 49.03C1430.37 49.1513 1429.84 49.2633 1429.14 49.366C1428.6 49.4407 1428.16 49.5153 1427.81 49.59C1427.45 49.6647 1427.15 49.744 1426.91 49.828C1426.79 49.8747 1426.67 49.926 1426.56 49.982C1426.45 50.038 1426.34 50.1033 1426.22 50.178C1425.91 50.374 1425.65 50.6353 1425.47 50.962C1425.28 51.2887 1425.19 51.662 1425.19 52.082C1425.19 52.726 1425.41 53.244 1425.85 53.636C1426.29 54.0187 1426.95 54.21 1427.81 54.21C1428.69 54.21 1429.44 54 1430.05 53.58C1430.65 53.1507 1431.1 52.628 1431.38 52.012L1431.53 54ZM1437.82 57.668C1439.24 57.668 1440.27 57.4207 1440.92 56.926C1441.57 56.4313 1441.9 55.7873 1441.9 54.994C1441.9 54.3033 1441.65 53.7573 1441.17 53.356C1440.68 52.9547 1439.9 52.754 1438.83 52.754H1436.95C1436.45 52.7633 1436.09 52.712 1435.88 52.6C1435.67 52.4787 1435.57 52.306 1435.57 52.082C1435.57 51.9233 1435.62 51.788 1435.72 51.676C1435.83 51.5547 1436.03 51.466 1436.32 51.41C1436.46 51.3727 1436.64 51.3493 1436.84 51.34C1437.06 51.3213 1437.3 51.312 1437.57 51.312H1437.84C1438.95 51.312 1439.81 51.0693 1440.44 50.584C1441.07 50.0893 1441.38 49.422 1441.38 48.582V48.526C1441.38 48.1433 1441.29 47.7887 1441.11 47.462C1440.94 47.126 1440.69 46.8413 1440.36 46.608C1440.19 46.496 1440 46.4027 1439.8 46.328C1439.59 46.2533 1439.37 46.202 1439.12 46.174H1439.1C1439.68 46.1553 1440.14 46.0853 1440.47 45.964C1440.8 45.8427 1441.04 45.6607 1441.17 45.418C1441.23 45.2967 1441.28 45.1613 1441.31 45.012C1441.35 44.8533 1441.36 44.6807 1441.36 44.494V44.256H1439.82V44.41C1439.82 44.746 1439.78 45.0167 1439.7 45.222C1439.61 45.4273 1439.44 45.586 1439.18 45.698C1439.05 45.7447 1438.89 45.7867 1438.69 45.824C1438.5 45.852 1438.28 45.8753 1438.02 45.894C1437.92 45.894 1437.8 45.8987 1437.64 45.908C1437.49 45.9173 1437.38 45.9313 1437.3 45.95C1436.38 46.0433 1435.67 46.3187 1435.16 46.776C1434.66 47.224 1434.41 47.8167 1434.41 48.554V48.568C1434.41 49.1747 1434.55 49.6693 1434.84 50.052C1435.13 50.4347 1435.56 50.71 1436.14 50.878C1435.55 50.9807 1435.11 51.1673 1434.81 51.438C1434.51 51.7087 1434.36 52.04 1434.36 52.432C1434.36 52.8053 1434.49 53.118 1434.73 53.37C1434.98 53.622 1435.36 53.7853 1435.88 53.86C1435.25 54.0187 1434.79 54.2567 1434.5 54.574C1434.21 54.8913 1434.07 55.2693 1434.07 55.708C1434.07 56.1093 1434.18 56.4547 1434.39 56.744C1434.62 57.0427 1434.99 57.2713 1435.53 57.43C1435.79 57.5047 1436.1 57.5607 1436.46 57.598C1436.83 57.6447 1437.24 57.668 1437.7 57.668H1437.82ZM1437.84 50.304C1437.17 50.304 1436.66 50.1593 1436.3 49.87C1435.94 49.5713 1435.76 49.1513 1435.76 48.61V48.582C1435.75 48.05 1435.92 47.6347 1436.27 47.336C1436.61 47.028 1437.07 46.8553 1437.64 46.818C1437.69 46.8087 1437.73 46.804 1437.78 46.804C1437.83 46.7947 1437.88 46.79 1437.95 46.79C1438.32 46.79 1438.66 46.846 1438.97 46.958C1439.29 47.0607 1439.54 47.2427 1439.73 47.504C1439.82 47.6347 1439.89 47.7887 1439.94 47.966C1439.99 48.1433 1440.02 48.344 1440.02 48.568V48.596C1440.02 49.1373 1439.83 49.5573 1439.46 49.856C1439.09 50.1547 1438.55 50.304 1437.84 50.304ZM1437.58 56.534C1436.82 56.534 1436.26 56.4127 1435.92 56.17C1435.57 55.9367 1435.4 55.6473 1435.4 55.302V55.288C1435.4 54.9053 1435.55 54.588 1435.86 54.336C1436.18 54.0933 1436.66 53.9487 1437.29 53.902H1438.77C1439.46 53.902 1439.94 54.0093 1440.22 54.224C1440.5 54.4387 1440.64 54.7187 1440.64 55.064C1440.64 55.5027 1440.42 55.8573 1439.98 56.128C1439.55 56.3987 1438.83 56.534 1437.84 56.534H1437.58ZM1446.75 46.888C1447.51 46.888 1448.1 47.1167 1448.52 47.574C1448.94 48.022 1449.18 48.624 1449.24 49.38H1444.06C1444.14 48.6053 1444.42 47.9987 1444.88 47.56C1445.36 47.112 1445.98 46.888 1446.75 46.888ZM1450.48 51.62H1449.01C1448.87 52.0867 1448.59 52.446 1448.2 52.698C1447.81 52.9407 1447.33 53.062 1446.75 53.062C1445.93 53.062 1445.28 52.8333 1444.81 52.376C1444.35 51.9187 1444.09 51.2793 1444.04 50.458H1450.6V49.814C1450.6 49.0953 1450.46 48.4327 1450.18 47.826C1449.9 47.21 1449.47 46.7153 1448.9 46.342C1448.62 46.1553 1448.3 46.0153 1447.94 45.922C1447.57 45.8287 1447.17 45.782 1446.73 45.782C1445.91 45.782 1445.2 45.9593 1444.59 46.314C1443.98 46.6593 1443.52 47.1447 1443.19 47.77C1443.03 48.0873 1442.91 48.4327 1442.83 48.806C1442.74 49.17 1442.7 49.562 1442.7 49.982V50.15C1442.7 51.3913 1443.03 52.3807 1443.69 53.118C1444.37 53.846 1445.37 54.21 1446.69 54.21C1447.68 54.21 1448.5 53.986 1449.15 53.538C1449.81 53.0807 1450.25 52.4413 1450.48 51.62ZM1458.15 49.814C1458.15 48.9647 1458.36 48.2787 1458.78 47.756C1459.2 47.2333 1459.8 46.972 1460.59 46.972C1461.36 46.972 1461.91 47.2007 1462.24 47.658C1462.57 48.106 1462.74 48.7033 1462.74 49.45V54H1464.11V49.142C1464.11 48.134 1463.85 47.322 1463.32 46.706C1462.79 46.09 1462.02 45.782 1460.99 45.782C1460.24 45.782 1459.61 45.9687 1459.12 46.342C1458.63 46.7153 1458.28 47.21 1458.07 47.826L1457.93 46.006H1456.78V54H1458.15V49.814ZM1469.77 54.21C1470.58 54.21 1471.29 54.0513 1471.88 53.734C1472.48 53.4073 1472.95 52.9407 1473.28 52.334C1473.44 52.026 1473.56 51.69 1473.65 51.326C1473.73 50.962 1473.77 50.5653 1473.77 50.136V49.954C1473.77 49.0767 1473.6 48.33 1473.26 47.714C1472.92 47.0887 1472.45 46.6127 1471.84 46.286C1471.54 46.118 1471.22 45.992 1470.88 45.908C1470.53 45.824 1470.16 45.782 1469.77 45.782C1469 45.782 1468.32 45.9453 1467.71 46.272C1467.1 46.5987 1466.63 47.07 1466.28 47.686C1466.12 48.0033 1465.98 48.3487 1465.89 48.722C1465.81 49.0953 1465.77 49.506 1465.77 49.954V50.136C1465.77 51.4147 1466.12 52.4133 1466.82 53.132C1467.52 53.8507 1468.5 54.21 1469.77 54.21ZM1469.77 52.992C1468.95 52.992 1468.3 52.74 1467.84 52.236C1467.38 51.7227 1467.15 51.0133 1467.15 50.108V49.954C1467.15 48.9927 1467.39 48.2553 1467.88 47.742C1468.37 47.2193 1469 46.958 1469.77 46.958C1470.54 46.958 1471.17 47.2287 1471.66 47.77C1472.14 48.302 1472.39 49.03 1472.39 49.954V50.108C1472.39 51.0133 1472.16 51.7227 1471.7 52.236C1471.24 52.74 1470.6 52.992 1469.77 52.992ZM1479.66 52.726H1479.08C1478.61 52.726 1478.24 52.6793 1477.98 52.586C1477.72 52.4833 1477.55 52.2873 1477.44 51.998C1477.4 51.858 1477.36 51.6807 1477.33 51.466C1477.31 51.2513 1477.3 50.9993 1477.3 50.71V47.21H1479.66V46.006H1477.3V43.892H1476.16C1476.16 43.948 1476.15 44.0507 1476.14 44.2C1476.14 44.3493 1476.14 44.5033 1476.14 44.662C1476.13 44.7367 1476.13 44.8067 1476.13 44.872C1476.13 44.928 1476.13 44.9747 1476.13 45.012C1476.11 45.3107 1476.08 45.5347 1476.03 45.684C1475.99 45.8333 1475.91 45.9313 1475.79 45.978C1475.73 46.006 1475.65 46.0247 1475.55 46.034C1475.47 46.0433 1475.37 46.048 1475.25 46.048H1474.48V47.21H1476.04V50.906C1476.04 51.6993 1476.12 52.32 1476.28 52.768C1476.44 53.216 1476.72 53.5333 1477.11 53.72C1477.3 53.8133 1477.54 53.8833 1477.82 53.93C1478.1 53.9767 1478.42 54 1478.77 54H1479.66V52.726ZM1489.63 47.182V46.006H1487.47V45.81C1487.47 45.2967 1487.51 44.914 1487.59 44.662C1487.66 44.4007 1487.81 44.228 1488.02 44.144C1488.13 44.0973 1488.26 44.0647 1488.41 44.046C1488.57 44.018 1488.75 44.004 1488.96 44.004H1489.63V42.884H1488.79C1488.16 42.884 1487.65 42.968 1487.26 43.136C1486.88 43.304 1486.6 43.5933 1486.42 44.004C1486.34 44.2 1486.28 44.438 1486.23 44.718C1486.19 44.9887 1486.17 45.3013 1486.17 45.656V46.006H1484.67V47.182H1486.17V54H1487.47V47.182H1489.63ZM1494.23 54.21C1495.04 54.21 1495.75 54.0513 1496.34 53.734C1496.94 53.4073 1497.41 52.9407 1497.74 52.334C1497.9 52.026 1498.02 51.69 1498.11 51.326C1498.19 50.962 1498.23 50.5653 1498.23 50.136V49.954C1498.23 49.0767 1498.06 48.33 1497.71 47.714C1497.38 47.0887 1496.91 46.6127 1496.3 46.286C1496 46.118 1495.68 45.992 1495.33 45.908C1494.99 45.824 1494.62 45.782 1494.23 45.782C1493.46 45.782 1492.78 45.9453 1492.17 46.272C1491.56 46.5987 1491.09 47.07 1490.74 47.686C1490.57 48.0033 1490.44 48.3487 1490.35 48.722C1490.27 49.0953 1490.22 49.506 1490.22 49.954V50.136C1490.22 51.4147 1490.57 52.4133 1491.27 53.132C1491.97 53.8507 1492.96 54.21 1494.23 54.21ZM1494.23 52.992C1493.41 52.992 1492.76 52.74 1492.3 52.236C1491.84 51.7227 1491.61 51.0133 1491.61 50.108V49.954C1491.61 48.9927 1491.85 48.2553 1492.34 47.742C1492.83 47.2193 1493.46 46.958 1494.23 46.958C1495 46.958 1495.63 47.2287 1496.12 47.77C1496.6 48.302 1496.85 49.03 1496.85 49.954V50.108C1496.85 51.0133 1496.62 51.7227 1496.16 52.236C1495.7 52.74 1495.06 52.992 1494.23 52.992ZM1505.74 54H1506.87V46.006H1505.51V50.164C1505.51 50.9853 1505.31 51.6573 1504.91 52.18C1504.51 52.7027 1503.95 52.964 1503.23 52.964C1502.49 52.964 1501.97 52.7353 1501.66 52.278C1501.36 51.8207 1501.2 51.2327 1501.2 50.514V46.006H1499.84V50.85C1499.84 51.8673 1500.09 52.6793 1500.59 53.286C1501.08 53.8833 1501.82 54.182 1502.81 54.182C1503.52 54.182 1504.11 54.0093 1504.58 53.664C1505.05 53.3093 1505.39 52.8473 1505.6 52.278L1505.74 54ZM1510.35 49.814C1510.35 48.9647 1510.56 48.2787 1510.98 47.756C1511.4 47.2333 1512 46.972 1512.79 46.972C1513.56 46.972 1514.11 47.2007 1514.44 47.658C1514.77 48.106 1514.94 48.7033 1514.94 49.45V54H1516.31V49.142C1516.31 48.134 1516.05 47.322 1515.52 46.706C1514.99 46.09 1514.22 45.782 1513.19 45.782C1512.44 45.782 1511.81 45.9687 1511.32 46.342C1510.83 46.7153 1510.48 47.21 1510.27 47.826L1510.13 46.006H1508.98V54H1510.35V49.814ZM1521.87 52.992C1521.14 52.992 1520.54 52.74 1520.06 52.236C1519.6 51.7227 1519.36 50.99 1519.36 50.038V49.898C1519.36 48.9927 1519.59 48.274 1520.04 47.742C1520.48 47.21 1521.13 46.944 1521.97 46.944C1522.5 46.944 1522.96 47.07 1523.34 47.322C1523.72 47.574 1524.02 47.924 1524.22 48.372C1524.33 48.596 1524.4 48.8387 1524.45 49.1C1524.5 49.352 1524.53 49.6273 1524.53 49.926V50.024C1524.53 50.6027 1524.42 51.116 1524.21 51.564C1523.99 52.012 1523.69 52.362 1523.28 52.614C1523.09 52.7353 1522.87 52.8287 1522.63 52.894C1522.39 52.9593 1522.14 52.992 1521.87 52.992ZM1524.67 54H1525.79V43.29H1524.47V47.602C1524.24 47.0513 1523.88 46.6127 1523.4 46.286C1522.91 45.9593 1522.31 45.796 1521.59 45.796C1520.87 45.796 1520.24 45.9547 1519.69 46.272C1519.15 46.5893 1518.72 47.0513 1518.41 47.658C1518.26 47.966 1518.15 48.3067 1518.08 48.68C1518 49.044 1517.96 49.4407 1517.96 49.87V50.052C1517.96 50.9293 1518.11 51.676 1518.41 52.292C1518.71 52.908 1519.13 53.3793 1519.66 53.706C1519.93 53.8647 1520.22 53.9813 1520.53 54.056C1520.83 54.14 1521.16 54.182 1521.51 54.182C1522.28 54.182 1522.92 53.9907 1523.42 53.608C1523.93 53.216 1524.29 52.7213 1524.52 52.124L1524.67 54Z" fill="black"/>
</svg>
