<svg width="80" height="59" viewBox="0 0 80 59" fill="none" xmlns="http://www.w3.org/2000/svg">
<g style="mix-blend-mode:difference">
<path d="M11.0192 11.18C11.9312 11.18 12.6832 10.952 13.2752 10.496C13.8752 10.04 14.2272 9.328 14.3312 8.36V8.336H13.1192V8.348C13.0152 8.94 12.7872 9.388 12.4352 9.692C12.0912 9.988 11.6232 10.136 11.0312 10.136C10.3352 10.136 9.78716 9.92 9.38716 9.488C8.99516 9.048 8.79916 8.44 8.79916 7.664V7.532C8.79916 6.708 9.00716 6.076 9.42316 5.636C9.84716 5.188 10.3872 4.964 11.0432 4.964C11.6032 4.964 12.0632 5.112 12.4232 5.408C12.7832 5.696 13.0112 6.144 13.1072 6.752V6.776H14.3192V6.752C14.2152 5.8 13.8672 5.096 13.2752 4.64C12.6832 4.184 11.9352 3.956 11.0312 3.956C10.3832 3.956 9.79916 4.096 9.27916 4.376C8.75916 4.656 8.35116 5.06 8.05516 5.588C7.90316 5.86 7.78716 6.156 7.70716 6.476C7.63516 6.796 7.59916 7.148 7.59916 7.532V7.688C7.59916 8.784 7.89916 9.64 8.49916 10.256C9.09916 10.872 9.93916 11.18 11.0192 11.18ZM16.9396 11V1.82H15.7756V11H16.9396ZM19.3993 3.272C19.6713 3.272 19.8753 3.208 20.0113 3.08C20.1473 2.952 20.2153 2.74 20.2153 2.444C20.2153 2.14 20.1473 1.928 20.0113 1.808C19.8753 1.68 19.6713 1.616 19.3993 1.616C19.1273 1.616 18.9193 1.68 18.7753 1.808C18.6393 1.928 18.5713 2.14 18.5713 2.444C18.5713 2.748 18.6353 2.964 18.7633 3.092C18.8913 3.212 19.1033 3.272 19.3993 3.272ZM19.9753 11V4.148H18.7873V11H19.9753ZM24.859 11.18C25.771 11.18 26.523 10.952 27.115 10.496C27.715 10.04 28.067 9.328 28.171 8.36V8.336H26.959V8.348C26.855 8.94 26.627 9.388 26.275 9.692C25.931 9.988 25.463 10.136 24.871 10.136C24.175 10.136 23.627 9.92 23.227 9.488C22.835 9.048 22.639 8.44 22.639 7.664V7.532C22.639 6.708 22.847 6.076 23.263 5.636C23.687 5.188 24.227 4.964 24.883 4.964C25.443 4.964 25.903 5.112 26.263 5.408C26.623 5.696 26.851 6.144 26.947 6.752V6.776H28.159V6.752C28.055 5.8 27.707 5.096 27.115 4.64C26.523 4.184 25.775 3.956 24.871 3.956C24.223 3.956 23.639 4.096 23.119 4.376C22.599 4.656 22.191 5.06 21.895 5.588C21.743 5.86 21.627 6.156 21.547 6.476C21.475 6.796 21.439 7.148 21.439 7.532V7.688C21.439 8.784 21.739 9.64 22.339 10.256C22.939 10.872 23.779 11.18 24.859 11.18ZM34.6674 11H36.0114L33.3234 6.776L35.8674 4.148H34.4034L30.8994 7.76L30.7314 7.964V1.82H29.6154V11H30.7314V9.224L32.4354 7.448L34.6674 11ZM39.6488 4.532C39.6488 4.108 39.7648 3.78 39.9968 3.548C40.2368 3.308 40.5248 3.188 40.8608 3.188C41.1648 3.188 41.4048 3.28 41.5808 3.464C41.7568 3.648 41.8448 3.88 41.8448 4.16C41.8448 4.576 41.6808 4.904 41.3528 5.144C41.0328 5.384 40.5608 5.624 39.9368 5.864C39.8408 5.624 39.7688 5.392 39.7208 5.168C39.6728 4.944 39.6488 4.732 39.6488 4.532ZM39.5048 10.196C38.9928 10.196 38.5608 10.084 38.2088 9.86C37.8648 9.636 37.6928 9.264 37.6928 8.744C37.7008 8.312 37.8608 7.98 38.1728 7.748C38.4848 7.508 38.8968 7.284 39.4088 7.076C39.5208 7.276 39.6448 7.48 39.7808 7.688C39.9168 7.896 40.0608 8.104 40.2128 8.312C40.4048 8.568 40.5968 8.812 40.7888 9.044C40.9888 9.268 41.1848 9.476 41.3768 9.668C41.0968 9.836 40.7968 9.968 40.4768 10.064C40.1648 10.152 39.8408 10.196 39.5048 10.196ZM44.3648 11.108C44.6128 11.108 44.8248 11.084 45.0008 11.036C45.1848 10.988 45.3368 10.916 45.4568 10.82V9.776C45.3048 9.896 45.1528 9.988 45.0008 10.052C44.8488 10.116 44.6528 10.148 44.4128 10.148C44.1888 10.148 43.9568 10.108 43.7168 10.028C43.4768 9.948 43.2288 9.828 42.9728 9.668C43.5968 9.1 44.1248 8.432 44.5568 7.664C44.9888 6.896 45.2928 6.124 45.4688 5.348H44.3768C44.2808 5.772 44.1328 6.212 43.9328 6.668C43.7328 7.116 43.4848 7.548 43.1888 7.964C43.0448 8.172 42.8888 8.368 42.7208 8.552C42.5608 8.736 42.3888 8.908 42.2048 9.068C42.0208 8.892 41.8328 8.7 41.6408 8.492C41.4568 8.284 41.2728 8.056 41.0888 7.808C40.9368 7.608 40.7968 7.416 40.6688 7.232C40.5408 7.04 40.4288 6.856 40.3328 6.68C41.1328 6.36 41.7488 6.012 42.1808 5.636C42.6208 5.26 42.8408 4.772 42.8408 4.172C42.8408 3.652 42.6648 3.216 42.3128 2.864C41.9688 2.504 41.4888 2.324 40.8728 2.324C40.4568 2.324 40.0808 2.412 39.7448 2.588C39.4088 2.756 39.1408 3.008 38.9408 3.344C38.8448 3.512 38.7728 3.7 38.7248 3.908C38.6768 4.108 38.6528 4.332 38.6528 4.58C38.6528 4.828 38.6848 5.092 38.7488 5.372C38.8128 5.652 38.9008 5.94 39.0128 6.236C38.5728 6.412 38.1608 6.612 37.7768 6.836C37.4008 7.052 37.1008 7.324 36.8768 7.652C36.7568 7.812 36.6688 7.996 36.6128 8.204C36.5568 8.404 36.5288 8.624 36.5288 8.864C36.5288 9.4 36.6528 9.836 36.9008 10.172C37.1568 10.508 37.5008 10.756 37.9328 10.916C38.1488 10.996 38.3768 11.056 38.6168 11.096C38.8568 11.136 39.1128 11.156 39.3848 11.156C39.8808 11.156 40.3608 11.084 40.8248 10.94C41.2888 10.788 41.7248 10.58 42.1328 10.316C42.4848 10.572 42.8448 10.768 43.2128 10.904C43.5888 11.04 43.9728 11.108 44.3648 11.108ZM47.8291 7.4C47.8291 6.688 48.0091 6.108 48.3691 5.66C48.7291 5.204 49.2371 4.976 49.8931 4.976C50.5651 4.976 51.0451 5.176 51.3331 5.576C51.6291 5.968 51.7771 6.476 51.7771 7.1V11H52.9411V6.812C52.9411 5.94 52.7211 5.248 52.2811 4.736C51.8491 4.216 51.1931 3.956 50.3131 3.956C49.7051 3.956 49.1891 4.1 48.7651 4.388C48.3491 4.676 48.0371 5.056 47.8291 5.528V1.82H46.7131V11H47.8291V7.4ZM57.8007 11.18C58.4967 11.18 59.1007 11.044 59.6127 10.772C60.1247 10.492 60.5247 10.092 60.8127 9.572C60.9487 9.308 61.0527 9.02 61.1247 8.708C61.1967 8.396 61.2327 8.056 61.2327 7.688V7.532C61.2327 6.78 61.0847 6.14 60.7887 5.612C60.5007 5.076 60.0967 4.668 59.5767 4.388C59.3207 4.244 59.0447 4.136 58.7487 4.064C58.4527 3.992 58.1367 3.956 57.8007 3.956C57.1447 3.956 56.5567 4.096 56.0367 4.376C55.5167 4.656 55.1087 5.06 54.8127 5.588C54.6687 5.86 54.5567 6.156 54.4767 6.476C54.4047 6.796 54.3687 7.148 54.3687 7.532V7.688C54.3687 8.784 54.6687 9.64 55.2687 10.256C55.8687 10.872 56.7127 11.18 57.8007 11.18ZM57.8007 10.136C57.0967 10.136 56.5447 9.92 56.1447 9.488C55.7527 9.048 55.5567 8.44 55.5567 7.664V7.532C55.5567 6.708 55.7647 6.076 56.1807 5.636C56.6047 5.188 57.1447 4.964 57.8007 4.964C58.4647 4.964 59.0047 5.196 59.4207 5.66C59.8367 6.116 60.0447 6.74 60.0447 7.532V7.664C60.0447 8.44 59.8487 9.048 59.4567 9.488C59.0647 9.92 58.5127 10.136 57.8007 10.136ZM63.8849 11V1.82H62.7209V11H63.8849ZM68.6854 10.136C68.0614 10.136 67.5454 9.92 67.1374 9.488C66.7374 9.048 66.5374 8.42 66.5374 7.604V7.484C66.5374 6.708 66.7294 6.092 67.1134 5.636C67.4974 5.18 68.0494 4.952 68.7694 4.952C69.2254 4.952 69.6174 5.06 69.9454 5.276C70.2734 5.492 70.5254 5.792 70.7014 6.176C70.7894 6.368 70.8534 6.576 70.8934 6.8C70.9414 7.016 70.9654 7.252 70.9654 7.508V7.592C70.9654 8.088 70.8734 8.528 70.6894 8.912C70.5054 9.296 70.2414 9.596 69.8974 9.812C69.7294 9.916 69.5414 9.996 69.3334 10.052C69.1334 10.108 68.9174 10.136 68.6854 10.136ZM71.0854 11H72.0454V1.82H70.9174V5.516C70.7174 5.044 70.4094 4.668 69.9934 4.388C69.5774 4.108 69.0614 3.968 68.4454 3.968C67.8294 3.968 67.2854 4.104 66.8134 4.376C66.3494 4.648 65.9854 5.044 65.7214 5.564C65.5934 5.828 65.4974 6.12 65.4334 6.44C65.3694 6.752 65.3374 7.092 65.3374 7.46V7.616C65.3374 8.368 65.4654 9.008 65.7214 9.536C65.9774 10.064 66.3334 10.468 66.7894 10.748C67.0214 10.884 67.2694 10.984 67.5334 11.048C67.7974 11.12 68.0774 11.156 68.3734 11.156C69.0374 11.156 69.5854 10.992 70.0174 10.664C70.4494 10.328 70.7614 9.904 70.9534 9.392L71.0854 11Z" fill="white"/>
</g>
<g style="mix-blend-mode:difference">
<circle cx="40" cy="40" r="4.5" fill="white"/>
<circle cx="40" cy="40" r="4.5" stroke="white" stroke-width="3"/>
</g>
<g style="mix-blend-mode:difference">
<circle cx="40" cy="40" r="11.5" stroke="white" stroke-width="3"/>
</g>
<g style="mix-blend-mode:difference">
<circle cx="40" cy="40" r="17.5" stroke="white" stroke-width="3"/>
</g>
</svg>
