<svg width="283" height="493" viewBox="0 0 283 493" fill="none" xmlns="http://www.w3.org/2000/svg">
<path d="M144.205 102.33V102.205H144.119L144.089 102.285L144.205 102.33ZM137.485 67.89L137.362 67.9131L137.382 68.015H137.485V67.89ZM139.585 67.89V68.015H139.733L139.709 67.8691L139.585 67.89ZM128.455 2.37L128.579 2.34906L128.561 2.245H128.455V2.37ZM126.145 2.37V2.245H125.998L126.022 2.39055L126.145 2.37ZM128.245 14.97L128.171 15.0708L128.419 15.2525L128.369 14.9494L128.245 14.97ZM122.995 11.61L122.939 11.7215L122.939 11.7218L122.995 11.61ZM77.6353 150L77.634 149.875L77.6336 149.875L77.6353 150ZM118.375 138.03L118.309 137.924L118.307 137.925L118.375 138.03ZM146.305 102.33L146.425 102.365L146.471 102.205H146.305V102.33ZM144.089 102.285C134.027 128.488 108.032 147.775 77.2153 147.775V148.025C108.138 148.025 134.224 128.672 144.322 102.375L144.089 102.285ZM77.2153 147.775C58.1357 147.775 44.1591 141.434 34.9476 129.214C25.7311 116.986 21.2703 98.8528 21.2703 75.24H21.0203C21.0203 98.8772 25.4845 117.074 34.748 129.364C44.0165 141.661 58.075 148.025 77.2153 148.025V147.775ZM21.2703 75.24C21.2703 51.6299 26.2551 33.4443 35.9435 21.1637C45.6279 8.88797 60.026 2.495 78.8953 2.495V2.245C59.9646 2.245 45.4877 8.66203 35.7472 21.0088C26.0106 33.3507 21.0203 51.6001 21.0203 75.24H21.2703ZM78.8953 2.495C94.0812 2.495 106.805 8.82952 116.68 20.1708C126.557 31.5151 133.585 47.8721 137.362 67.9131L137.608 67.8668C133.826 47.7979 126.784 31.3949 116.868 20.0067C106.95 8.61548 94.1594 2.245 78.8953 2.245V2.495ZM137.485 68.015H139.585V67.765H137.485V68.015ZM139.709 67.8691L128.579 2.34906L128.332 2.39093L139.462 67.9109L139.709 67.8691ZM128.455 2.245H126.145V2.495H128.455V2.245ZM126.022 2.39055L128.122 14.9905L128.369 14.9494L126.269 2.34945L126.022 2.39055ZM128.245 14.97C128.319 14.8692 128.319 14.8692 128.319 14.8692C128.319 14.8691 128.319 14.8691 128.319 14.8691C128.319 14.869 128.319 14.8689 128.319 14.8687C128.318 14.8685 128.318 14.868 128.317 14.8675C128.315 14.8663 128.313 14.8646 128.31 14.8624C128.304 14.858 128.295 14.8514 128.283 14.8428C128.259 14.8255 128.224 14.8001 128.179 14.7674C128.089 14.702 127.957 14.6074 127.793 14.4907C127.464 14.2573 127.004 13.9352 126.478 13.5801C125.427 12.871 124.109 12.0271 123.051 11.4982L122.939 11.7218C123.982 12.2429 125.288 13.079 126.338 13.7874C126.862 14.1411 127.32 14.462 127.648 14.6946C127.812 14.8108 127.943 14.905 128.033 14.97C128.078 15.0025 128.112 15.0278 128.136 15.0448C128.148 15.0534 128.156 15.0599 128.162 15.0643C128.165 15.0664 128.168 15.0681 128.169 15.0692C128.17 15.0697 128.171 15.0701 128.171 15.0704C128.171 15.0705 128.171 15.0706 128.171 15.0707C128.171 15.0707 128.171 15.0708 128.171 15.0708C128.171 15.0708 128.171 15.0708 128.245 14.97ZM123.052 11.4985C105.185 2.46004 93.8259 0.144987 78.4753 0.144987V0.394987C93.7848 0.394987 105.106 2.69995 122.939 11.7215L123.052 11.4985ZM78.4753 0.144987C56.9249 0.144987 37.311 6.87301 23.0831 19.6282C8.85344 32.3849 0.0203133 51.1622 0.0203133 75.24H0.270313C0.270313 51.2278 9.07719 32.5201 23.25 19.8143C37.4246 7.10697 56.9757 0.394987 78.4753 0.394987V0.144987ZM0.0203133 75.24C0.0203133 98.7899 8.11638 117.672 21.8735 130.587C35.6298 143.502 55.0355 150.44 77.6371 150.125L77.6336 149.875C55.0851 150.19 35.7458 143.268 22.0446 130.405C8.34425 117.543 0.270313 98.7301 0.270313 75.24H0.0203133ZM77.6367 150.125C87.5159 150.02 94.8791 148.864 101.194 146.811C107.509 144.759 112.769 141.813 118.443 138.135L118.307 137.925C112.641 141.597 107.402 144.531 101.117 146.574C94.8316 148.616 87.4947 149.77 77.634 149.875L77.6367 150.125ZM118.442 138.136C130.223 130.772 142.426 116.259 146.425 102.365L146.185 102.295C142.205 116.121 130.047 130.588 118.309 137.924L118.442 138.136ZM146.305 102.205H144.205V102.455H146.305V102.205ZM272.164 141.39L272.261 141.469L272.261 141.469L272.164 141.39ZM247.804 132.57L247.927 132.545L247.927 132.545L247.804 132.57ZM240.034 86.58L240.013 86.4569L239.888 86.4789L239.911 86.6031L240.034 86.58ZM156.874 4.47V4.345H156.749V4.47H156.874ZM156.874 6.56999H156.749V6.69499H156.874V6.56999ZM163.174 6.56999H163.299V6.44499H163.174V6.56999ZM163.174 147.9V148.025H163.299V147.9H163.174ZM156.874 147.9V147.775H156.749V147.9H156.874ZM156.874 150H156.749V150.125H156.874V150ZM187.534 150V150.125H187.659V150H187.534ZM187.534 147.9H187.659V147.775H187.534V147.9ZM181.234 147.9H181.109V148.025H181.234V147.9ZM181.234 71.46L181.146 71.3716L181.109 71.4082V71.46H181.234ZM211.474 70.2L211.561 70.1104L211.561 70.1104L211.474 70.2ZM226.174 126.48L226.051 126.503V126.503L226.174 126.48ZM273.004 143.91L272.916 143.822L272.914 143.823L273.004 143.91ZM281.404 108.84H281.529V108.715H281.404V108.84ZM279.304 108.84V108.715H279.179V108.84H279.304ZM207.904 57.18V57.055L207.902 57.055L207.904 57.18ZM181.234 68.73H181.109V69.0572L181.327 68.8133L181.234 68.73ZM181.234 6.56999V6.44499H181.109V6.56999H181.234ZM239.404 83.85L239.283 83.8792L239.312 84.0026L239.435 83.9711L239.404 83.85ZM272.068 141.311C268.206 146.008 263.003 147.973 258.363 146.703C253.726 145.434 249.601 140.917 247.927 132.545L247.682 132.595C249.367 141.023 253.538 145.641 258.297 146.944C263.055 148.247 268.353 146.222 272.261 141.469L272.068 141.311ZM247.927 132.545C246.457 125.409 245.67 120.057 244.673 113.415C243.675 106.773 242.467 98.844 240.157 86.5569L239.911 86.6031C242.221 98.886 243.428 106.812 244.426 113.452C245.423 120.093 246.211 125.451 247.682 132.595L247.927 132.545ZM240.056 86.7031C252.563 84.4959 263.089 80.3419 270.49 73.5735C277.895 66.8012 282.159 57.4215 282.159 44.79H281.909C281.909 57.3585 277.669 66.6688 270.321 73.389C262.969 80.1131 252.495 84.2541 240.013 86.4569L240.056 86.7031ZM282.159 44.79C282.159 31.9423 276.997 21.8243 267.697 14.9221C258.403 8.02338 244.986 4.345 228.484 4.345V4.595C244.953 4.595 258.311 8.26661 267.548 15.1229C276.781 21.9757 281.909 32.0177 281.909 44.79H282.159ZM228.484 4.345H156.874V4.595H228.484V4.345ZM156.749 4.47V6.56999H156.999V4.47H156.749ZM156.874 6.69499H163.174V6.44499H156.874V6.69499ZM163.049 6.56999V147.9H163.299V6.56999H163.049ZM163.174 147.775H156.874V148.025H163.174V147.775ZM156.749 147.9V150H156.999V147.9H156.749ZM156.874 150.125H187.534V149.875H156.874V150.125ZM187.659 150V147.9H187.409V150H187.659ZM187.534 147.775H181.234V148.025H187.534V147.775ZM181.359 147.9V71.46H181.109V147.9H181.359ZM181.323 71.5484C190.098 62.7731 203.67 62.7808 211.387 70.2896L211.561 70.1104C203.739 62.4992 190.011 62.5069 181.146 71.3716L181.323 71.5484ZM211.387 70.2896C215.348 74.146 217.495 80.0969 219.411 89.1521C221.327 98.2093 223.004 110.322 226.051 126.503L226.297 126.457C223.254 110.298 221.571 98.1557 219.655 89.1004C217.739 80.0431 215.581 74.024 211.561 70.1104L211.387 70.2896ZM226.051 126.503C228.999 142.085 237.589 149.742 247.042 151.854C256.484 153.964 266.765 150.537 273.094 143.997L272.914 143.823C266.643 150.303 256.45 153.701 247.096 151.611C237.755 149.523 229.229 141.955 226.297 126.457L226.051 126.503ZM273.093 143.998C278.169 138.922 281.529 128.378 281.529 111.99H281.279C281.279 128.362 277.919 138.818 272.916 143.822L273.093 143.998ZM281.529 111.99V108.84H281.279V111.99H281.529ZM281.404 108.715H279.304V108.965H281.404V108.715ZM279.179 108.84V111.78H279.429V108.84H279.179ZM279.179 111.78C279.179 117.863 278.602 123.786 277.424 128.92C276.244 134.056 274.465 138.392 272.068 141.311L272.261 141.469C274.693 138.508 276.484 134.129 277.667 128.975C278.851 123.819 279.429 117.877 279.429 111.78H279.179ZM207.902 57.055C193.577 57.2657 184.726 64.6395 181.141 68.6466L181.327 68.8133C184.882 64.8404 193.671 57.5143 207.906 57.305L207.902 57.055ZM181.359 68.73V6.56999H181.109V68.73H181.359ZM181.234 6.69499H221.344V6.44499H181.234V6.69499ZM221.344 6.69499C234.872 6.69499 244.968 9.8412 251.682 16.1374C258.395 22.4322 261.749 31.8961 261.749 44.58H261.999C261.999 31.8539 258.633 22.3128 251.853 15.9551C245.075 9.59879 234.906 6.44499 221.344 6.44499V6.69499ZM261.749 44.58C261.749 63.2566 255.665 79.5516 239.373 83.7289L239.435 83.9711C255.904 79.7484 261.999 63.2834 261.999 44.58H261.749ZM239.526 83.8208C237.001 73.3005 232.631 66.6038 227.115 62.5394C221.6 58.4757 214.955 57.055 207.904 57.055V57.305C214.923 57.305 221.509 58.7193 226.966 62.7406C232.423 66.7612 236.768 73.3995 239.283 83.8792L239.526 83.8208ZM120.522 262.25V262.125H120.416L120.399 262.23L120.522 262.25ZM117.582 280.52L117.705 280.541L117.705 280.54L117.582 280.52ZM37.7821 317.9H37.6571V318.025H37.7821V317.9ZM37.7821 245.03V244.905H37.6571V245.03H37.7821ZM85.0321 245.03H85.1571V244.905H85.0321V245.03ZM85.0321 266.03H84.9071V266.155H85.0321V266.03ZM87.1321 266.03V266.155H87.2571V266.03H87.1321ZM87.1321 221.93H87.2571V221.805H87.1321V221.93ZM85.0321 221.93V221.805H84.9071V221.93H85.0321ZM85.0321 242.93V243.055H85.1571V242.93H85.0321ZM37.7821 242.93H37.6571V243.055H37.7821V242.93ZM37.7821 176.57V176.445H37.6571V176.57H37.7821ZM66.1321 176.57L66.1332 176.445H66.1321V176.57ZM110.442 213.95L110.565 213.929L110.565 213.929L110.442 213.95ZM111.702 221.51L111.579 221.531L111.596 221.635H111.702V221.51ZM113.802 221.51V221.635H113.948L113.926 221.491L113.802 221.51ZM106.452 174.47L106.576 174.451L106.559 174.345H106.452V174.47ZM14.0521 174.47V174.345H13.9271V174.47H14.0521ZM14.0521 176.57H13.9271V176.695H14.0521V176.57ZM19.7221 176.57H19.8471V176.445H19.7221V176.57ZM19.7221 317.9V318.025H19.8471V317.9H19.7221ZM13.4221 317.9V317.775H13.2971V317.9H13.4221ZM13.4221 320H13.2971V320.125H13.4221V320ZM113.382 320V320.125H113.489L113.506 320.02L113.382 320ZM122.622 262.25L122.745 262.27L122.769 262.125H122.622V262.25ZM120.399 262.23L117.459 280.5L117.705 280.54L120.645 262.27L120.399 262.23ZM117.459 280.499C115.152 294.026 110.384 303.34 103.405 309.274C96.426 315.207 87.2187 317.775 76.0021 317.775V318.025C87.2555 318.025 96.5281 315.448 103.567 309.464C110.605 303.48 115.392 294.104 117.705 280.541L117.459 280.499ZM76.0021 317.775H37.7821V318.025H76.0021V317.775ZM37.9071 317.9V245.03H37.6571V317.9H37.9071ZM37.7821 245.155H85.0321V244.905H37.7821V245.155ZM84.9071 245.03V266.03H85.1571V245.03H84.9071ZM85.0321 266.155H87.1321V265.905H85.0321V266.155ZM87.2571 266.03V221.93H87.0071V266.03H87.2571ZM87.1321 221.805H85.0321V222.055H87.1321V221.805ZM84.9071 221.93V242.93H85.1571V221.93H84.9071ZM85.0321 242.805H37.7821V243.055H85.0321V242.805ZM37.9071 242.93V176.57H37.6571V242.93H37.9071ZM37.7821 176.695H66.1321V176.445H37.7821V176.695ZM66.131 176.695C78.2004 176.8 87.9313 178.375 95.3006 183.785C102.666 189.191 107.697 198.447 110.319 213.971L110.565 213.929C107.938 198.373 102.888 189.044 95.4485 183.583C88.0128 178.125 78.2138 176.55 66.1332 176.445L66.131 176.695ZM110.319 213.971L111.579 221.531L111.825 221.489L110.565 213.929L110.319 213.971ZM111.702 221.635H113.802V221.385H111.702V221.635ZM113.926 221.491L106.576 174.451L106.329 174.489L113.679 221.529L113.926 221.491ZM106.452 174.345H14.0521V174.595H106.452V174.345ZM13.9271 174.47V176.57H14.1771V174.47H13.9271ZM14.0521 176.695H19.7221V176.445H14.0521V176.695ZM19.5971 176.57V317.9H19.8471V176.57H19.5971ZM19.7221 317.775H13.4221V318.025H19.7221V317.775ZM13.2971 317.9V320H13.5471V317.9H13.2971ZM13.4221 320.125H113.382V319.875H13.4221V320.125ZM113.506 320.02L122.745 262.27L122.499 262.23L113.259 319.98L113.506 320.02ZM122.622 262.125H120.522V262.375H122.622V262.125ZM129.906 320H129.781V320.125H129.906V320ZM129.906 174.47V174.345H129.781V174.47H129.906ZM129.906 176.57H129.781V176.695H129.906V176.57ZM136.206 176.57H136.331V176.445H136.206V176.57ZM136.206 317.9V318.025H136.331V317.9H136.206ZM129.906 317.9V317.775H129.781V317.9H129.906ZM155.526 317.9H155.401V318.025H155.526V317.9ZM155.526 176.57V176.445H155.401V176.57H155.526ZM129.906 320.125H193.536V319.875H129.906V320.125ZM193.536 320.125C216.139 320.125 234.967 312.713 248.145 299.903C261.323 287.094 268.841 268.895 268.841 247.34H268.591C268.591 268.835 261.095 286.966 247.971 299.724C234.846 312.482 216.084 319.875 193.536 319.875V320.125ZM268.841 247.34C268.841 225.475 262.376 207.222 249.089 194.435C235.803 181.649 215.713 174.345 188.496 174.345V174.595C215.67 174.595 235.69 181.886 248.916 194.615C262.142 207.343 268.591 225.525 268.591 247.34H268.841ZM188.496 174.345H129.906V174.595H188.496V174.345ZM129.781 174.47V176.57H130.031V174.47H129.781ZM129.906 176.695H136.206V176.445H129.906V176.695ZM136.081 176.57V317.9H136.331V176.57H136.081ZM136.206 317.775H129.906V318.025H136.206V317.775ZM129.781 317.9V320H130.031V317.9H129.781ZM155.651 317.9V176.57H155.401V317.9H155.651ZM155.526 176.695H188.286V176.445H155.526V176.695ZM188.286 176.695C207.048 176.695 221.921 183.611 232.106 195.891C242.294 208.174 247.801 225.835 247.801 247.34H248.051C248.051 225.795 242.534 208.071 232.299 195.731C222.062 183.389 207.115 176.445 188.286 176.445V176.695ZM247.801 247.34C247.801 268.848 242.765 286.456 232.998 298.686C223.233 310.911 208.728 317.775 189.756 317.775V318.025C208.795 318.025 223.375 311.134 233.193 298.842C243.008 286.554 248.051 268.883 248.051 247.34H247.801ZM189.756 317.775H155.526V318.025H189.756V317.775ZM6.65449 490H6.52949V490.125H6.65449V490ZM37.3145 490V490.125H37.4395V490H37.3145ZM37.3145 487.9H37.4395V487.775H37.3145V487.9ZM31.0145 487.9H30.8895V488.025H31.0145V487.9ZM31.0145 346.57V346.445H30.8895V346.57H31.0145ZM37.3145 346.57V346.695H37.4395V346.57H37.3145ZM37.3145 344.47H37.4395V344.345H37.3145V344.47ZM6.65449 344.47V344.345H6.52949V344.47H6.65449ZM6.65449 346.57H6.52949V346.695H6.65449V346.57ZM12.9545 346.57H13.0795V346.445H12.9545V346.57ZM12.9545 487.9V488.025H13.0795V487.9H12.9545ZM6.65449 487.9V487.775H6.52949V487.9H6.65449ZM6.65449 490.125H37.3145V489.875H6.65449V490.125ZM37.4395 490V487.9H37.1895V490H37.4395ZM37.3145 487.775H31.0145V488.025H37.3145V487.775ZM31.1395 487.9V346.57H30.8895V487.9H31.1395ZM31.0145 346.695H37.3145V346.445H31.0145V346.695ZM37.4395 346.57V344.47H37.1895V346.57H37.4395ZM37.3145 344.345H6.65449V344.595H37.3145V344.345ZM6.52949 344.47V346.57H6.77949V344.47H6.52949ZM6.65449 346.695H12.9545V346.445H6.65449V346.695ZM12.8295 346.57V487.9H13.0795V346.57H12.8295ZM12.9545 487.775H6.65449V488.025H12.9545V487.775ZM6.52949 487.9V490H6.77949V487.9H6.52949ZM165.636 391.51V391.635H165.775L165.76 391.497L165.636 391.51ZM160.596 344.47L160.72 344.457L160.708 344.345H160.596V344.47ZM50.556 344.47V344.345H50.4432L50.4316 344.457L50.556 344.47ZM45.726 391.51L45.6016 391.497L45.5875 391.635H45.726V391.51ZM47.826 391.51V391.635H47.9386L47.9503 391.523L47.826 391.51ZM49.296 377.44L49.1717 377.427L49.1717 377.427L49.296 377.44ZM96.756 346.36H96.881V346.235H96.756V346.36ZM96.756 487.9V488.025H96.881V487.9H96.756ZM90.456 487.9V487.775H90.331V487.9H90.456ZM90.456 490H90.331V490.125H90.456V490ZM121.116 490V490.125H121.241V490H121.116ZM121.116 487.9H121.241V487.775H121.116V487.9ZM114.816 487.9H114.691V488.025H114.816V487.9ZM114.816 346.36V346.235H114.691V346.36H114.816ZM162.066 377.44L162.19 377.427L162.19 377.426L162.066 377.44ZM163.536 391.51L163.412 391.523L163.423 391.635H163.536V391.51ZM165.76 391.497L160.72 344.457L160.472 344.483L165.512 391.523L165.76 391.497ZM160.596 344.345H50.556V344.595H160.596V344.345ZM50.4316 344.457L45.6016 391.497L45.8503 391.523L50.6803 344.483L50.4316 344.457ZM45.726 391.635H47.826V391.385H45.726V391.635ZM47.9503 391.523L49.4203 377.453L49.1717 377.427L47.7017 391.497L47.9503 391.523ZM49.4203 377.453C50.993 362.669 55.7599 354.941 61.86 350.9C67.9678 346.855 75.4396 346.485 82.476 346.485V346.235C75.4423 346.235 67.8991 346.6 61.7219 350.692C55.5371 354.789 50.7489 362.601 49.1717 377.427L49.4203 377.453ZM82.476 346.485H96.756V346.235H82.476V346.485ZM96.631 346.36V487.9H96.881V346.36H96.631ZM96.756 487.775H90.456V488.025H96.756V487.775ZM90.331 487.9V490H90.581V487.9H90.331ZM90.456 490.125H121.116V489.875H90.456V490.125ZM121.241 490V487.9H120.991V490H121.241ZM121.116 487.775H114.816V488.025H121.116V487.775ZM114.941 487.9V346.36H114.691V487.9H114.941ZM114.816 346.485H128.886V346.235H114.816V346.485ZM128.886 346.485C135.922 346.485 143.342 346.855 149.423 350.9C155.497 354.941 160.264 362.67 161.942 377.454L162.19 377.426C160.508 362.6 155.72 354.789 149.561 350.692C143.41 346.6 135.92 346.235 128.886 346.235V346.485ZM161.942 377.453L163.412 391.523L163.66 391.497L162.19 377.427L161.942 377.453ZM163.536 391.635H165.636V391.385H163.536V391.635ZM177.988 492.1L177.863 492.096L177.859 492.225H177.988V492.1ZM180.088 492.1V492.225H180.21L180.213 492.104L180.088 492.1ZM180.508 477.82L180.585 477.721L180.391 477.571L180.383 477.816L180.508 477.82ZM229.438 408.31L229.486 408.194L229.438 408.31ZM267.028 385.21L266.903 385.206L266.903 385.207L267.028 385.21ZM266.398 410.2L266.273 410.197L266.27 410.325H266.398V410.2ZM268.498 410.2V410.325H268.62L268.623 410.203L268.498 410.2ZM270.388 342.37L270.513 342.373L270.517 342.245H270.388V342.37ZM268.288 342.37V342.245H268.165L268.163 342.368L268.288 342.37ZM268.078 354.13L268.009 354.234L268.199 354.361L268.203 354.132L268.078 354.13ZM172.948 382.27L173.073 382.263L173.073 382.262L172.948 382.27ZM218.308 425.74L218.357 425.625L218.354 425.624L218.308 425.74ZM181.768 438.97L181.893 438.974L181.893 438.974L181.768 438.97ZM181.978 432.25L182.103 432.254L182.107 432.125H181.978V432.25ZM179.878 432.25V432.125H179.757L179.753 432.246L179.878 432.25ZM177.988 492.225H180.088V491.975H177.988V492.225ZM180.213 492.104L180.633 477.824L180.383 477.816L179.963 492.096L180.213 492.104ZM180.432 477.919C190.743 485.915 205.47 492.225 225.448 492.225V491.975C205.526 491.975 190.853 485.684 180.585 477.721L180.432 477.919ZM225.448 492.225C240.17 492.225 252.171 488.176 260.494 481.091C268.819 474.005 273.453 463.889 273.453 451.78H273.203C273.203 463.821 268.598 473.865 260.332 480.901C252.065 487.939 240.126 491.975 225.448 491.975V492.225ZM273.453 451.78C273.453 440.393 267.915 431.75 259.654 424.83C251.395 417.913 240.407 412.71 229.486 408.194L229.39 408.426C240.309 412.94 251.266 418.132 259.493 425.022C267.716 431.91 273.203 440.487 273.203 451.78H273.453ZM229.486 408.194C218.557 403.676 207.759 399.692 199.687 394.346C191.623 389.004 186.303 382.318 186.303 372.4H186.053C186.053 382.432 191.444 389.186 199.549 394.554C207.647 399.918 218.479 403.914 229.39 408.426L229.486 408.194ZM186.303 372.4C186.303 364.447 188.814 357.503 194.529 352.544C200.247 347.584 209.191 344.595 222.088 344.595V344.345C209.156 344.345 200.145 347.341 194.365 352.356C188.583 357.372 186.053 364.393 186.053 372.4H186.303ZM222.088 344.595C237.61 344.595 249.02 348.318 256.443 355.245C263.864 362.17 267.323 372.315 266.903 385.206L267.153 385.214C267.574 372.275 264.102 362.05 256.614 355.062C249.127 348.077 237.646 344.345 222.088 344.345V344.595ZM266.903 385.207L266.273 410.197L266.523 410.203L267.153 385.213L266.903 385.207ZM266.398 410.325H268.498V410.075H266.398V410.325ZM268.623 410.203L270.513 342.373L270.263 342.367L268.373 410.197L268.623 410.203ZM270.388 342.245H268.288V342.495H270.388V342.245ZM268.163 342.368L267.953 354.128L268.203 354.132L268.413 342.372L268.163 342.368ZM268.148 354.026C259.306 348.132 245.632 342.245 222.088 342.245V342.495C245.585 342.495 259.21 348.368 268.009 354.234L268.148 354.026ZM222.088 342.245C208.63 342.245 195.897 345.557 186.735 352.218C177.567 358.883 171.981 368.898 172.823 382.278L173.073 382.262C172.236 368.972 177.779 359.037 186.882 352.42C195.989 345.798 208.666 342.495 222.088 342.495V342.245ZM172.823 382.277C173.456 393.451 179.15 402.091 187.516 409.062C195.879 416.032 206.919 421.34 218.262 425.856L218.354 425.624C207.018 421.11 196.008 415.813 187.676 408.87C179.347 401.929 173.701 393.349 173.073 382.263L172.823 382.277ZM218.26 425.855C228.98 430.375 239.567 434.2 247.481 439.468C255.387 444.729 260.603 451.415 260.603 461.65H260.853C260.853 451.305 255.57 444.551 247.62 439.26C239.68 433.975 229.056 430.135 218.357 425.625L218.26 425.855ZM260.603 461.65C260.603 469.912 257.519 476.963 251.592 481.951C245.661 486.94 236.873 489.875 225.448 489.875V490.125C236.914 490.125 245.765 487.18 251.752 482.142C257.742 477.102 260.853 469.978 260.853 461.65H260.603ZM225.448 489.875C208.147 489.875 197.009 484.895 190.32 476.065C183.627 467.227 181.368 454.505 181.893 438.974L181.643 438.966C181.118 454.515 183.375 467.308 190.121 476.215C196.873 485.13 208.099 490.125 225.448 490.125V489.875ZM181.893 438.974L182.103 432.254L181.853 432.246L181.643 438.966L181.893 438.974ZM181.978 432.125H179.878V432.375H181.978V432.125ZM179.753 432.246L177.863 492.096L178.113 492.104L180.003 432.254L179.753 432.246Z" fill="#0000FF"/>
</svg>
