<svg width="1174" height="219" viewBox="0 0 1174 219" fill="none" xmlns="http://www.w3.org/2000/svg">
<path d="M206.331 146.9V146.65H206.159L206.098 146.81L206.331 146.9ZM196.731 97.7L196.486 97.7463L196.524 97.95H196.731V97.7ZM199.731 97.7V97.95H200.027L199.978 97.6581L199.731 97.7ZM183.831 4.1L184.078 4.05813L184.042 3.85H183.831V4.1ZM180.531 4.1V3.85H180.236L180.285 4.1411L180.531 4.1ZM183.531 22.1L183.383 22.3016L183.879 22.6649L183.778 22.0589L183.531 22.1ZM176.031 17.3L175.918 17.5231L175.919 17.5236L176.031 17.3ZM111.231 215L111.229 214.75L111.228 214.75L111.231 215ZM169.431 197.9L169.299 197.688L169.295 197.69L169.431 197.9ZM209.331 146.9L209.571 146.969L209.663 146.65H209.331V146.9ZM206.098 146.81C191.734 184.216 154.625 211.75 110.631 211.75V212.25C154.838 212.25 192.129 184.584 206.565 146.99L206.098 146.81ZM110.631 211.75C83.392 211.75 63.4489 202.699 50.3059 185.262C37.1529 167.812 30.7813 141.926 30.7813 108.2H30.2813C30.2813 141.974 36.6596 167.988 49.9066 185.563C63.1636 203.151 83.2706 212.25 110.631 212.25V211.75ZM30.7813 108.2C30.7813 74.4797 37.9008 48.5187 51.7275 30.9923C65.5464 13.4759 86.0926 4.35 113.031 4.35V3.85C85.9699 3.85 65.2661 13.0241 51.335 30.6827C37.4117 48.3313 30.2813 74.4203 30.2813 108.2H30.7813ZM113.031 4.35C134.703 4.35 152.861 13.389 166.955 29.5767C181.054 45.7703 191.091 69.1241 196.486 97.7463L196.977 97.6537C191.572 68.9759 181.508 45.5297 167.332 29.2483C153.151 12.961 134.86 3.85 113.031 3.85V4.35ZM196.731 97.95H199.731V97.45H196.731V97.95ZM199.978 97.6581L184.078 4.05813L183.585 4.14187L199.485 97.7419L199.978 97.6581ZM183.831 3.85H180.531V4.35H183.831V3.85ZM180.285 4.1411L183.285 22.1411L183.778 22.0589L180.778 4.0589L180.285 4.1411ZM183.531 22.1C183.679 21.8984 183.679 21.8984 183.679 21.8983C183.679 21.8983 183.679 21.8983 183.679 21.8982C183.679 21.8981 183.678 21.8979 183.678 21.8977C183.678 21.8973 183.677 21.8967 183.676 21.8959C183.673 21.8942 183.67 21.8918 183.666 21.8886C183.657 21.8823 183.644 21.8728 183.627 21.8605C183.593 21.8358 183.543 21.7994 183.478 21.7526C183.349 21.6591 183.161 21.5239 182.926 21.3571C182.456 21.0234 181.798 20.5629 181.046 20.0553C179.545 19.042 177.659 17.8341 176.143 17.0764L175.919 17.5236C177.404 18.2658 179.268 19.458 180.766 20.4697C181.514 20.9746 182.169 21.4328 182.637 21.7648C182.87 21.9307 183.057 22.0651 183.186 22.1579C183.25 22.2043 183.299 22.2403 183.333 22.2647C183.35 22.2768 183.362 22.2861 183.371 22.2923C183.375 22.2954 183.378 22.2978 183.38 22.2993C183.381 22.3001 183.382 22.3007 183.383 22.3011C183.383 22.3012 183.383 22.3014 183.383 22.3015C183.383 22.3015 183.383 22.3016 183.383 22.3016C183.383 22.3016 183.383 22.3016 183.531 22.1ZM176.144 17.0769C150.611 4.16007 134.372 0.849982 112.431 0.849982V1.34998C134.29 1.34998 150.452 4.63991 175.918 17.5231L176.144 17.0769ZM112.431 0.849982C81.6305 0.849982 53.5927 10.466 33.2519 28.7013C12.9075 46.9398 0.28125 73.7845 0.28125 108.2H0.78125C0.78125 73.9155 13.355 47.2101 33.5856 29.0736C53.8198 10.9339 81.732 1.34998 112.431 1.34998V0.849982ZM0.28125 108.2C0.28125 141.86 11.8534 168.854 31.5226 187.32C51.1903 205.784 78.9317 215.701 111.235 215.25L111.228 214.75C79.0309 215.199 51.4223 205.316 31.8649 186.955C12.3091 168.596 0.78125 141.74 0.78125 108.2H0.28125ZM111.234 215.25C125.353 215.1 135.879 213.447 144.909 210.513C153.938 207.578 161.459 203.365 169.567 198.11L169.295 197.69C161.203 202.935 153.724 207.122 144.754 210.037C135.784 212.953 125.31 214.6 111.229 214.75L111.234 215.25ZM169.564 198.112C186.407 187.585 203.852 166.838 209.571 146.969L209.091 146.831C203.411 166.562 186.055 187.215 169.299 197.688L169.564 198.112ZM209.331 146.65H206.331V147.15H209.331V146.65ZM389.13 202.7L389.323 202.859L389.323 202.859L389.13 202.7ZM354.33 190.1L354.575 190.051L354.575 190.05L354.33 190.1ZM343.23 124.4L343.186 124.154L342.937 124.198L342.984 124.446L343.23 124.4ZM224.43 7.09999V6.84999H224.18V7.09999H224.43ZM224.43 10.1H224.18V10.35H224.43V10.1ZM233.43 10.1H233.68V9.84999H233.43V10.1ZM233.43 212V212.25H233.68V212H233.43ZM224.43 212V211.75H224.18V212H224.43ZM224.43 215H224.18V215.25H224.43V215ZM268.23 215V215.25H268.48V215H268.23ZM268.23 212H268.48V211.75H268.23V212ZM259.23 212H258.98V212.25H259.23V212ZM259.23 102.8L259.053 102.623L258.98 102.696V102.8H259.23ZM302.43 101L302.604 100.821L302.604 100.821L302.43 101ZM323.43 181.4L323.184 181.446L323.184 181.446L323.43 181.4ZM390.33 206.3L390.153 206.123L390.15 206.126L390.33 206.3ZM402.33 156.2H402.58V155.95H402.33V156.2ZM399.33 156.2V155.95H399.08V156.2H399.33ZM297.33 82.4V82.15L297.326 82.15L297.33 82.4ZM259.23 98.9H258.98V99.5543L259.416 99.0667L259.23 98.9ZM259.23 10.1V9.84999H258.98V10.1H259.23ZM342.33 120.5L342.087 120.558L342.146 120.805L342.392 120.742L342.33 120.5ZM388.937 202.541C383.432 209.236 376.028 212.027 369.433 210.221C362.843 208.417 356.964 201.994 354.575 190.051L354.085 190.149C356.496 202.206 362.467 208.833 369.301 210.704C376.132 212.573 383.727 209.664 389.323 202.859L388.937 202.541ZM354.575 190.05C352.476 179.857 351.352 172.213 349.927 162.725C348.502 153.236 346.776 141.908 343.475 124.354L342.984 124.446C346.283 141.992 348.008 153.314 349.432 162.8C350.857 172.287 351.983 179.943 354.085 190.15L354.575 190.05ZM343.273 124.646C361.148 121.492 376.2 115.554 386.786 105.872C397.38 96.1824 403.48 82.7629 403.48 64.7H402.98C402.98 82.6371 396.929 95.9176 386.448 105.503C375.959 115.096 361.011 121.008 343.186 124.154L343.273 124.646ZM403.48 64.7C403.48 46.3246 396.095 31.8486 382.791 21.9742C369.496 12.1068 350.313 6.84999 326.73 6.84999V7.34999C350.247 7.34999 369.313 12.5932 382.493 22.3757C395.664 32.1514 402.98 46.4754 402.98 64.7H403.48ZM326.73 6.84999H224.43V7.34999H326.73V6.84999ZM224.18 7.09999V10.1H224.68V7.09999H224.18ZM224.43 10.35H233.43V9.84999H224.43V10.35ZM233.18 10.1V212H233.68V10.1H233.18ZM233.43 211.75H224.43V212.25H233.43V211.75ZM224.18 212V215H224.68V212H224.18ZM224.43 215.25H268.23V214.75H224.43V215.25ZM268.48 215V212H267.98V215H268.48ZM268.23 211.75H259.23V212.25H268.23V211.75ZM259.48 212V102.8H258.98V212H259.48ZM259.406 102.977C271.917 90.4661 291.261 90.4816 302.255 101.179L302.604 100.821C291.399 89.9184 271.742 89.9338 259.053 102.623L259.406 102.977ZM302.255 101.179C307.897 106.672 310.961 115.154 313.698 128.089C316.436 141.029 318.83 158.324 323.184 181.446L323.675 181.354C319.33 158.276 316.924 140.921 314.187 127.986C311.449 115.046 308.363 106.428 302.604 100.821L302.255 101.179ZM323.184 181.446C327.4 203.729 339.688 214.694 353.225 217.719C366.739 220.739 381.452 215.834 390.509 206.474L390.15 206.126C381.208 215.366 366.671 220.211 353.334 217.231C340.021 214.256 327.86 203.471 323.675 181.354L323.184 181.446ZM390.506 206.477C397.78 199.203 402.58 184.116 402.58 160.7H402.08C402.08 184.084 397.28 198.997 390.153 206.123L390.506 206.477ZM402.58 160.7V156.2H402.08V160.7H402.58ZM402.33 155.95H399.33V156.45H402.33V155.95ZM399.08 156.2V160.4H399.58V156.2H399.08ZM399.08 160.4C399.08 169.085 398.256 177.541 396.574 184.869C394.89 192.201 392.352 198.384 388.937 202.541L389.323 202.859C392.808 198.616 395.369 192.349 397.061 184.981C398.753 177.609 399.58 169.115 399.58 160.4H399.08ZM297.326 82.15C276.835 82.4514 264.174 92.9991 259.043 98.7333L259.416 99.0667C264.485 93.4009 277.024 82.9486 297.333 82.65L297.326 82.15ZM259.48 98.9V10.1H258.98V98.9H259.48ZM259.23 10.35H316.53V9.84999H259.23V10.35ZM316.53 10.35C335.845 10.35 350.248 14.8424 359.821 23.8199C369.392 32.7944 374.18 46.2923 374.18 64.4H374.68C374.68 46.2077 369.868 32.5556 360.163 23.4551C350.462 14.3576 335.914 9.84999 316.53 9.84999V10.35ZM374.18 64.4C374.18 91.0731 365.491 114.303 342.268 120.258L342.392 120.742C365.969 114.697 374.68 91.1269 374.68 64.4H374.18ZM342.573 120.442C338.963 105.401 332.713 95.8177 324.815 89.9987C316.92 84.1813 307.412 82.15 297.33 82.15V82.65C307.348 82.65 316.739 84.6687 324.519 90.4013C332.297 96.1323 338.496 105.599 342.087 120.558L342.573 120.442ZM566.688 132.5V132.25H566.475L566.441 132.46L566.688 132.5ZM562.488 158.6L562.734 158.642L562.734 158.64L562.488 158.6ZM448.488 212H448.238V212.25H448.488V212ZM448.488 107.9V107.65H448.238V107.9H448.488ZM515.988 107.9H516.238V107.65H515.988V107.9ZM515.988 137.9H515.738V138.15H515.988V137.9ZM518.988 137.9V138.15H519.238V137.9H518.988ZM518.988 74.9H519.238V74.65H518.988V74.9ZM515.988 74.9V74.65H515.738V74.9H515.988ZM515.988 104.9V105.15H516.238V104.9H515.988ZM448.488 104.9H448.238V105.15H448.488V104.9ZM448.488 10.1V9.84999H448.238V10.1H448.488ZM488.988 10.1L488.99 9.84999H488.988V10.1ZM552.288 63.5L552.534 63.4589L552.534 63.4584L552.288 63.5ZM554.088 74.3L553.841 74.3411L553.876 74.55H554.088V74.3ZM557.088 74.3V74.55H557.38L557.335 74.2614L557.088 74.3ZM546.588 7.09999L546.835 7.0614L546.801 6.84999H546.588V7.09999ZM414.587 7.09999V6.84999H414.337V7.09999H414.587ZM414.587 10.1H414.337V10.35H414.587V10.1ZM422.688 10.1H422.938V9.84999H422.688V10.1ZM422.688 212V212.25H422.938V212H422.688ZM413.688 212V211.75H413.438V212H413.688ZM413.688 215H413.438V215.25H413.688V215ZM556.488 215V215.25H556.701L556.734 215.039L556.488 215ZM569.688 132.5L569.934 132.539L569.981 132.25H569.688V132.5ZM566.441 132.46L562.241 158.56L562.734 158.64L566.934 132.54L566.441 132.46ZM562.241 158.558C558.947 177.872 552.141 191.16 542.188 199.622C532.235 208.084 519.101 211.75 503.088 211.75V212.25C519.174 212.25 532.44 208.566 542.512 200.003C552.584 191.44 559.428 178.028 562.734 158.642L562.241 158.558ZM503.088 211.75H448.488V212.25H503.088V211.75ZM448.738 212V107.9H448.238V212H448.738ZM448.488 108.15H515.988V107.65H448.488V108.15ZM515.738 107.9V137.9H516.238V107.9H515.738ZM515.988 138.15H518.988V137.65H515.988V138.15ZM519.238 137.9V74.9H518.738V137.9H519.238ZM518.988 74.65H515.988V75.15H518.988V74.65ZM515.738 74.9V104.9H516.238V74.9H515.738ZM515.988 104.65H448.488V105.15H515.988V104.65ZM448.738 104.9V10.1H448.238V104.9H448.738ZM448.488 10.35H488.988V9.84999H448.488V10.35ZM488.985 10.35C506.224 10.4999 520.106 12.7503 530.615 20.464C541.116 28.1724 548.296 41.3736 552.041 63.5416L552.534 63.4584C548.779 41.2263 541.559 27.8776 530.91 20.061C520.269 12.2497 506.251 10.0001 488.99 9.85L488.985 10.35ZM552.041 63.5411L553.841 74.3411L554.334 74.2589L552.534 63.4589L552.041 63.5411ZM554.088 74.55H557.088V74.05H554.088V74.55ZM557.335 74.2614L546.835 7.0614L546.341 7.13859L556.841 74.3386L557.335 74.2614ZM546.588 6.84999H414.587V7.34999H546.588V6.84999ZM414.337 7.09999V10.1H414.837V7.09999H414.337ZM414.587 10.35H422.688V9.84999H414.587V10.35ZM422.438 10.1V212H422.938V10.1H422.438ZM422.688 211.75H413.688V212.25H422.688V211.75ZM413.438 212V215H413.938V212H413.438ZM413.688 215.25H556.488V214.75H413.688V215.25ZM556.734 215.039L569.934 132.539L569.441 132.461L556.241 214.961L556.734 215.039ZM569.688 132.25H566.688V132.75H569.688V132.25ZM580.094 215H579.844V215.25H580.094V215ZM580.094 7.09999V6.84999H579.844V7.09999H580.094ZM580.094 10.1H579.844V10.35H580.094V10.1ZM589.094 10.1H589.344V9.84999H589.094V10.1ZM589.094 212V212.25H589.344V212H589.094ZM580.094 212V211.75H579.844V212H580.094ZM616.694 212H616.444V212.25H616.694V212ZM616.694 10.1V9.84999H616.444V10.1H616.694ZM580.094 215.25H670.994V214.75H580.094V215.25ZM670.994 215.25C703.299 215.25 730.215 204.656 749.056 186.342C767.897 168.027 778.644 142.01 778.644 111.2H778.144C778.144 141.89 767.441 167.773 748.707 185.983C729.973 204.194 703.188 214.75 670.994 214.75V215.25ZM778.644 111.2C778.644 79.9509 769.403 53.8536 750.405 35.5699C731.407 17.2871 702.687 6.84999 663.794 6.84999V7.34999C702.601 7.34999 731.18 17.7629 750.058 35.9301C768.934 54.0963 778.144 80.0491 778.144 111.2H778.644ZM663.794 6.84999H580.094V7.34999H663.794V6.84999ZM579.844 7.09999V10.1H580.344V7.09999H579.844ZM580.094 10.35H589.094V9.84999H580.094V10.35ZM588.844 10.1V212H589.344V10.1H588.844ZM589.094 211.75H580.094V212.25H589.094V211.75ZM579.844 212V215H580.344V212H579.844ZM616.944 212V10.1H616.444V212H616.944ZM616.694 10.35H663.494V9.84999H616.694V10.35ZM663.494 10.35C690.277 10.35 711.504 20.2226 726.039 37.7471C740.579 55.2774 748.444 80.4899 748.444 111.2H748.944C748.944 80.4101 741.059 55.0726 726.424 37.4279C711.784 19.7774 690.41 9.84999 663.494 9.84999V10.35ZM748.444 111.2C748.444 141.915 741.252 167.053 727.311 184.506C713.377 201.952 692.678 211.75 665.594 211.75V212.25C692.81 212.25 713.661 202.398 727.702 184.819C741.736 167.247 748.944 141.985 748.944 111.2H748.444ZM665.594 211.75H616.694V212.25H665.594V211.75ZM791.91 215H791.66V215.25H791.91V215ZM835.71 215V215.25H835.96V215H835.71ZM835.71 212H835.96V211.75H835.71V212ZM826.71 212H826.46V212.25H826.71V212ZM826.71 10.1V9.84999H826.46V10.1H826.71ZM835.71 10.1V10.35H835.96V10.1H835.71ZM835.71 7.09999H835.96V6.84999H835.71V7.09999ZM791.91 7.09999V6.84999H791.66V7.09999H791.91ZM791.91 10.1H791.66V10.35H791.91V10.1ZM800.91 10.1H801.16V9.84999H800.91V10.1ZM800.91 212V212.25H801.16V212H800.91ZM791.91 212V211.75H791.66V212H791.91ZM791.91 215.25H835.71V214.75H791.91V215.25ZM835.96 215V212H835.46V215H835.96ZM835.71 211.75H826.71V212.25H835.71V211.75ZM826.96 212V10.1H826.46V212H826.96ZM826.71 10.35H835.71V9.84999H826.71V10.35ZM835.96 10.1V7.09999H835.46V10.1H835.96ZM835.71 6.84999H791.91V7.34999H835.71V6.84999ZM791.66 7.09999V10.1H792.16V7.09999H791.66ZM791.91 10.35H800.91V9.84999H791.91V10.35ZM800.66 10.1V212H801.16V10.1H800.66ZM800.91 211.75H791.91V212.25H800.91V211.75ZM791.66 212V215H792.16V212H791.66ZM1019.03 74.3V74.55H1019.3L1019.28 74.2734L1019.03 74.3ZM1011.83 7.09999L1012.08 7.07336L1012.05 6.84999H1011.83V7.09999ZM854.627 7.09999V6.84999H854.401L854.378 7.07446L854.627 7.09999ZM847.727 74.3L847.478 74.2745L847.45 74.55H847.727V74.3ZM850.727 74.3V74.55H850.952L850.975 74.326L850.727 74.3ZM852.827 54.2L852.578 54.1735L852.578 54.174L852.827 54.2ZM920.627 9.8H920.877V9.55H920.627V9.8ZM920.627 212V212.25H920.877V212H920.627ZM911.627 212V211.75H911.377V212H911.627ZM911.627 215H911.377V215.25H911.627V215ZM955.427 215V215.25H955.677V215H955.427ZM955.427 212H955.677V211.75H955.427V212ZM946.427 212H946.177V212.25H946.427V212ZM946.427 9.8V9.55H946.177V9.8H946.427ZM1013.93 54.2L1014.18 54.174L1014.17 54.1718L1013.93 54.2ZM1016.03 74.3L1015.78 74.326L1015.8 74.55H1016.03V74.3ZM1019.28 74.2734L1012.08 7.07336L1011.58 7.12663L1018.78 74.3266L1019.28 74.2734ZM1011.83 6.84999H854.627V7.34999H1011.83V6.84999ZM854.378 7.07446L847.478 74.2745L847.975 74.3255L854.875 7.12553L854.378 7.07446ZM847.727 74.55H850.727V74.05H847.727V74.55ZM850.975 74.326L853.075 54.226L852.578 54.174L850.478 74.274L850.975 74.326ZM853.075 54.2264C855.321 33.1185 862.124 22.1023 870.815 16.3459C879.52 10.5794 890.174 10.05 900.227 10.05V9.55C890.179 9.55 879.383 10.0706 870.539 15.9291C861.679 21.7977 854.832 32.9815 852.578 54.1735L853.075 54.2264ZM900.227 10.05H920.627V9.55H900.227V10.05ZM920.377 9.8V212H920.877V9.8H920.377ZM920.627 211.75H911.627V212.25H920.627V211.75ZM911.377 212V215H911.877V212H911.377ZM911.627 215.25H955.427V214.75H911.627V215.25ZM955.677 215V212H955.177V215H955.677ZM955.427 211.75H946.427V212.25H955.427V211.75ZM946.677 212V9.8H946.177V212H946.677ZM946.427 10.05H966.527V9.55H946.427V10.05ZM966.527 10.05C976.579 10.05 987.158 10.5794 995.826 16.3456C1004.48 22.1022 1011.28 33.1191 1013.68 54.2282L1014.17 54.1718C1011.77 32.9808 1004.92 21.7978 996.103 15.9293C987.296 10.0706 976.574 9.55 966.527 9.55V10.05ZM1013.68 54.226L1015.78 74.326L1016.28 74.274L1014.18 54.174L1013.68 54.226ZM1016.03 74.55H1019.03V74.05H1016.03V74.55ZM1036.67 218L1036.42 217.992L1036.41 218.25H1036.67V218ZM1039.67 218V218.25H1039.92L1039.92 218.007L1039.67 218ZM1040.27 197.6L1040.43 197.402L1040.04 197.101L1040.02 197.593L1040.27 197.6ZM1110.17 98.3L1110.27 98.069L1110.27 98.069L1110.17 98.3ZM1163.87 65.3L1163.62 65.2919L1163.62 65.2937L1163.87 65.3ZM1162.97 101L1162.72 100.994L1162.72 101.25H1162.97V101ZM1165.97 101V101.25H1166.22L1166.22 101.007L1165.97 101ZM1168.67 4.1L1168.92 4.10696L1168.93 3.85H1168.67V4.1ZM1165.67 4.1V3.85H1165.43L1165.42 4.09553L1165.67 4.1ZM1165.37 20.9L1165.23 21.108L1165.61 21.3617L1165.62 20.9045L1165.37 20.9ZM1029.47 61.1L1029.72 61.0859L1029.72 61.0843L1029.47 61.1ZM1094.27 123.2L1094.37 122.97L1094.37 122.968L1094.27 123.2ZM1042.07 142.1L1042.32 142.108L1042.32 142.108L1042.07 142.1ZM1042.37 132.5L1042.62 132.508L1042.63 132.25H1042.37V132.5ZM1039.37 132.5V132.25H1039.13L1039.12 132.492L1039.37 132.5ZM1036.67 218.25H1039.67V217.75H1036.67V218.25ZM1039.92 218.007L1040.52 197.607L1040.02 197.593L1039.42 217.993L1039.92 218.007ZM1040.12 197.798C1054.86 209.231 1075.92 218.25 1104.47 218.25V217.75C1076.03 217.75 1055.08 208.769 1040.43 197.402L1040.12 197.798ZM1104.47 218.25C1125.52 218.25 1142.68 212.463 1154.58 202.328C1166.49 192.19 1173.12 177.718 1173.12 160.4H1172.62C1172.62 177.582 1166.05 191.91 1154.26 201.947C1142.47 211.987 1125.43 217.75 1104.47 217.75V218.25ZM1173.12 160.4C1173.12 144.105 1165.2 131.741 1153.38 121.846C1141.58 111.957 1125.87 104.52 1110.27 98.069L1110.08 98.531C1125.67 104.98 1141.32 112.393 1153.06 122.229C1164.8 132.059 1172.62 144.295 1172.62 160.4H1173.12ZM1110.27 98.069C1094.65 91.6119 1079.23 85.9242 1067.71 78.2916C1056.2 70.6685 1048.62 61.1363 1048.62 47H1048.12C1048.12 61.3637 1055.84 71.0314 1067.43 78.7084C1079.01 86.3758 1094.49 92.0881 1110.08 98.531L1110.27 98.069ZM1048.62 47C1048.62 35.6543 1052.2 25.7556 1060.35 18.6888C1068.5 11.6173 1081.26 7.34999 1099.67 7.34999V6.84999C1081.19 6.84999 1068.3 11.1327 1060.02 18.3112C1051.74 25.4944 1048.12 35.5457 1048.12 47H1048.62ZM1099.67 7.34999C1121.84 7.34999 1138.12 12.6668 1148.7 22.5453C1159.28 32.4196 1164.22 46.8907 1163.62 65.2919L1164.12 65.3081C1164.72 46.8093 1159.76 32.1803 1149.04 22.1797C1138.33 12.1832 1121.91 6.84999 1099.67 6.84999V7.34999ZM1163.62 65.2937L1162.72 100.994L1163.22 101.006L1164.12 65.3063L1163.62 65.2937ZM1162.97 101.25H1165.97V100.75H1162.97V101.25ZM1166.22 101.007L1168.92 4.10696L1168.42 4.09303L1165.72 100.993L1166.22 101.007ZM1168.67 3.85H1165.67V4.35H1168.67V3.85ZM1165.42 4.09553L1165.12 20.8955L1165.62 20.9045L1165.92 4.10446L1165.42 4.09553ZM1165.51 20.692C1152.87 12.2634 1133.32 3.85 1099.67 3.85V4.35C1133.23 4.35 1152.68 12.7366 1165.23 21.108L1165.51 20.692ZM1099.67 3.85C1080.44 3.85 1062.23 8.58313 1049.13 18.1103C1036.01 27.6451 1028.02 41.9754 1029.22 61.1157L1029.72 61.0843C1028.53 42.1246 1036.43 27.9549 1049.42 18.5147C1062.42 9.06685 1080.51 4.35 1099.67 4.35V3.85ZM1029.22 61.1141C1030.13 77.1022 1038.28 89.4615 1050.24 99.4296C1062.19 109.393 1077.97 116.98 1094.18 123.432L1094.37 122.968C1078.17 116.52 1062.45 108.957 1050.56 99.0454C1038.67 89.1385 1030.62 76.8978 1029.72 61.0859L1029.22 61.1141ZM1094.18 123.43C1109.5 129.889 1124.61 135.35 1135.91 142.871C1147.19 150.378 1154.62 159.91 1154.62 174.5H1155.12C1155.12 159.69 1147.56 150.022 1136.19 142.454C1124.84 134.9 1109.65 129.411 1094.37 122.97L1094.18 123.43ZM1154.62 174.5C1154.62 186.283 1150.22 196.336 1141.77 203.446C1133.32 210.56 1120.78 214.75 1104.47 214.75V215.25C1120.86 215.25 1133.53 211.04 1142.1 203.829C1150.67 196.614 1155.12 186.417 1155.12 174.5H1154.62ZM1104.47 214.75C1079.77 214.75 1063.88 207.641 1054.35 195.049C1044.8 182.443 1041.57 164.29 1042.32 142.108L1041.82 142.092C1041.07 164.31 1044.3 182.607 1053.95 195.351C1063.61 208.109 1079.67 215.25 1104.47 215.25V214.75ZM1042.32 142.108L1042.62 132.508L1042.12 132.492L1041.82 142.092L1042.32 142.108ZM1042.37 132.25H1039.37V132.75H1042.37V132.25ZM1039.12 132.492L1036.42 217.992L1036.92 218.008L1039.62 132.508L1039.12 132.492Z" fill="#0000FF"/>
</svg>
