<svg width="288" height="287" viewBox="0 0 288 287" fill="none" xmlns="http://www.w3.org/2000/svg">
<path d="M42.862 144.255C52.3022 144.255 59.9551 136.601 59.9551 127.16C59.9551 117.718 52.3022 110.064 42.862 110.064C33.4217 110.064 25.7689 117.718 25.7689 127.16C25.7689 136.601 33.4217 144.255 42.862 144.255Z" fill="#FF005C"/>
<path d="M178.059 17.4131L64.8921 40.3685C52.0745 42.9686 42.8619 54.2383 42.8619 67.3186V115.276L93.1312 65H178.058V17.4131H178.059Z" fill="#0000FF"/>
<path d="M231.73 92.0508V143.056H258.237C267.275 143.056 271.801 132.127 265.41 125.735L231.73 92.0508Z" fill="#FF005C"/>
<path d="M215.495 214.569C254.988 175.072 254.988 111.034 215.495 71.5362C176.003 32.0387 111.972 32.0387 72.4795 71.5362C32.9868 111.034 32.9868 175.072 72.4795 214.569C111.972 254.067 176.003 254.067 215.495 214.569Z" fill="#FF005C"/>
<path d="M245.118 143.053C245.118 198.914 199.844 244.193 143.99 244.193C88.1361 244.193 42.8619 198.914 42.8619 143.053H245.118Z" fill="#0000FF"/>
<path d="M264.5 85.3442C264.5 85.3442 248.011 68.873 227.67 68.873C207.33 68.873 190.841 85.3442 190.841 85.3442C190.841 85.3442 207.33 101.815 227.67 101.815C248.011 101.815 264.5 85.3442 264.5 85.3442Z" fill="white"/>
<path d="M227.67 101.815C236.766 101.815 244.14 94.4409 244.14 85.3442C244.14 76.2474 236.766 68.873 227.67 68.873C218.575 68.873 211.201 76.2474 211.201 85.3442C211.201 94.4409 218.575 101.815 227.67 101.815Z" fill="black"/>
<path d="M192.429 108.868C192.429 108.868 164.725 81.1953 130.552 81.1953C96.3781 81.1953 68.6747 108.868 68.6747 108.868C68.6747 108.868 96.3779 136.541 130.552 136.541C164.725 136.541 192.429 108.868 192.429 108.868Z" fill="white"/>
<path d="M130.552 136.541C145.833 136.541 158.221 124.152 158.221 108.868C158.221 93.5849 145.833 81.1953 130.552 81.1953C115.27 81.1953 102.882 93.5849 102.882 108.868C102.882 124.152 115.27 136.541 130.552 136.541Z" fill="black"/>
<path d="M227.67 122.179C248.011 122.179 264.5 105.688 264.5 85.3448C264.5 65.0019 248.011 48.5107 227.67 48.5107C207.33 48.5107 190.841 65.0019 190.841 85.3448C190.841 105.688 207.33 122.179 227.67 122.179Z" stroke="white" stroke-width="3.62229" stroke-miterlimit="10"/>
<path d="M42.8619 102.445V143.054H79.7076L42.8619 102.445Z" fill="#0000FF"/>
<path d="M130.552 170.679C164.685 170.679 192.356 143.006 192.356 108.868C192.356 74.7306 164.685 47.0566 130.552 47.0566C96.4185 47.0566 68.7479 74.7306 68.7479 108.868C68.7479 143.006 96.4185 170.679 130.552 170.679Z" stroke="white" stroke-width="3.62229" stroke-miterlimit="10"/>
<path d="M66.4802 40.0488C65.4043 46.7476 62.4057 52.8036 58.0642 57.6288C55.3974 60.5975 52.2222 63.1008 48.676 65.0023C46.833 65.9919 44.8884 66.8176 42.8622 67.4623C42.8622 54.2998 52.1327 42.9591 65.0308 40.3429L66.4802 40.0488Z" fill="#FF005C"/>
<path d="M68.6018 108.869H42.8619" stroke="white" stroke-width="3.62229" stroke-miterlimit="10"/>
<path d="M220.419 167.582L205.879 153.04L191.339 167.582L205.879 182.123L220.419 167.582Z" fill="white"/>
</svg>
