<svg width="48" height="53" viewBox="0 0 48 53" fill="none" xmlns="http://www.w3.org/2000/svg">
<g style="mix-blend-mode:difference">
<path d="M3.48839 11V1.82H2.32439V11H3.48839ZM8.37295 11.18C9.06895 11.18 9.67295 11.044 10.185 10.772C10.697 10.492 11.097 10.092 11.385 9.572C11.521 9.308 11.625 9.02 11.697 8.708C11.769 8.396 11.805 8.056 11.805 7.688V7.532C11.805 6.78 11.657 6.14 11.361 5.612C11.073 5.076 10.669 4.668 10.149 4.388C9.89295 4.244 9.61695 4.136 9.32095 4.064C9.02495 3.992 8.70895 3.956 8.37295 3.956C7.71695 3.956 7.12895 4.096 6.60895 4.376C6.08895 4.656 5.68095 5.06 5.38495 5.588C5.24095 5.86 5.12895 6.156 5.04895 6.476C4.97695 6.796 4.94095 7.148 4.94095 7.532V7.688C4.94095 8.784 5.24095 9.64 5.84095 10.256C6.44095 10.872 7.28495 11.18 8.37295 11.18ZM8.37295 10.136C7.66895 10.136 7.11695 9.92 6.71695 9.488C6.32495 9.048 6.12895 8.44 6.12895 7.664V7.532C6.12895 6.708 6.33695 6.076 6.75295 5.636C7.17695 5.188 7.71695 4.964 8.37295 4.964C9.03695 4.964 9.57695 5.196 9.99295 5.66C10.409 6.116 10.617 6.74 10.617 7.532V7.664C10.617 8.44 10.421 9.048 10.029 9.488C9.63695 9.92 9.08495 10.136 8.37295 10.136ZM15.5137 10.256C15.0657 10.256 14.7297 10.164 14.5057 9.98C14.2897 9.788 14.1817 9.532 14.1817 9.212C14.1817 9.012 14.2217 8.836 14.3017 8.684C14.3897 8.532 14.5137 8.404 14.6737 8.3C14.8657 8.172 15.0937 8.072 15.3577 8C15.6297 7.928 16.0257 7.852 16.5457 7.772C16.9217 7.708 17.2497 7.64 17.5297 7.568C17.8097 7.488 18.0257 7.384 18.1777 7.256V7.76C18.1777 8.048 18.1137 8.34 17.9857 8.636C17.8577 8.924 17.6737 9.192 17.4337 9.44C17.2017 9.688 16.9217 9.888 16.5937 10.04C16.2657 10.184 15.9057 10.256 15.5137 10.256ZM18.3457 11H19.2937V6.272C19.2937 5.568 19.0657 5.008 18.6097 4.592C18.1617 4.168 17.4057 3.956 16.3417 3.956C15.6937 3.956 15.1337 4.064 14.6617 4.28C14.1977 4.496 13.8337 4.796 13.5697 5.18C13.4417 5.372 13.3377 5.58 13.2577 5.804C13.1857 6.02 13.1417 6.252 13.1257 6.5H14.3137C14.3457 6.02 14.5297 5.632 14.8657 5.336C15.2097 5.032 15.7177 4.88 16.3897 4.88C17.0297 4.88 17.4857 4.992 17.7577 5.216C18.0297 5.432 18.1657 5.724 18.1657 6.092C18.1657 6.412 18.0017 6.628 17.6737 6.74C17.3537 6.844 16.8937 6.94 16.2937 7.028C15.8377 7.092 15.4577 7.156 15.1537 7.22C14.8497 7.284 14.5937 7.352 14.3857 7.424C14.2817 7.464 14.1817 7.508 14.0857 7.556C13.9897 7.604 13.8937 7.66 13.7977 7.724C13.5257 7.892 13.3097 8.116 13.1497 8.396C12.9897 8.676 12.9097 8.996 12.9097 9.356C12.9097 9.908 13.0977 10.352 13.4737 10.688C13.8577 11.016 14.4177 11.18 15.1537 11.18C15.9137 11.18 16.5537 11 17.0737 10.64C17.5937 10.272 17.9737 9.824 18.2137 9.296L18.3457 11ZM24.0624 10.136C23.4384 10.136 22.9224 9.92 22.5144 9.488C22.1144 9.048 21.9144 8.42 21.9144 7.604V7.484C21.9144 6.708 22.1064 6.092 22.4904 5.636C22.8744 5.18 23.4264 4.952 24.1464 4.952C24.6024 4.952 24.9944 5.06 25.3224 5.276C25.6504 5.492 25.9024 5.792 26.0784 6.176C26.1664 6.368 26.2304 6.576 26.2704 6.8C26.3184 7.016 26.3424 7.252 26.3424 7.508V7.592C26.3424 8.088 26.2504 8.528 26.0664 8.912C25.8824 9.296 25.6184 9.596 25.2744 9.812C25.1064 9.916 24.9184 9.996 24.7104 10.052C24.5104 10.108 24.2944 10.136 24.0624 10.136ZM26.4624 11H27.4224V1.82H26.2944V5.516C26.0944 5.044 25.7864 4.668 25.3704 4.388C24.9544 4.108 24.4384 3.968 23.8224 3.968C23.2064 3.968 22.6624 4.104 22.1904 4.376C21.7264 4.648 21.3624 5.044 21.0984 5.564C20.9704 5.828 20.8744 6.12 20.8104 6.44C20.7464 6.752 20.7144 7.092 20.7144 7.46V7.616C20.7144 8.368 20.8424 9.008 21.0984 9.536C21.3544 10.064 21.7104 10.468 22.1664 10.748C22.3984 10.884 22.6464 10.984 22.9104 11.048C23.1744 11.12 23.4544 11.156 23.7504 11.156C24.4144 11.156 24.9624 10.992 25.3944 10.664C25.8264 10.328 26.1384 9.904 26.3304 9.392L26.4624 11ZM29.8661 3.272C30.1381 3.272 30.3421 3.208 30.4781 3.08C30.6141 2.952 30.6821 2.74 30.6821 2.444C30.6821 2.14 30.6141 1.928 30.4781 1.808C30.3421 1.68 30.1381 1.616 29.8661 1.616C29.5941 1.616 29.3861 1.68 29.2421 1.808C29.1061 1.928 29.0381 2.14 29.0381 2.444C29.0381 2.748 29.1021 2.964 29.2301 3.092C29.3581 3.212 29.5701 3.272 29.8661 3.272ZM30.4421 11V4.148H29.2541V11H30.4421ZM33.4295 7.412C33.4295 6.684 33.6095 6.096 33.9695 5.648C34.3295 5.2 34.8455 4.976 35.5175 4.976C36.1815 4.976 36.6535 5.172 36.9335 5.564C37.2215 5.948 37.3655 6.46 37.3655 7.1V11H38.5415V6.836C38.5415 5.972 38.3135 5.276 37.8575 4.748C37.4095 4.22 36.7455 3.956 35.8655 3.956C35.2175 3.956 34.6815 4.116 34.2575 4.436C33.8415 4.756 33.5415 5.18 33.3575 5.708L33.2375 4.148H32.2535V11H33.4295V7.412ZM42.9111 14.144C44.1271 14.144 45.0111 13.932 45.5631 13.508C46.1231 13.084 46.4031 12.532 46.4031 11.852C46.4031 11.26 46.1951 10.792 45.7791 10.448C45.3631 10.104 44.6951 9.932 43.7751 9.932H42.1671C41.7351 9.94 41.4271 9.896 41.2431 9.8C41.0671 9.696 40.9791 9.548 40.9791 9.356C40.9791 9.22 41.0231 9.104 41.1111 9.008C41.2071 8.904 41.3791 8.828 41.6271 8.78C41.7471 8.748 41.8951 8.728 42.0711 8.72C42.2551 8.704 42.4631 8.696 42.6951 8.696H42.9231C43.8751 8.696 44.6191 8.488 45.1551 8.072C45.6911 7.648 45.9591 7.076 45.9591 6.356V6.308C45.9591 5.98 45.8831 5.676 45.7311 5.396C45.5871 5.108 45.3711 4.864 45.0831 4.664C44.9391 4.568 44.7791 4.488 44.6031 4.424C44.4271 4.36 44.2351 4.316 44.0271 4.292H44.0031C44.5071 4.276 44.8991 4.216 45.1791 4.112C45.4671 4.008 45.6671 3.852 45.7791 3.644C45.8351 3.54 45.8751 3.424 45.8991 3.296C45.9311 3.16 45.9471 3.012 45.9471 2.852V2.648H44.6271V2.78C44.6271 3.068 44.5911 3.3 44.5191 3.476C44.4471 3.652 44.2991 3.788 44.0751 3.884C43.9631 3.924 43.8231 3.96 43.6551 3.992C43.4951 4.016 43.3031 4.036 43.0791 4.052C42.9991 4.052 42.8911 4.056 42.7551 4.064C42.6271 4.072 42.5311 4.084 42.4671 4.1C41.6751 4.18 41.0631 4.416 40.6311 4.808C40.1991 5.192 39.9831 5.7 39.9831 6.332V6.344C39.9831 6.864 40.1071 7.288 40.3551 7.616C40.6031 7.944 40.9751 8.18 41.4711 8.324C40.9671 8.412 40.5871 8.572 40.3311 8.804C40.0751 9.036 39.9471 9.32 39.9471 9.656C39.9471 9.976 40.0511 10.244 40.2591 10.46C40.4751 10.676 40.8031 10.816 41.2431 10.88C40.7071 11.016 40.3151 11.22 40.0671 11.492C39.8191 11.764 39.6951 12.088 39.6951 12.464C39.6951 12.808 39.7871 13.104 39.9711 13.352C40.1631 13.608 40.4871 13.804 40.9431 13.94C41.1671 14.004 41.4351 14.052 41.7471 14.084C42.0591 14.124 42.4111 14.144 42.8031 14.144H42.9111ZM42.9231 7.832C42.3551 7.832 41.9151 7.708 41.6031 7.46C41.2991 7.204 41.1471 6.844 41.1471 6.38V6.356C41.1391 5.9 41.2831 5.544 41.5791 5.288C41.8751 5.024 42.2671 4.876 42.7551 4.844C42.7951 4.836 42.8351 4.832 42.8751 4.832C42.9151 4.824 42.9631 4.82 43.0191 4.82C43.3391 4.82 43.6311 4.868 43.8951 4.964C44.1671 5.052 44.3831 5.208 44.5431 5.432C44.6231 5.544 44.6831 5.676 44.7231 5.828C44.7711 5.98 44.7951 6.152 44.7951 6.344V6.368C44.7951 6.832 44.6351 7.192 44.3151 7.448C43.9951 7.704 43.5311 7.832 42.9231 7.832ZM42.7071 13.172C42.0511 13.172 41.5751 13.068 41.2791 12.86C40.9831 12.66 40.8351 12.412 40.8351 12.116V12.104C40.8351 11.776 40.9671 11.504 41.2311 11.288C41.5031 11.08 41.9111 10.956 42.4551 10.916H43.7271C44.3111 10.916 44.7231 11.008 44.9631 11.192C45.2031 11.376 45.3231 11.616 45.3231 11.912C45.3231 12.288 45.1351 12.592 44.7591 12.824C44.3911 13.056 43.7791 13.172 42.9231 13.172H42.7071Z" fill="white"/>
</g>
<g style="mix-blend-mode:difference">
<path d="M34.9988 25.999L13.1122 51.3422" stroke="white" stroke-width="3"/>
</g>
<g style="mix-blend-mode:difference">
<circle cx="17" cy="31" r="4.5" stroke="white" stroke-width="3"/>
</g>
<g style="mix-blend-mode:difference">
<circle cx="31" cy="46" r="4.5" stroke="white" stroke-width="3"/>
</g>
</svg>
