<svg width="80" height="59" viewBox="0 0 80 59" fill="none" xmlns="http://www.w3.org/2000/svg">
<g style="mix-blend-mode:difference">
<path d="M12.1847 10.148C11.5047 10.148 10.9647 9.912 10.5647 9.44C10.1727 8.968 9.97666 8.356 9.97666 7.604V7.52C9.97666 7.024 10.0687 6.584 10.2527 6.2C10.4447 5.816 10.7087 5.512 11.0447 5.288C11.2127 5.184 11.3967 5.104 11.5967 5.048C11.7967 4.992 12.0087 4.964 12.2327 4.964C12.8807 4.964 13.4087 5.192 13.8167 5.648C14.2247 6.096 14.4287 6.728 14.4287 7.544V7.676C14.4287 8.452 14.2327 9.06 13.8407 9.5C13.4487 9.932 12.8967 10.148 12.1847 10.148ZM12.5207 11.156C13.1367 11.156 13.6727 11.024 14.1287 10.76C14.5927 10.488 14.9567 10.092 15.2207 9.572C15.3487 9.316 15.4447 9.032 15.5087 8.72C15.5727 8.408 15.6047 8.068 15.6047 7.7V7.544C15.6047 6.784 15.4767 6.14 15.2207 5.612C14.9727 5.076 14.6207 4.664 14.1647 4.376C13.9407 4.24 13.6927 4.136 13.4207 4.064C13.1567 3.992 12.8687 3.956 12.5567 3.956C11.9007 3.956 11.3567 4.12 10.9247 4.448C10.5007 4.768 10.1887 5.184 9.98866 5.696L9.85666 4.148H8.89666V13.388H10.0247V9.584C10.2327 10.064 10.5447 10.448 10.9607 10.736C11.3767 11.016 11.8967 11.156 12.5207 11.156ZM18.2521 11V1.82H17.0881V11H18.2521ZM22.2383 10.256C21.7903 10.256 21.4543 10.164 21.2303 9.98C21.0143 9.788 20.9063 9.532 20.9063 9.212C20.9063 9.012 20.9463 8.836 21.0263 8.684C21.1143 8.532 21.2383 8.404 21.3983 8.3C21.5903 8.172 21.8183 8.072 22.0823 8C22.3543 7.928 22.7503 7.852 23.2703 7.772C23.6463 7.708 23.9743 7.64 24.2543 7.568C24.5343 7.488 24.7503 7.384 24.9023 7.256V7.76C24.9023 8.048 24.8383 8.34 24.7103 8.636C24.5823 8.924 24.3983 9.192 24.1583 9.44C23.9263 9.688 23.6463 9.888 23.3183 10.04C22.9903 10.184 22.6303 10.256 22.2383 10.256ZM25.0703 11H26.0183V6.272C26.0183 5.568 25.7903 5.008 25.3343 4.592C24.8863 4.168 24.1303 3.956 23.0663 3.956C22.4183 3.956 21.8583 4.064 21.3863 4.28C20.9223 4.496 20.5583 4.796 20.2943 5.18C20.1663 5.372 20.0623 5.58 19.9823 5.804C19.9103 6.02 19.8663 6.252 19.8503 6.5H21.0383C21.0703 6.02 21.2543 5.632 21.5903 5.336C21.9343 5.032 22.4423 4.88 23.1143 4.88C23.7543 4.88 24.2103 4.992 24.4823 5.216C24.7543 5.432 24.8903 5.724 24.8903 6.092C24.8903 6.412 24.7263 6.628 24.3983 6.74C24.0783 6.844 23.6183 6.94 23.0183 7.028C22.5623 7.092 22.1823 7.156 21.8783 7.22C21.5743 7.284 21.3183 7.352 21.1103 7.424C21.0063 7.464 20.9063 7.508 20.8103 7.556C20.7143 7.604 20.6183 7.66 20.5223 7.724C20.2503 7.892 20.0343 8.116 19.8743 8.396C19.7143 8.676 19.6343 8.996 19.6343 9.356C19.6343 9.908 19.8223 10.352 20.1983 10.688C20.5823 11.016 21.1423 11.18 21.8783 11.18C22.6383 11.18 23.2783 11 23.7983 10.64C24.3183 10.272 24.6983 9.824 24.9383 9.296L25.0703 11ZM27.7315 13.52C28.1875 13.52 28.5595 13.492 28.8475 13.436C29.1435 13.388 29.3955 13.292 29.6035 13.148C29.8035 12.996 29.9875 12.776 30.1555 12.488C30.3235 12.208 30.5075 11.836 30.7075 11.372L33.7915 4.148H32.5675L30.3715 9.44L30.3595 9.5L30.3475 9.452L28.1035 4.148H26.8555L29.7835 10.856L29.6515 11.18C29.4835 11.548 29.3235 11.824 29.1715 12.008C29.0275 12.2 28.8475 12.332 28.6315 12.404C28.5195 12.436 28.3915 12.46 28.2475 12.476C28.1035 12.492 27.9355 12.5 27.7435 12.5H27.1435V13.52H27.7315ZM41.7828 11L44.6988 4.148H43.4748L41.2788 9.62L39.1548 4.148H37.9308L40.7268 11H41.7828ZM46.4462 3.272C46.7182 3.272 46.9222 3.208 47.0582 3.08C47.1942 2.952 47.2622 2.74 47.2622 2.444C47.2622 2.14 47.1942 1.928 47.0582 1.808C46.9222 1.68 46.7182 1.616 46.4462 1.616C46.1742 1.616 45.9662 1.68 45.8222 1.808C45.6862 1.928 45.6182 2.14 45.6182 2.444C45.6182 2.748 45.6822 2.964 45.8102 3.092C45.9382 3.212 46.1502 3.272 46.4462 3.272ZM47.0222 11V4.148H45.8342V11H47.0222ZM51.8339 10.136C51.2099 10.136 50.6939 9.92 50.2859 9.488C49.8859 9.048 49.6859 8.42 49.6859 7.604V7.484C49.6859 6.708 49.8779 6.092 50.2619 5.636C50.6459 5.18 51.1979 4.952 51.9179 4.952C52.3739 4.952 52.7659 5.06 53.0939 5.276C53.4219 5.492 53.6739 5.792 53.8499 6.176C53.9379 6.368 54.0019 6.576 54.0419 6.8C54.0899 7.016 54.1139 7.252 54.1139 7.508V7.592C54.1139 8.088 54.0219 8.528 53.8379 8.912C53.6539 9.296 53.3899 9.596 53.0459 9.812C52.8779 9.916 52.6899 9.996 52.4819 10.052C52.2819 10.108 52.0659 10.136 51.8339 10.136ZM54.2339 11H55.1939V1.82H54.0659V5.516C53.8659 5.044 53.5579 4.668 53.1419 4.388C52.7259 4.108 52.2099 3.968 51.5939 3.968C50.9779 3.968 50.4339 4.104 49.9619 4.376C49.4979 4.648 49.1339 5.044 48.8699 5.564C48.7419 5.828 48.6459 6.12 48.5819 6.44C48.5179 6.752 48.4859 7.092 48.4859 7.46V7.616C48.4859 8.368 48.6139 9.008 48.8699 9.536C49.1259 10.064 49.4819 10.468 49.9379 10.748C50.1699 10.884 50.4179 10.984 50.6819 11.048C50.9459 11.12 51.2259 11.156 51.5219 11.156C52.1859 11.156 52.7339 10.992 53.1659 10.664C53.5979 10.328 53.9099 9.904 54.1019 9.392L54.2339 11ZM60.0984 4.904C60.7544 4.904 61.2624 5.1 61.6224 5.492C61.9824 5.876 62.1864 6.392 62.2344 7.04H57.7944C57.8664 6.376 58.1024 5.856 58.5024 5.48C58.9104 5.096 59.4424 4.904 60.0984 4.904ZM63.3024 8.96H62.0424C61.9144 9.36 61.6824 9.668 61.3464 9.884C61.0104 10.092 60.5944 10.196 60.0984 10.196C59.3944 10.196 58.8424 10 58.4424 9.608C58.0424 9.216 57.8224 8.668 57.7824 7.964H63.3984V7.412C63.3984 6.796 63.2784 6.228 63.0384 5.708C62.7984 5.18 62.4344 4.756 61.9464 4.436C61.7064 4.276 61.4304 4.156 61.1184 4.076C60.8064 3.996 60.4624 3.956 60.0864 3.956C59.3824 3.956 58.7704 4.108 58.2504 4.412C57.7304 4.708 57.3304 5.124 57.0504 5.66C56.9144 5.932 56.8104 6.228 56.7384 6.548C56.6664 6.86 56.6304 7.196 56.6304 7.556V7.7C56.6304 8.764 56.9144 9.612 57.4824 10.244C58.0584 10.868 58.9144 11.18 60.0504 11.18C60.8984 11.18 61.6024 10.988 62.1624 10.604C62.7224 10.212 63.1024 9.664 63.3024 8.96ZM68.0312 11.18C68.7272 11.18 69.3312 11.044 69.8432 10.772C70.3552 10.492 70.7552 10.092 71.0432 9.572C71.1792 9.308 71.2832 9.02 71.3552 8.708C71.4272 8.396 71.4632 8.056 71.4632 7.688V7.532C71.4632 6.78 71.3152 6.14 71.0192 5.612C70.7312 5.076 70.3272 4.668 69.8072 4.388C69.5512 4.244 69.2752 4.136 68.9792 4.064C68.6832 3.992 68.3672 3.956 68.0312 3.956C67.3752 3.956 66.7872 4.096 66.2672 4.376C65.7472 4.656 65.3392 5.06 65.0432 5.588C64.8992 5.86 64.7872 6.156 64.7072 6.476C64.6352 6.796 64.5992 7.148 64.5992 7.532V7.688C64.5992 8.784 64.8992 9.64 65.4992 10.256C66.0992 10.872 66.9432 11.18 68.0312 11.18ZM68.0312 10.136C67.3272 10.136 66.7752 9.92 66.3752 9.488C65.9832 9.048 65.7872 8.44 65.7872 7.664V7.532C65.7872 6.708 65.9952 6.076 66.4112 5.636C66.8352 5.188 67.3752 4.964 68.0312 4.964C68.6952 4.964 69.2352 5.196 69.6512 5.66C70.0672 6.116 70.2752 6.74 70.2752 7.532V7.664C70.2752 8.44 70.0792 9.048 69.6872 9.488C69.2952 9.92 68.7432 10.136 68.0312 10.136Z" fill="white"/>
</g>
<g style="mix-blend-mode:difference">
<circle cx="40" cy="40" r="17.5" stroke="white" stroke-width="3"/>
</g>
<path d="M47 40L36.5 46.0622L36.5 33.9378L47 40Z" fill="white"/>
</svg>
