<svg width="137" height="243" viewBox="0 0 137 243" fill="none" xmlns="http://www.w3.org/2000/svg">
<path d="M119.075 36.6585C106.541 14.5831 89.4708 1 70.6585 1C32.1872 1 1 57.8052 1 127.878C1 152.196 4.75617 174.917 11.2694 194.219" stroke="white" stroke-width="2"/>
<path d="M120.808 38.617C117.318 32.6116 119.357 24.9138 125.362 21.4236" stroke="white" stroke-width="2"/>
<path d="M102.525 34.6946C108.53 31.2044 116.228 33.2434 119.718 39.2489" stroke="white" stroke-width="2"/>
<path d="M17.9247 206C30.4586 228.076 47.5292 241.659 66.3415 241.659C104.813 241.659 136 184.853 136 114.781C136 90.4623 132.244 67.7419 125.731 48.4392" stroke="white" stroke-width="2"/>
<path d="M16.1921 204.041C19.6823 210.047 17.6433 217.744 11.6378 221.235" stroke="white" stroke-width="2"/>
<path d="M34.4754 207.964C28.47 211.454 20.7722 209.415 17.282 203.409" stroke="white" stroke-width="2"/>
<path fill-rule="evenodd" clip-rule="evenodd" d="M52.9466 120.34C55.3456 120.34 56.6386 119.273 56.6386 117.638C56.6386 115.681 55.4865 114.874 53.2504 114.874H47.5143V120.34H52.9466ZM57.6254 126.252C57.6668 126.915 57.8466 127.46 58.1504 127.885H56.3348C56.0723 127.581 55.8706 126.956 55.8706 126.21V124.152C55.8706 122.7 54.8424 121.874 52.9053 121.855H47.5143V127.885H45.8008V113.362H53.5299C56.6581 113.362 58.4518 114.835 58.4518 117.679C58.4518 119.818 56.6168 120.885 55.0029 121.006C56.7188 121.189 57.5865 122.095 57.5865 123.709C57.5865 124.92 57.606 125.765 57.6254 126.252Z" fill="white"/>
<path fill-rule="evenodd" clip-rule="evenodd" d="M79.0059 122.802H80.8215C81.0621 125.463 82.3138 126.654 85.0361 126.654C87.1336 126.654 88.7062 125.767 88.7062 124.012C88.7062 122.722 87.8798 121.995 86.7496 121.591C86.1857 121.39 85.3788 121.168 84.3507 120.925C81.1642 120.201 79.5916 119.494 79.509 116.993C79.509 114.433 81.6284 113.06 85.0968 113.06C88.5045 113.06 90.7843 115.058 91.0663 118.021H89.2507C89.0902 115.926 87.7388 114.574 85.0968 114.574C82.5763 114.574 81.3246 115.359 81.3246 116.912C81.4048 118.526 82.676 119.01 85.0968 119.494C87.6586 120.06 89.01 120.502 89.8753 121.633C90.3007 122.218 90.5218 122.984 90.5218 123.951C90.5218 126.654 88.0013 128.168 84.9559 128.168C81.3246 128.168 79.1882 126.292 79.0059 122.802Z" fill="white"/>
<mask id="mask0" mask-type="alpha" maskUnits="userSpaceOnUse" x="32" y="101" width="41" height="41">
<path fill-rule="evenodd" clip-rule="evenodd" d="M32 101H72.2541V141.252H32V101Z" fill="white"/>
</mask>
<g mask="url(#mask0)">
<path fill-rule="evenodd" clip-rule="evenodd" d="M52.1274 102.47C41.8413 102.47 33.4705 110.838 33.4705 121.127C33.4705 131.413 41.8413 139.781 52.1274 139.781C62.4135 139.781 70.7819 131.413 70.7819 121.127C70.7819 110.838 62.4135 102.47 52.1274 102.47ZM52.1274 141.252C41.0295 141.252 32 132.225 32 121.127C32 110.029 41.0295 101 52.1274 101C63.2253 101 72.2549 110.029 72.2549 121.127C72.2549 132.225 63.2253 141.252 52.1274 141.252Z" fill="white"/>
</g>
<mask id="mask1" mask-type="alpha" maskUnits="userSpaceOnUse" x="64" y="101" width="42" height="41">
<path fill-rule="evenodd" clip-rule="evenodd" d="M64.9082 101H105.161V141.252H64.9082V101Z" fill="white"/>
</mask>
<g mask="url(#mask1)">
<path fill-rule="evenodd" clip-rule="evenodd" d="M85.0356 102.47C74.7495 102.47 66.3787 110.838 66.3787 121.127C66.3787 131.413 74.7495 139.781 85.0356 139.781C95.3217 139.781 103.69 131.413 103.69 121.127C103.69 110.838 95.3217 102.47 85.0356 102.47ZM85.0356 141.252C73.9377 141.252 64.9082 132.225 64.9082 121.127C64.9082 110.029 73.9377 101 85.0356 101C96.1335 101 105.163 110.029 105.163 121.127C105.163 132.225 96.1335 141.252 85.0356 141.252Z" fill="white"/>
</g>
</svg>
