<svg width="138" height="244" viewBox="0 0 138 244" fill="none" xmlns="http://www.w3.org/2000/svg">
<path d="M119.575 37.1585C107.041 15.0831 89.9708 1.5 71.1585 1.5C32.6872 1.5 1.5 58.3052 1.5 128.378C1.5 152.696 5.25617 175.417 11.7694 194.719" stroke="white" stroke-width="2"/>
<path d="M121.308 39.117C117.818 33.1116 119.857 25.4138 125.862 21.9236" stroke="white" stroke-width="2"/>
<path d="M103.025 35.1946C109.03 31.7044 116.728 33.7434 120.218 39.7489" stroke="white" stroke-width="2"/>
<path d="M18.4247 206.5C30.9586 228.576 48.0292 242.159 66.8415 242.159C105.313 242.159 136.5 185.353 136.5 115.281C136.5 90.9623 132.744 68.2419 126.231 48.9392" stroke="white" stroke-width="2"/>
<path d="M16.6921 204.541C20.1823 210.547 18.1433 218.244 12.1378 221.735" stroke="white" stroke-width="2"/>
<path d="M34.9754 208.464C28.97 211.954 21.2722 209.915 17.782 203.909" stroke="white" stroke-width="2"/>
<path d="M52.8826 122.195C54.4337 122.195 55.691 120.938 55.691 119.386C55.691 117.835 54.4337 116.578 52.8826 116.578C51.3316 116.578 50.0742 117.835 50.0742 119.386C50.0742 120.938 51.3316 122.195 52.8826 122.195Z" fill="#FF005C"/>
<path d="M75.0953 101.355L56.5023 105.126C54.3964 105.554 52.8828 107.405 52.8828 109.554V117.434L61.1419 109.173H75.0953V101.355H75.0953Z" fill="#0000FF"/>
<path d="M83.9141 113.619V121.999H88.2691C89.7541 121.999 90.4978 120.203 89.4477 119.153L83.9141 113.619Z" fill="#FF005C"/>
<path d="M81.2457 133.75C87.7343 127.261 87.7343 116.739 81.2457 110.25C74.7572 103.761 64.2371 103.761 57.7486 110.25C51.26 116.739 51.26 127.261 57.7486 133.75C64.2371 140.239 74.7572 140.239 81.2457 133.75Z" fill="#FF005C"/>
<path d="M86.1131 121.997C86.1131 131.175 78.6747 138.614 69.4979 138.614C60.3213 138.614 52.8828 131.175 52.8828 121.997H86.1131Z" fill="#0000FF"/>
<path d="M89.2974 112.517C89.2974 112.517 86.5882 109.811 83.2463 109.811C79.9044 109.811 77.1953 112.517 77.1953 112.517C77.1953 112.517 79.9045 115.223 83.2463 115.223C86.5882 115.223 89.2974 112.517 89.2974 112.517Z" fill="white"/>
<path d="M83.2469 115.223C84.7413 115.223 85.9527 114.011 85.9527 112.516C85.9527 111.022 84.7413 109.81 83.2469 109.81C81.7525 109.81 80.541 111.022 80.541 112.516C80.541 114.011 81.7525 115.223 83.2469 115.223Z" fill="black"/>
<path d="M77.4556 116.38C77.4556 116.38 72.904 111.833 67.2893 111.833C61.6747 111.833 57.123 116.38 57.123 116.38C57.123 116.38 61.6746 120.927 67.2893 120.927C72.904 120.927 77.4556 116.38 77.4556 116.38Z" fill="white"/>
<path d="M67.2882 120.927C69.7989 120.927 71.8342 118.891 71.8342 116.38C71.8342 113.869 69.7989 111.833 67.2882 111.833C64.7775 111.833 62.7422 113.869 62.7422 116.38C62.7422 118.891 64.7775 120.927 67.2882 120.927Z" fill="black"/>
<path d="M83.2463 118.566C86.5882 118.566 89.2974 115.857 89.2974 112.515C89.2974 109.172 86.5882 106.463 83.2463 106.463C79.9044 106.463 77.1953 109.172 77.1953 112.515C77.1953 115.857 79.9044 118.566 83.2463 118.566Z" stroke="white" stroke-width="0.810811" stroke-miterlimit="10"/>
<path d="M52.8828 115.324V121.996H58.9365L52.8828 115.324Z" fill="#0000FF"/>
<path d="M67.289 126.539C72.8971 126.539 77.4433 121.992 77.4433 116.383C77.4433 110.774 72.8971 106.228 67.289 106.228C61.681 106.228 57.1348 110.774 57.1348 116.383C57.1348 121.992 61.681 126.539 67.289 126.539Z" stroke="white" stroke-width="0.810811" stroke-miterlimit="10"/>
<path d="M56.7632 105.073C56.5864 106.173 56.0938 107.168 55.3805 107.961C54.9423 108.449 54.4206 108.86 53.838 109.173C53.5352 109.335 53.2157 109.471 52.8828 109.577C52.8828 107.414 54.4059 105.551 56.5251 105.121L56.7632 105.073Z" fill="#FF005C"/>
<path d="M57.1118 116.38H52.8828" stroke="white" stroke-width="0.810811" stroke-miterlimit="10"/>
<path d="M82.0549 126.028L79.666 123.639L77.2771 126.028L79.666 128.417L82.0549 126.028Z" fill="white"/>
</svg>
