<svg width="80" height="68" viewBox="0 0 80 68" fill="none" xmlns="http://www.w3.org/2000/svg">
<g style="mix-blend-mode:difference">
<path d="M4.86339 11.18C5.53539 11.18 6.08339 11.08 6.50739 10.88C6.93939 10.68 7.25939 10.412 7.46739 10.076C7.57139 9.908 7.64739 9.732 7.69539 9.548C7.75139 9.356 7.77939 9.156 7.77939 8.948C7.77939 8.572 7.70339 8.272 7.55139 8.048C7.39939 7.816 7.19539 7.632 6.93939 7.496C6.68339 7.368 6.39939 7.272 6.08739 7.208C5.77539 7.136 5.46339 7.076 5.15139 7.028C4.79139 6.972 4.45139 6.916 4.13139 6.86C3.81939 6.796 3.56339 6.7 3.36339 6.572C3.25939 6.5 3.18339 6.416 3.13539 6.32C3.08739 6.216 3.06339 6.1 3.06339 5.972C3.06339 5.692 3.17539 5.444 3.39939 5.228C3.63139 5.012 4.03939 4.904 4.62339 4.904C5.17539 4.904 5.60339 5.008 5.90739 5.216C6.21139 5.416 6.39139 5.72 6.44739 6.128H7.63539C7.54739 5.464 7.25539 4.936 6.75939 4.544C6.27139 4.152 5.56339 3.956 4.63539 3.956C4.01939 3.956 3.50739 4.052 3.09939 4.244C2.69939 4.428 2.39939 4.68 2.19939 5C2.10339 5.152 2.03139 5.316 1.98339 5.492C1.93539 5.66 1.91139 5.84 1.91139 6.032C1.91139 6.4 1.98739 6.7 2.13939 6.932C2.29939 7.164 2.50739 7.348 2.76339 7.484C3.01939 7.612 3.30339 7.712 3.61539 7.784C3.92739 7.848 4.23939 7.904 4.55139 7.952C4.91139 8 5.24739 8.056 5.55939 8.12C5.87939 8.184 6.13939 8.284 6.33939 8.42C6.43539 8.484 6.50739 8.568 6.55539 8.672C6.60339 8.768 6.62739 8.884 6.62739 9.02C6.62739 9.34 6.49539 9.616 6.23139 9.848C5.96739 10.072 5.51939 10.184 4.88739 10.184C4.35139 10.184 3.89939 10.068 3.53139 9.836C3.16339 9.604 2.94339 9.244 2.87139 8.756H1.61139C1.70739 9.548 2.03139 10.152 2.58339 10.568C3.13539 10.976 3.89539 11.18 4.86339 11.18ZM12.2789 11.18C13.1909 11.18 13.9429 10.952 14.5349 10.496C15.1349 10.04 15.4869 9.328 15.5909 8.36V8.336H14.3789V8.348C14.2749 8.94 14.0469 9.388 13.6949 9.692C13.3509 9.988 12.8829 10.136 12.2909 10.136C11.5949 10.136 11.0469 9.92 10.6469 9.488C10.2549 9.048 10.0589 8.44 10.0589 7.664V7.532C10.0589 6.708 10.2669 6.076 10.6829 5.636C11.1069 5.188 11.6469 4.964 12.3029 4.964C12.8629 4.964 13.3229 5.112 13.6829 5.408C14.0429 5.696 14.2709 6.144 14.3669 6.752V6.776H15.5789V6.752C15.4749 5.8 15.1269 5.096 14.5349 4.64C13.9429 4.184 13.1949 3.956 12.2909 3.956C11.6429 3.956 11.0589 4.096 10.5389 4.376C10.0189 4.656 9.61092 5.06 9.31492 5.588C9.16292 5.86 9.04692 6.156 8.96692 6.476C8.89492 6.796 8.85892 7.148 8.85892 7.532V7.688C8.85892 8.784 9.15892 9.64 9.75892 10.256C10.3589 10.872 11.1989 11.18 12.2789 11.18ZM18.1047 11V7.796C18.1047 7.212 18.1727 6.736 18.3087 6.368C18.4447 6 18.6807 5.724 19.0167 5.54C19.1767 5.452 19.3727 5.388 19.6047 5.348C19.8367 5.3 20.0967 5.276 20.3847 5.276H20.9607V4.1H20.5407C19.8367 4.1 19.2807 4.252 18.8727 4.556C18.4727 4.852 18.2007 5.284 18.0567 5.852L17.9007 4.148H16.9527V11H18.1047ZM25.0292 11.18C25.7252 11.18 26.3292 11.044 26.8412 10.772C27.3532 10.492 27.7532 10.092 28.0412 9.572C28.1772 9.308 28.2812 9.02 28.3532 8.708C28.4252 8.396 28.4612 8.056 28.4612 7.688V7.532C28.4612 6.78 28.3132 6.14 28.0172 5.612C27.7292 5.076 27.3252 4.668 26.8052 4.388C26.5492 4.244 26.2732 4.136 25.9772 4.064C25.6812 3.992 25.3652 3.956 25.0292 3.956C24.3732 3.956 23.7852 4.096 23.2652 4.376C22.7452 4.656 22.3372 5.06 22.0412 5.588C21.8972 5.86 21.7852 6.156 21.7052 6.476C21.6332 6.796 21.5972 7.148 21.5972 7.532V7.688C21.5972 8.784 21.8972 9.64 22.4972 10.256C23.0972 10.872 23.9412 11.18 25.0292 11.18ZM25.0292 10.136C24.3252 10.136 23.7732 9.92 23.3732 9.488C22.9812 9.048 22.7852 8.44 22.7852 7.664V7.532C22.7852 6.708 22.9932 6.076 23.4092 5.636C23.8332 5.188 24.3732 4.964 25.0292 4.964C25.6932 4.964 26.2332 5.196 26.6492 5.66C27.0652 6.116 27.2732 6.74 27.2732 7.532V7.664C27.2732 8.44 27.0772 9.048 26.6852 9.488C26.2932 9.92 25.7412 10.136 25.0292 10.136ZM33.1386 11.18C33.8346 11.18 34.4386 11.044 34.9506 10.772C35.4626 10.492 35.8626 10.092 36.1506 9.572C36.2866 9.308 36.3906 9.02 36.4626 8.708C36.5346 8.396 36.5706 8.056 36.5706 7.688V7.532C36.5706 6.78 36.4226 6.14 36.1266 5.612C35.8386 5.076 35.4346 4.668 34.9146 4.388C34.6586 4.244 34.3826 4.136 34.0866 4.064C33.7906 3.992 33.4746 3.956 33.1386 3.956C32.4826 3.956 31.8946 4.096 31.3746 4.376C30.8546 4.656 30.4466 5.06 30.1506 5.588C30.0066 5.86 29.8946 6.156 29.8146 6.476C29.7426 6.796 29.7066 7.148 29.7066 7.532V7.688C29.7066 8.784 30.0066 9.64 30.6066 10.256C31.2066 10.872 32.0506 11.18 33.1386 11.18ZM33.1386 10.136C32.4346 10.136 31.8826 9.92 31.4826 9.488C31.0906 9.048 30.8946 8.44 30.8946 7.664V7.532C30.8946 6.708 31.1026 6.076 31.5186 5.636C31.9426 5.188 32.4826 4.964 33.1386 4.964C33.8026 4.964 34.3426 5.196 34.7586 5.66C35.1746 6.116 35.3826 6.74 35.3826 7.532V7.664C35.3826 8.44 35.1866 9.048 34.7946 9.488C34.4026 9.92 33.8506 10.136 33.1386 10.136ZM39.2228 11V1.82H38.0588V11H39.2228ZM47.9022 10.136C47.2782 10.136 46.7622 9.92 46.3542 9.488C45.9542 9.048 45.7542 8.42 45.7542 7.604V7.484C45.7542 6.708 45.9462 6.092 46.3302 5.636C46.7142 5.18 47.2662 4.952 47.9862 4.952C48.4422 4.952 48.8342 5.06 49.1622 5.276C49.4902 5.492 49.7422 5.792 49.9182 6.176C50.0062 6.368 50.0702 6.576 50.1102 6.8C50.1582 7.016 50.1822 7.252 50.1822 7.508V7.592C50.1822 8.088 50.0902 8.528 49.9062 8.912C49.7222 9.296 49.4582 9.596 49.1142 9.812C48.9462 9.916 48.7582 9.996 48.5502 10.052C48.3502 10.108 48.1342 10.136 47.9022 10.136ZM50.3022 11H51.2622V1.82H50.1342V5.516C49.9342 5.044 49.6262 4.668 49.2102 4.388C48.7942 4.108 48.2782 3.968 47.6622 3.968C47.0462 3.968 46.5022 4.104 46.0302 4.376C45.5662 4.648 45.2022 5.044 44.9382 5.564C44.8102 5.828 44.7142 6.12 44.6502 6.44C44.5862 6.752 44.5542 7.092 44.5542 7.46V7.616C44.5542 8.368 44.6822 9.008 44.9382 9.536C45.1942 10.064 45.5502 10.468 46.0062 10.748C46.2382 10.884 46.4862 10.984 46.7502 11.048C47.0142 11.12 47.2942 11.156 47.5902 11.156C48.2542 11.156 48.8022 10.992 49.2342 10.664C49.6662 10.328 49.9782 9.904 50.1702 9.392L50.3022 11ZM56.1308 11.18C56.8268 11.18 57.4308 11.044 57.9428 10.772C58.4548 10.492 58.8548 10.092 59.1428 9.572C59.2788 9.308 59.3828 9.02 59.4548 8.708C59.5268 8.396 59.5628 8.056 59.5628 7.688V7.532C59.5628 6.78 59.4148 6.14 59.1188 5.612C58.8308 5.076 58.4268 4.668 57.9068 4.388C57.6508 4.244 57.3748 4.136 57.0788 4.064C56.7828 3.992 56.4668 3.956 56.1308 3.956C55.4748 3.956 54.8868 4.096 54.3668 4.376C53.8468 4.656 53.4388 5.06 53.1428 5.588C52.9988 5.86 52.8868 6.156 52.8068 6.476C52.7348 6.796 52.6988 7.148 52.6988 7.532V7.688C52.6988 8.784 52.9988 9.64 53.5988 10.256C54.1988 10.872 55.0428 11.18 56.1308 11.18ZM56.1308 10.136C55.4268 10.136 54.8748 9.92 54.4748 9.488C54.0828 9.048 53.8868 8.44 53.8868 7.664V7.532C53.8868 6.708 54.0948 6.076 54.5108 5.636C54.9348 5.188 55.4748 4.964 56.1308 4.964C56.7948 4.964 57.3348 5.196 57.7508 5.66C58.1668 6.116 58.3748 6.74 58.3748 7.532V7.664C58.3748 8.44 58.1788 9.048 57.7868 9.488C57.3948 9.92 56.8428 10.136 56.1308 10.136ZM67.1966 11H68.2406L70.4246 4.148H69.2846L67.6286 9.512L65.7206 4.148H64.9286L62.8646 9.524L61.4486 4.148H60.2966L62.1806 11H63.2486L65.3006 5.864L67.1966 11ZM72.7615 7.412C72.7615 6.684 72.9415 6.096 73.3015 5.648C73.6615 5.2 74.1775 4.976 74.8495 4.976C75.5135 4.976 75.9855 5.172 76.2655 5.564C76.5535 5.948 76.6975 6.46 76.6975 7.1V11H77.8735V6.836C77.8735 5.972 77.6455 5.276 77.1895 4.748C76.7415 4.22 76.0775 3.956 75.1975 3.956C74.5495 3.956 74.0135 4.116 73.5895 4.436C73.1735 4.756 72.8735 5.18 72.6895 5.708L72.5695 4.148H71.5855V11H72.7615V7.412Z" fill="white"/>
<path d="M39.1218 23.5029L39.1234 56.9888" stroke="white" stroke-width="3"/>
<path d="M39.6096 57.1849C39.6096 51.8177 43.9605 47.4668 49.3276 47.4668" stroke="white" stroke-width="3"/>
<path d="M28.9199 47.4668C34.287 47.4668 38.6379 51.8177 38.6379 57.1849" stroke="white" stroke-width="3"/>
</g>
</svg>
