<svg viewBox="0 0 440 257" fill="none" xmlns="http://www.w3.org/2000/svg">
<path d="M150.237 155.424C150.431 158.616 151.301 161.225 152.753 163.258H144.044C142.785 161.807 141.819 158.808 141.819 155.23V145.36C141.819 138.398 136.882 134.43 127.592 134.334H101.723V163.257H93.4966V93.6133H130.591C145.591 93.6133 154.204 100.672 154.204 114.312C154.204 124.567 145.399 129.692 137.657 130.272C145.881 131.144 150.044 135.498 150.044 143.237C150.044 149.04 150.14 153.1 150.237 155.424ZM127.786 127.078C139.301 127.078 145.495 121.953 145.495 114.119C145.495 104.736 139.976 100.865 129.237 100.865H101.723V127.078H127.786Z" fill="white"/>
<path d="M286.584 138.93H295.293C296.453 151.698 302.453 157.406 315.517 157.406C325.582 157.406 333.13 153.149 333.13 144.735C333.13 138.544 329.161 135.063 323.744 133.125C321.033 132.16 317.162 131.096 312.228 129.933C296.939 126.452 289.39 123.067 289.004 111.071C289.004 98.7865 299.164 92.21 315.808 92.21C332.161 92.21 343.095 101.785 344.451 116.004H335.742C334.967 105.946 328.485 99.4667 315.806 99.4667C303.712 99.4667 297.712 103.237 297.712 110.686C298.098 118.424 304.194 120.743 315.806 123.067C328.096 125.777 334.581 127.903 338.741 133.317C340.775 136.124 341.838 139.803 341.838 144.445C341.838 157.405 329.741 164.661 315.129 164.661C297.712 164.663 287.455 155.665 286.584 138.93Z" fill="white"/>
<path d="M7.99025 118.988L8.01207 118.798L8.61613 118.884C11.4142 119.29 13.3177 118.577 13.664 115.447C13.8931 113.38 12.9536 112.143 11.4551 111.977C9.59653 111.773 8.81657 113.605 7.78708 115.45C6.74396 117.41 5.42812 119.223 3.40323 119.114C0.977452 118.999 0.0215943 116.704 0.290216 114.277C0.526112 112.152 1.19289 110.978 1.81332 110.239L0.752464 110.103L0.774281 109.912L6.88441 110.761L6.86259 110.952L4.61135 110.644C2.28511 110.31 0.790644 111.489 0.479751 114.297C0.222038 116.629 1.20244 117.66 2.64509 117.819C4.44772 118.018 5.28767 116.153 6.32262 114.271C7.35756 112.387 8.63931 110.515 10.6887 110.741C12.8718 110.983 14.1467 112.814 13.8522 115.469C13.6531 117.271 12.9373 118.536 12.1137 119.385L13.3995 119.566L13.3777 119.757L7.99025 118.988Z" fill="white"/>
<path d="M7.95336 107.499C3.8804 106.566 1.98232 103.059 2.78409 99.5638C3.58587 96.0677 6.88433 93.8092 10.8823 94.7265C14.8639 95.6383 16.822 99.219 16.0216 102.714C15.2184 106.21 11.9336 108.413 7.95336 107.499ZM10.461 96.5679C6.46162 95.6506 3.68268 96.5011 2.98863 99.5325C2.28776 102.582 4.38083 104.726 8.38016 105.64C12.3795 106.557 15.123 105.778 15.8184 102.746C16.5179 99.6974 14.4616 97.4839 10.461 96.5679Z" fill="white"/>
<path d="M7.22258 89.0124L18.2156 93.0156L18.412 92.4772L18.592 92.5426L18.1147 93.8511L17.9347 93.7857L18.1311 93.2473L6.81351 89.1269L5.87129 89.3736L5.62994 90.036L5.44995 89.9706L6.37854 87.4259L20.1178 84.2855L9.17793 80.3014L8.98158 80.8397L8.80159 80.7743L9.27883 79.4658L9.45883 79.5312L9.26247 80.0696L20.5432 84.1778L21.7527 83.8656L21.0996 85.658L7.22258 89.0124Z" fill="white"/>
<path d="M16.6283 78.9728C12.9058 77.07 11.9254 73.2018 13.5603 70.0069C15.1952 66.8119 18.9477 65.4312 22.6035 67.2999C26.2414 69.1604 27.2627 73.1146 25.6278 76.3068C23.9929 79.5017 20.2663 80.8347 16.6283 78.9728ZM21.7417 68.9819C18.086 67.1118 15.1816 67.2563 13.7635 70.026C12.3372 72.8133 13.8426 75.4044 17.4969 77.2731C21.1513 79.1432 24.0038 79.0587 25.4233 76.2877C26.8496 73.503 25.396 70.8506 21.7417 68.9819Z" fill="white"/>
<path d="M37.1747 52.1132L36.962 51.951L37.0779 51.7997L37.3056 51.9728C38.4891 52.8765 39.0618 53.6997 39.1491 54.3404C39.3945 55.9678 37.8742 58.0505 35.3052 56.7597C32.634 55.4158 31.4313 54.5694 30.4291 54.7166C29.4542 54.8597 28.7015 55.8451 28.8528 56.9683L34.3739 61.1855L34.7216 60.7302L34.873 60.8461L33.1808 63.0596L33.0267 62.9451L33.3744 62.4912L23.1668 54.6934L22.8191 55.1486L22.6677 55.0328L26.6193 49.8628C28.4397 47.4816 30.6364 46.8069 32.4867 48.2204C34.3071 49.612 34.2485 51.5107 33.189 53.558C35.218 54.5803 35.7457 54.9578 36.9388 55.5344C38.3378 56.2186 39.175 55.3435 38.92 54.2613C38.7605 53.588 38.0555 52.7852 37.1747 52.1132ZM32.9544 53.453C33.5544 52.0396 32.7076 50.697 31.3591 49.6652C29.5224 48.264 27.8711 48.5393 26.3766 50.4939L24.1636 53.3903L28.6524 56.8197C28.5624 56.3413 28.5174 55.2999 29.2905 54.2572C30.0664 53.2404 31.16 52.6584 32.9544 53.453Z" fill="white"/>
<path d="M48.6245 44.7414L48.7636 44.8736L46.8096 46.914L46.6719 46.7818L47.0674 46.3674L42.584 44.4837L39.1423 48.0835L41.3431 52.3525L41.7386 51.9381L41.8776 52.0703L40.8877 53.1048L40.7486 52.9726L41.144 52.5583L35.5384 41.4974L34.1626 41.0026L35.4293 39.6777L48.2291 45.1543L48.6245 44.7414ZM42.4067 44.3938L35.8234 41.6132L39.0564 47.8954L42.4067 44.3938Z" fill="white"/>
<path d="M52.377 41.7492L50.2431 43.5402L50.119 43.3957L50.5581 43.0263L42.2962 33.1867L41.9008 33.5165L41.7781 33.372L48.7977 27.4824L52.842 30.9922L52.6961 31.1149L51.3844 29.9986C49.3622 28.3302 47.8078 28.5878 46.1142 29.9836L43.5534 32.1317L47.4328 36.7523L51.0176 33.7455L49.7904 32.2843L49.9363 32.1617L52.5148 35.2312L52.3689 35.3539L51.1417 33.8927L47.5582 36.8995L51.818 41.9727L52.2557 41.6047L52.377 41.7492Z" fill="white"/>
<path d="M62.1223 34.1308L59.8083 35.6861L59.702 35.5279L60.1779 35.209L53.0082 24.5434L52.5815 24.831L52.4751 24.6728L60.0851 19.5615L63.734 23.4829L63.5759 23.5892L62.3896 22.338C60.5542 20.4652 58.982 20.5552 57.148 21.7642L54.3732 23.6274L57.7398 28.6351L61.6246 26.0263L60.5597 24.4425L60.7178 24.3362L62.9554 27.6633L62.7973 27.7696L61.7323 26.1844L57.8475 28.7933L61.5442 34.293L62.02 33.9741L62.1223 34.1308Z" fill="white"/>
<path d="M78.0281 24.4718L78.1181 24.6394L75.6378 25.9875L75.5465 25.8198L76.0496 25.5472L72.3544 22.3864L67.9773 24.7635L68.7709 29.5013L69.2741 29.2287L69.3654 29.395L68.1069 30.0793L68.0169 29.9116L68.5187 29.639L66.5551 17.395L65.3975 16.5049L67.0078 15.6299L77.525 24.7458L78.0281 24.4718ZM72.2125 22.246L66.7924 17.5899L67.9528 24.559L72.2125 22.246Z" fill="white"/>
<path d="M87.1762 15.1944L88.3898 20.3698L79.9821 23.8141L79.9098 23.6369L80.4402 23.4202L75.5668 11.536L75.0896 11.7323L75.0173 11.5551L82.7883 8.37109L85.03 12.0731L84.8527 12.1467L84.4859 11.5537C82.9724 9.12076 81.5079 9.12348 79.4694 9.9372L77.0845 10.9145L79.3726 16.4947L83.3473 14.8659L82.6233 13.1008L82.8006 13.0272L84.3209 16.7359L84.1437 16.8082L83.4196 15.0431L79.4462 16.6705L81.9579 22.7973L85.1732 21.4806C87.0631 20.7064 87.9275 19.342 87.3808 16.905L86.999 15.268L87.1762 15.1944Z" fill="white"/>
<path d="M91.0898 19.2147L91.5848 19.0702L87.9577 6.75261L87.4082 6.91344L87.355 6.7308L90.0289 5.94434L90.0821 6.12834L89.5326 6.28782L93.1597 18.6054L95.8145 17.8244C97.9144 17.1865 99.0434 16.0198 98.7366 13.4232L98.5253 11.7563L98.708 11.7017L99.3843 16.9712L91.1457 19.3946L91.0898 19.2147Z" fill="white"/>
<path d="M110.98 9.30907L111.11 14.6208L102.177 16.2741L102.143 16.086L102.706 15.9811L100.366 3.35539L99.8605 3.44944L99.8264 3.26134L108.084 1.7334L109.52 5.81292L109.332 5.84836L109.093 5.19411C108.11 2.50351 106.678 2.20773 104.516 2.58801L101.982 3.05689L103.081 8.98603L107.304 8.20502L106.956 6.32814L107.145 6.29406L107.874 10.2346L107.686 10.2686L107.338 8.39175L103.115 9.17413L104.322 15.6825L107.738 15.0501C109.746 14.6794 110.87 13.5194 110.834 11.0237L110.795 9.34314L110.98 9.30907Z" fill="white"/>
<path d="M120.814 8.37712L121.005 8.37167L121.002 8.9823C120.98 11.8078 121.943 13.5961 125.092 13.513C127.171 13.4585 128.269 12.3599 128.231 10.8551C128.181 8.98503 126.259 8.46299 124.29 7.69425C122.209 6.92823 120.233 5.87325 120.066 3.85462C119.85 1.43799 121.992 0.178556 124.434 0.114494C126.571 0.0586099 127.826 0.560201 128.641 1.0727L128.633 0.00545208L128.824 0L128.813 6.16358L128.622 6.16903L128.62 3.89824C128.635 1.54975 127.265 0.231713 124.441 0.303954C122.094 0.366652 121.207 1.47615 121.245 2.9264C121.291 4.73786 123.255 5.31714 125.261 6.08452C127.266 6.8519 129.297 7.86872 129.351 9.92824C129.409 12.12 127.768 13.6343 125.097 13.7038C123.285 13.7515 121.935 13.2145 120.979 12.5139L120.975 13.8115L120.784 13.8169L120.814 8.37712Z" fill="white"/>
<path d="M142.173 14.0157L142.159 14.2065L139.342 14.0007L139.356 13.8098L139.927 13.8521L138.527 9.19603L133.558 8.8321L131.664 13.2456L132.235 13.2878L132.222 13.4786L130.793 13.3737L130.808 13.1829L131.379 13.2251L136.347 1.86025L135.853 0.486328L137.68 0.619904L141.602 13.9748L142.173 14.0157ZM138.483 9.00112L136.439 2.15603L133.647 8.64809L138.483 9.00112Z" fill="white"/>
<path d="M155.008 12.8528C154.55 15.3103 152.471 16.0491 149.036 15.4098L144.138 14.4979L144.172 14.3098L144.735 14.4148L147.089 1.78778L146.526 1.68419L146.56 1.49609L150.969 2.31799C154.122 2.90546 156.2 4.04903 155.768 6.37571C155.428 8.19534 153.786 9.18898 151.572 8.77735L151.552 8.89048C153.748 9.29802 155.372 10.9009 155.008 12.8528ZM153.169 12.5107C153.556 10.428 152.517 9.12901 149.814 8.62469L147.619 8.21578L146.406 14.7242L148.789 15.1686C151.287 15.6347 152.746 14.7801 153.169 12.5107ZM147.655 8.02905L149.607 8.39298C151.935 8.82505 153.514 8.26622 153.934 6.01451C154.354 3.76416 153.076 2.90546 150.673 2.45839L148.76 2.10127L147.655 8.02905Z" fill="white"/>
<path d="M167.489 14.76L165.18 19.5469L156.474 16.9435L156.529 16.7609L157.077 16.9245L160.76 4.62184L160.266 4.47464L160.321 4.29199L168.367 6.69909L167.781 10.9858L167.598 10.9313L167.685 10.2402C168.037 7.39832 166.897 6.47828 164.8 5.8322L162.331 5.09345L160.6 10.8699L164.717 12.1007L165.264 10.2729L165.446 10.3274L164.297 14.1657L164.114 14.1112L164.66 12.282L160.544 11.0526L158.645 17.3961L161.973 18.3911C163.931 18.9758 165.461 18.4579 166.569 16.2184L167.301 14.7055L167.489 14.76Z" fill="white"/>
<path d="M168.023 20.3585L168.499 20.5575L173.429 8.70192L172.899 8.48247L172.973 8.30664L175.546 9.37525L175.472 9.55108L174.943 9.33163L170.014 21.1872L172.569 22.2476C174.604 23.0709 176.216 22.8746 177.609 20.6638L178.493 19.234L178.669 19.3076L175.879 23.8287L167.95 20.5357L168.023 20.3585Z" fill="white"/>
<path d="M178.662 24.9268L179.116 25.1721L185.222 13.8768L184.717 13.6042L184.807 13.4365L187.259 14.7614L187.169 14.929L186.666 14.6564L180.56 25.9531L182.994 27.2671C184.934 28.2934 186.558 28.2607 188.169 26.2026L189.193 24.8682L189.362 24.9595L186.127 29.1753L178.572 25.0958L178.662 24.9268Z" fill="white"/>
<path d="M197.691 36.6131L197.583 36.7698L195.251 35.1724L195.359 35.0143L195.832 35.3387L196.969 30.609L192.857 27.7916L188.995 30.654L189.468 30.977L189.361 31.1351L188.18 30.3255L188.287 30.1674L188.761 30.4918L198.783 23.1724L199.05 21.7344L200.561 22.7716L197.219 36.2873L197.691 36.6131ZM197.028 30.4195L198.712 23.4736L193.027 27.6771L197.028 30.4195Z" fill="white"/>
<path d="M201.395 37.145C201.858 37.5144 201.934 38.2136 201.549 38.6893C201.179 39.15 200.48 39.2263 200.019 38.8556C199.544 38.4726 199.482 37.787 199.853 37.3263C200.236 36.8492 200.919 36.762 201.395 37.145Z" fill="white"/>
<path d="M211.855 42.2496L211.987 42.3886L211.535 42.7975C209.432 44.6867 208.761 46.6031 210.944 48.8712C212.387 50.3705 213.937 50.44 215.024 49.3959C216.371 48.0997 215.46 46.3278 214.702 44.3568C213.865 42.3028 213.313 40.1342 214.691 38.6485C216.332 36.8602 218.706 37.5935 220.401 39.3532C221.883 40.8934 222.359 42.1569 222.529 43.1042L223.313 42.3777L223.445 42.5154L218.884 46.6644L218.751 46.5268L220.427 44.9934C222.171 43.4218 222.221 41.5204 220.263 39.4854C218.636 37.7953 217.217 37.8893 216.171 38.8938C214.865 40.1505 215.76 41.9893 216.544 43.9875C217.33 45.9856 217.949 48.1692 216.463 49.5976C214.882 51.1188 212.658 50.9293 210.807 49.0034C209.548 47.6962 209.035 46.3373 208.909 45.1624L207.947 46.0347L207.815 45.8957L211.855 42.2496Z" fill="white"/>
<path d="M220.691 49.5468C224.014 47.0103 227.926 47.7913 230.104 50.6413C232.283 53.4928 231.913 57.4728 228.653 59.963C225.408 62.441 221.4 61.6614 219.221 58.8099C217.041 55.9599 217.446 52.0248 220.691 49.5468ZM227.506 58.461C230.768 55.9708 231.889 53.2897 229.999 50.8185C228.098 48.3324 225.112 48.5723 221.85 51.0639C218.588 53.5541 217.436 56.1629 219.325 58.6355C221.227 61.1203 224.245 60.9512 227.506 58.461Z" fill="white"/>
<path d="M235.419 60.8442L225.319 66.7474L225.608 67.2408L225.443 67.3376L224.74 66.134L224.904 66.0386L225.194 66.532L235.591 60.4557L236.004 59.5752L235.647 58.9659L235.812 58.8691L237.181 61.2095L230.826 73.7847L240.879 67.9101L240.59 67.4166L240.753 67.3212L241.458 68.5234L241.293 68.6188L241.004 68.1254L230.638 74.1827L230.104 75.3113L229.141 73.6647L235.419 60.8442Z" fill="white"/>
<path d="M237.132 74.4632C240.971 72.8153 244.575 74.5286 245.991 77.8244C247.407 81.1215 246.075 84.8903 242.305 86.5082C238.552 88.1207 234.856 86.3842 233.44 83.087C232.025 79.7912 233.378 76.0743 237.132 74.4632ZM241.559 84.7717C245.331 83.1524 247.073 80.8271 245.846 77.9702C244.612 75.0943 241.656 74.5968 237.884 76.2174C234.113 77.8367 232.358 80.0843 233.586 82.9425C234.82 85.8172 237.789 86.3923 241.559 84.7717Z" fill="white"/>
<path d="M243.617 96.7548L247.001 95.9752L251.633 94.9093L251.503 94.3518L251.69 94.3096L252.401 97.3954L252.214 97.4391L252.001 96.5081L247.369 97.5754L244.483 98.2214C241.45 98.9193 240.054 100.847 240.62 103.301C241.082 105.311 243.238 106.419 245.562 105.884L249.097 105.069L253.729 104.003L253.515 103.072L253.7 103.03L254.104 104.778L253.917 104.82L253.789 104.262L249.158 105.33L245.622 106.143C243.15 106.713 240.5 105.503 239.81 102.51C239.189 99.8121 240.566 97.4581 243.617 96.7548Z" fill="white"/>
<path d="M253.554 109.811L241.923 111.123L241.987 111.693L241.797 111.715L241.641 110.329L241.832 110.307L241.896 110.877L253.869 109.525L254.603 108.885L254.524 108.182L254.713 108.16L255.019 110.855L244.113 119.789L255.688 118.482L255.623 117.914L255.813 117.891L255.969 119.277L255.779 119.299L255.715 118.729L243.779 120.077L242.834 120.895L242.621 118.998L253.554 109.811Z" fill="white"/>
<path d="M243.291 129.594L243.257 130.167L256.082 130.964L256.118 130.393L256.309 130.405L255.977 135.72C255.671 140.654 252.877 142.832 248.911 142.585C245.005 142.343 242.486 139.45 242.741 135.354L243.101 129.582L243.291 129.594ZM242.954 135.025C242.739 138.473 245.122 140.458 249.029 140.7C252.935 140.944 255.577 139.099 255.788 135.69L255.973 132.717L243.148 131.918L242.954 135.025Z" fill="white"/>
<path d="M245.373 154.968L240.354 153.215L241.958 144.275L242.147 144.309L242.046 144.872L254.69 147.139L254.78 146.632L254.968 146.666L253.486 154.929L249.158 154.832L249.192 154.644L249.889 154.652C252.754 154.681 253.538 153.446 253.944 151.29L254.4 148.754L248.463 147.69L247.703 151.916L249.582 152.253L249.549 152.441L245.603 151.732L245.636 151.544L247.515 151.881L248.273 147.656L241.755 146.486L241.142 149.905C240.78 151.915 241.469 153.375 243.818 154.223L245.406 154.779L245.373 154.968Z" fill="white"/>
<path d="M244.596 158.014L244.543 158.198L243.96 158.01C241.27 157.135 239.272 157.515 238.403 160.541C237.826 162.54 238.543 163.918 239.991 164.336C241.79 164.853 242.868 163.177 244.198 161.533C245.557 159.779 247.161 158.214 249.138 158.665C251.51 159.189 252.064 161.612 251.386 163.961C250.795 166.016 249.938 167.06 249.201 167.682L250.223 167.995L250.17 168.179L244.29 166.308L244.344 166.124L246.512 166.808C248.748 167.53 250.42 166.621 251.202 163.908C251.853 161.652 251.06 160.47 249.664 160.068C247.922 159.566 246.776 161.263 245.437 162.944C244.099 164.623 242.515 166.255 240.534 165.684C238.423 165.077 237.475 163.056 238.216 160.488C238.718 158.746 239.638 157.62 240.594 156.922L239.357 156.525L239.41 156.343L244.596 158.014Z" fill="white"/>
<path d="M236.45 167.216L236.251 167.753L248.294 172.218L248.493 171.68L248.673 171.747L247.703 174.358L247.525 174.292L247.724 173.755L235.682 169.291L235.483 169.828L235.304 169.761L236.273 167.149L236.45 167.216Z" fill="white"/>
<path d="M233.588 186.094L233.843 185.559L229.183 183.359L229.265 183.186C229.265 183.186 231.463 184.297 231.488 182.873C231.496 181.882 230.507 180.143 231.459 178.146C233.226 174.442 236.856 173.128 240.543 174.887C244.316 176.686 245.313 180.712 243.629 184.243C242.733 186.119 241.712 187.198 240.605 187.875L241.507 188.243L241.425 188.415L237.451 186.816L237.534 186.643L238.067 186.855C240.536 187.842 242.321 186.538 243.439 184.195C244.943 181.044 243.476 178.399 239.721 176.61C236.016 174.843 233.143 175.059 231.647 178.192C231.113 179.311 231.241 180.684 231.645 181.743C231.932 182.471 232.471 183.068 233.678 183.643L234.557 184.063L234.804 183.545L234.976 183.628L233.759 186.177L233.588 186.094Z" fill="white"/>
<path d="M237.252 193.031L227.393 186.732L227.084 187.215L226.923 187.113L227.674 185.94L227.835 186.043L227.525 186.525L237.673 193.009L238.648 192.975L239.027 192.379L239.188 192.482L237.729 194.765L223.635 194.842L233.446 201.109L233.754 200.627L233.915 200.729L233.165 201.903L233.004 201.799L233.314 201.317L223.196 194.855L221.948 194.894L222.975 193.286L237.252 193.031Z" fill="white"/>
<path d="M218.443 207.76L214.878 203.816L220.573 196.738L220.721 196.858L220.363 197.304L230.374 205.353L230.697 204.951L230.846 205.07L225.582 211.613L221.831 209.455L221.95 209.307L222.557 209.649C225.059 211.046 226.338 210.337 227.73 208.64L229.346 206.631L224.644 202.853L221.953 206.199L223.44 207.394L223.32 207.543L220.196 205.031L220.316 204.884L221.804 206.079L224.497 202.734L219.335 198.584L217.157 201.289C215.878 202.881 215.78 204.494 217.436 206.363L218.563 207.612L218.443 207.76Z" fill="white"/>
<path d="M207.596 216.283L207.785 216.472L207.649 216.609L207.447 216.405C206.396 215.352 205.939 214.459 205.94 213.812C205.914 212.165 207.701 210.306 210.075 211.929C212.544 213.619 213.623 214.621 214.634 214.609C215.62 214.597 216.5 213.722 216.501 212.588L211.592 207.667L211.187 208.072L211.052 207.936L213.025 205.969L213.162 206.104L212.755 206.509L221.828 215.607L222.235 215.202L222.37 215.338L217.758 219.934C215.634 222.05 213.365 222.425 211.72 220.775C210.102 219.153 210.415 217.278 211.742 215.389C209.867 214.105 209.395 213.658 208.29 212.927C206.996 212.06 206.048 212.815 206.156 213.922C206.221 214.606 206.813 215.499 207.596 216.283ZM211.958 215.519C211.174 216.842 211.832 218.286 213.032 219.49C214.663 221.126 216.339 221.074 218.083 219.336L220.667 216.761L216.676 212.759C216.701 213.245 216.605 214.285 215.699 215.214C214.792 216.119 213.631 216.549 211.958 215.519Z" fill="white"/>
<path d="M198.69 219.52L198.22 219.848L205.557 230.386L206.028 230.061L206.137 230.216L201.765 233.257C197.707 236.078 194.265 235.243 191.998 231.984C189.762 228.775 190.465 225.008 193.835 222.664L198.581 219.362L198.69 219.52ZM194.226 222.627C191.39 224.599 191.313 227.697 193.55 230.907C195.784 234.117 198.867 235.04 201.672 233.091L204.117 231.39L196.78 220.851L194.226 222.627Z" fill="white"/>
<path d="M180.068 236.909L178.332 231.885L186.344 227.599L186.433 227.766L185.928 228.036L191.991 239.36L192.446 239.118L192.535 239.285L185.129 243.247L182.522 239.794L182.69 239.705L183.115 240.256C184.87 242.521 186.325 242.37 188.271 241.352L190.542 240.134L187.695 234.819L183.909 236.844L184.81 238.526L184.641 238.616L182.75 235.082L182.917 234.993L183.819 236.675L187.605 234.648L184.479 228.81L181.416 230.45C179.615 231.412 178.894 232.86 179.686 235.227L180.234 236.818L180.068 236.909Z" fill="white"/>
<path d="M175.721 233.339L175.242 233.535L180.116 245.419L180.646 245.203L180.718 245.378L178.139 246.435L178.066 246.258L178.597 246.041L173.725 234.158L171.163 235.208C169.139 236.058 168.135 237.335 168.707 239.885L169.089 241.522L168.911 241.596L167.698 236.421L175.646 233.163L175.721 233.339Z" fill="white"/>
<path d="M164.979 237.596L164.485 237.742L168.139 250.059L168.689 249.897L168.743 250.08L166.069 250.873L166.015 250.689L166.564 250.527L162.909 238.209L160.255 238.996C158.154 239.639 157.028 240.808 157.339 243.404L157.555 245.073L157.371 245.126L156.684 239.856L164.923 237.413L164.979 237.596Z" fill="white"/>
<path d="M143.248 242.712L143.215 242.524L145.991 242.015L146.025 242.204L145.462 242.307L147.989 246.459L152.887 245.565L153.608 240.819L153.045 240.921L153.011 240.733L154.419 240.477L154.452 240.665L153.889 240.767L151.94 253.008L152.763 254.214L150.961 254.544L143.812 242.61L143.248 242.712ZM148.079 246.637L151.775 252.746L152.844 245.765L148.079 246.637Z" fill="white"/>
<path d="M121.758 247.829C122.1 246.564 123.185 245.231 124.242 244.546C125.262 243.861 126.133 243.447 127.925 243.398C132.027 243.274 135.006 245.801 135.077 250.071C135.149 254.44 131.982 256.933 128.071 256.997C126.679 257.02 125.645 256.826 124.009 256.033C123.815 255.942 123.526 255.736 123.526 255.736L123.735 256.877L123.526 256.881L122.418 250.946L122.609 250.942C123.356 254.575 125.264 256.851 128.03 256.806C131.465 256.75 133.239 254.393 133.169 250.103C133.1 245.812 131.439 243.53 127.967 243.587C125.163 243.632 122.825 245.427 121.95 247.825L121.758 247.829Z" fill="white"/>
<path d="M119.006 249.848C118.481 253.993 115.179 256.23 111.62 255.78C108.061 255.33 105.484 252.274 105.999 248.204C106.51 244.154 109.88 241.85 113.439 242.3C116.999 242.75 119.517 245.797 119.006 249.848ZM107.873 248.44C107.359 252.509 108.481 255.19 111.568 255.58C114.673 255.971 116.598 253.677 117.112 249.607C117.626 245.537 116.576 242.886 113.49 242.496C110.384 242.105 108.388 244.372 107.873 248.44Z" fill="white"/>
<path d="M86.6649 249.841L90.0956 237.468L89.5447 237.315L89.5952 237.131L92.2814 237.875L92.231 238.059L91.6787 237.906L88.3407 249.949L96.5916 241.405L96.0708 238.925L97.7261 239.384L100.611 252.121L103.634 241.219L102.899 241.015L102.95 240.831L104.477 241.255L104.425 241.439L103.874 241.287L100.734 252.613L100.995 253.814L101.656 253.998L101.605 254.182L99.1783 253.509L96.6489 241.702L88.1989 250.468L86.0649 249.876L86.1168 249.692L86.6649 249.841Z" fill="white"/>
<path d="M85.1312 240.432L83.7608 243.623L81.8845 247.988L82.4109 248.215L82.3359 248.39L79.4233 247.141L79.4997 246.965L80.3778 247.341L82.2527 242.975L83.4376 240.265C84.6648 237.407 83.934 235.142 81.62 234.148C79.7246 233.336 77.5566 234.418 76.6144 236.611L75.184 239.942L73.3077 244.307L74.1858 244.683L74.1095 244.859L72.4609 244.15L72.5373 243.976L73.0636 244.201L74.9385 239.835L76.3703 236.505C77.3711 234.173 79.9155 232.751 82.7381 233.964C85.2798 235.056 86.3666 237.557 85.1312 240.432Z" fill="white"/>
<path d="M68.7016 240.713L74.5186 230.565L74.0222 230.281L74.1163 230.116L75.3258 230.808L75.2317 230.974L74.734 230.689L68.748 241.136L68.8298 242.106L69.442 242.458L69.3479 242.623L66.9958 241.276L66.2363 227.21L60.4493 237.308L60.9457 237.592L60.8516 237.758L59.6421 237.066L59.7362 236.899L60.2325 237.184L66.2008 226.771L66.0999 225.526L67.7567 226.474L68.7016 240.713Z" fill="white"/>
<path d="M63.9917 224.234L63.5186 223.911L56.2521 234.492L56.7239 234.817L56.6162 234.974L54.3186 233.398L54.4263 233.241L54.8995 233.564L62.1659 222.982L61.6941 222.659L61.8018 222.502L64.0994 224.078L63.9917 224.234Z" fill="white"/>
<path d="M46.7222 216.073C47.8062 215.335 49.4997 215.029 50.7488 215.198C51.9692 215.341 52.9005 215.594 54.294 216.724C57.4889 219.302 58.1052 223.16 55.374 226.449C52.5814 229.812 48.5534 229.644 45.5413 227.146C44.4696 226.256 43.8096 225.437 43.0855 223.768C43.001 223.572 42.9137 223.229 42.9137 223.229L42.3288 224.23L42.1665 224.095L45.1936 218.868L45.3395 218.991C43.5396 222.235 43.5028 225.206 45.634 226.971C48.2766 229.164 51.1606 228.532 53.9041 225.228C56.6475 221.924 56.8739 219.112 54.1999 216.895C52.0414 215.104 49.0989 214.941 46.8681 216.193L46.7222 216.073Z" fill="white"/>
<path d="M41.0185 204.214L41.1563 204.08L43.1171 206.115L42.9794 206.249L42.5812 205.836L40.514 210.238L43.9734 213.827L48.3327 211.802L47.9345 211.389L48.0736 211.256L49.0677 212.287L48.9299 212.42L48.5318 212.007L37.2388 217.158L36.6879 218.512L35.4143 217.192L41.4153 204.624L41.0185 204.214ZM40.4186 210.414L37.3683 216.879L43.7852 213.905L40.4186 210.414Z" fill="white"/>
<path d="M24.7144 204.23L26.7774 206.907C28.1437 208.649 29.8468 209.263 32.0312 207.969L33.9934 206.795L34.1107 206.945L28.9564 210.046L23.3044 202.713L38.5532 201.138L36.1301 197.993C34.7788 196.24 32.473 196.281 30.6827 197.273L29.0614 198.233L28.9455 198.083L34.0698 195.005L39.9522 202.641L24.7144 204.23Z" fill="white"/>
<path d="M32.113 192.373L31.8007 191.892L21.0341 198.906L21.3463 199.386L21.1868 199.49L19.665 197.155L19.8259 197.051L20.1382 197.531L30.9062 190.518L30.594 190.039L30.7535 189.934L32.2753 192.27L32.113 192.373Z" fill="white"/>
<path d="M23.4763 191.044C19.781 192.998 16.0517 191.581 14.3731 188.409C12.6946 185.237 13.7172 181.373 17.3443 179.456C20.955 177.547 24.7798 178.977 26.4584 182.15C28.1355 185.321 27.0883 189.134 23.4763 191.044ZM18.2293 181.127C14.6022 183.044 13.0518 185.505 14.5081 188.254C15.9712 191.021 18.9588 191.277 22.5858 189.359C26.2143 187.44 27.7824 185.058 26.3261 182.307C24.8616 179.54 21.8563 179.209 18.2293 181.127Z" fill="white"/>
<path d="M10.8305 177.522L21.7622 173.364L21.559 172.829L21.7376 172.762L22.2326 174.062L22.054 174.13L21.8508 173.595L10.5973 177.875L10.0465 178.677L10.2974 179.336L10.1187 179.404L9.15605 176.874L17.4915 165.523L6.61301 169.658L6.81618 170.194L6.63755 170.262L6.14258 168.96L6.3212 168.892L6.52438 169.428L17.741 165.163L18.4515 164.137L19.1305 165.921L10.8305 177.522Z" fill="white"/>
<path d="M10.2333 153.671L15.5253 153.168L17.8025 161.959L17.617 162.007L17.4752 161.452L5.04089 164.672L5.17042 165.171L4.98498 165.218L2.87964 157.092L6.85033 155.373L6.89806 155.559L6.26127 155.841C3.64596 157.01 3.44961 158.461 3.98276 160.59L4.62909 163.083L10.4665 161.571L9.39065 157.415L7.54302 157.895L7.4953 157.71L11.376 156.705L11.4237 156.89L9.57609 157.369L10.6533 161.525L17.0648 159.865L16.1935 156.503C15.6808 154.527 14.4454 153.487 11.9569 153.697L10.2824 153.855L10.2333 153.671Z" fill="white"/>
<path d="M7.05211 136.475C7.00438 135.752 7.57435 135.102 8.31749 135.052C9.04155 135.006 9.67287 135.577 9.71924 136.3C9.76832 137.044 9.21608 137.672 8.49203 137.72C7.74889 137.768 7.09983 137.218 7.05211 136.475Z" fill="white"/>
<path d="M207.014 188L206.926 187.832L207.475 187.562C210.016 186.325 211.191 184.667 209.717 181.883C208.742 180.044 207.271 179.549 205.939 180.255C204.283 181.13 204.67 183.085 204.857 185.191C205.097 187.396 205.029 189.634 203.295 190.682C201.222 191.954 199.141 190.592 197.998 188.433C196.998 186.544 196.889 185.197 196.985 184.239L196.031 184.722L195.944 184.553L201.474 181.82L201.564 181.989L199.528 183C197.416 184.032 196.844 185.848 198.168 188.343C199.267 190.418 200.657 190.719 201.941 190.04C203.544 189.191 203.188 187.175 202.986 185.037C202.782 182.898 202.789 180.627 204.61 179.664C206.551 178.634 208.637 179.432 209.889 181.794C210.737 183.396 210.856 184.844 210.654 186.01L211.818 185.437L211.907 185.606L207.014 188Z" fill="white"/>
<path d="M202.686 166.609L202.864 166.535L203.931 169.152L203.754 169.224L203.539 168.694L199.988 172.019L201.874 176.632L206.672 176.363L206.457 175.832L206.633 175.759L207.174 177.086L206.997 177.157L206.781 176.627L194.384 177.233L193.372 178.286L192.679 176.59L202.905 167.138L202.686 166.609ZM199.831 172.145L194.606 177.021L201.666 176.634L199.831 172.145Z" fill="white"/>
<path d="M196.017 155.978C198.421 155.287 200.013 156.815 200.979 160.172L202.355 164.961L202.171 165.014L202.013 164.463L189.662 168.011L189.819 168.56L189.636 168.612L188.396 164.302C187.511 161.221 187.605 158.85 189.88 158.197C191.661 157.688 193.286 158.708 193.908 160.874L194.017 160.843C193.401 158.695 194.108 156.525 196.017 155.978ZM194.992 164.711L194.444 162.804C193.791 160.528 192.581 159.368 190.379 159.999C188.178 160.632 187.98 162.158 188.657 164.505L189.194 166.377L194.992 164.711ZM196.534 157.775C194.497 158.36 193.799 159.87 194.558 162.513L195.175 164.658L201.544 162.83L200.873 160.499C200.172 158.06 198.755 157.137 196.534 157.775Z" fill="white"/>
<path d="M198.958 152.968L198.843 152.408L186.258 154.992L186.374 155.554L186.187 155.592L185.627 152.865L185.814 152.826L185.93 153.385L198.513 150.801L198.397 150.239L198.584 150.201L199.145 152.93L198.958 152.968Z" fill="white"/>
<path d="M192.199 135.438C193.492 135.655 194.928 136.605 195.713 137.591C196.496 138.538 196.992 139.365 197.219 141.145C197.744 145.215 195.52 148.431 191.271 148.919C186.925 149.416 184.131 146.509 183.685 142.623C183.526 141.237 183.617 140.191 184.247 138.485C184.321 138.286 184.497 137.976 184.497 137.976L183.38 138.295L183.355 138.087L189.159 136.403L189.182 136.593C185.635 137.693 183.554 139.814 183.869 142.563C184.263 145.979 186.785 147.512 191.053 147.023C195.322 146.533 197.431 144.657 197.034 141.204C196.715 138.417 194.699 136.266 192.224 135.628L192.199 135.438Z" fill="white"/>
<path d="M191.272 123.105L196.522 123.952L196.511 133.032L196.32 133.031V132.46L183.474 132.445V132.96H183.283L183.291 124.565L187.567 123.904L187.569 124.094L186.88 124.207C184.055 124.682 183.5 126.035 183.479 128.23L183.475 130.807L189.508 130.813L189.513 126.521L187.605 126.517L187.604 126.326L191.613 126.33L191.612 126.523L189.704 126.52L189.699 130.812L196.323 130.82L196.327 127.347C196.328 125.305 195.394 123.987 192.932 123.566L191.272 123.298V123.105Z" fill="white"/>
<path d="M194.609 120.072C194.648 119.479 195.181 119.021 195.79 119.063C196.38 119.106 196.841 119.636 196.799 120.227C196.756 120.837 196.227 121.278 195.635 121.236C195.027 121.191 194.566 120.681 194.609 120.072Z" fill="white"/>
<path d="M194.648 103.292C195.837 103.844 196.966 105.142 197.461 106.302C197.96 107.422 198.222 108.352 197.963 110.128C197.382 114.189 194.384 116.695 190.158 116.032C185.838 115.356 183.92 111.81 184.527 107.945C184.742 106.569 185.109 105.583 186.171 104.108C186.295 103.935 186.546 103.683 186.546 103.683L185.384 103.695L185.416 103.488L191.458 103.411L191.429 103.599C187.72 103.713 185.15 105.206 184.72 107.939C184.188 111.332 186.209 113.482 190.451 114.148C194.695 114.812 197.228 113.566 197.767 110.137C198.2 107.366 196.831 104.757 194.616 103.481L194.648 103.292Z" fill="white"/>
<path d="M192.942 100.541C188.929 99.3743 187.237 95.7623 188.241 92.3194C189.242 88.8777 192.664 86.8155 196.603 87.9604C200.526 89.1013 202.272 92.7882 201.271 96.2285C200.269 99.6715 196.862 101.681 192.942 100.541ZM196.077 89.7719C192.136 88.6269 189.314 89.3153 188.444 92.2989C187.57 95.303 189.535 97.5615 193.474 98.7078C197.413 99.8528 200.196 99.2339 201.065 96.2462C201.942 93.2462 200.015 90.9182 196.077 89.7719Z" fill="white"/>
<path d="M197.851 68.8984L209.556 74.1896L209.792 73.6676L209.966 73.7466L208.818 76.2859L208.644 76.2055L208.88 75.6821L197.488 70.5353L204.666 79.9974L207.197 79.8638L206.488 81.4286L193.454 82.32L203.765 86.9802L204.08 86.285L204.253 86.3641L203.6 87.8075L203.427 87.7298L203.663 87.2064L192.95 82.365L191.726 82.4386L191.441 83.0642L191.268 82.9852L192.307 80.6898L204.366 80.0056L197.002 70.3132L197.914 68.2959L198.087 68.375L197.851 68.8984Z" fill="white"/>
<path d="M209.868 69.9612C210.163 69.4487 210.84 69.2647 211.371 69.5701C211.882 69.8645 212.066 70.5419 211.772 71.053C211.468 71.5832 210.8 71.7509 210.287 71.4565C209.756 71.1512 209.564 70.4915 209.868 69.9612Z" fill="white"/>
<path d="M245.883 33.5177L246 33.6676L243.761 35.3905L243.645 35.2392L244.099 34.8902L239.952 32.3537L236.005 35.3918L237.536 39.943L237.989 39.5927L238.108 39.744L236.972 40.6177L236.856 40.4664L237.31 40.1174L233.44 28.3396L232.157 27.6417L233.606 26.5254L245.427 33.868L245.883 33.5177ZM239.79 32.2351L233.705 28.495L235.95 35.1928L239.79 32.2351Z" fill="white"/>
<path d="M255.113 24.0125L254.974 23.7835L255.137 23.6867L255.285 23.932C256.054 25.2065 256.287 26.1769 256.133 26.8066C255.763 28.4109 253.59 29.7917 251.671 27.6544C249.676 25.4245 248.868 24.1978 247.882 23.9688C246.923 23.7467 245.861 24.3887 245.59 25.4886L249.184 31.43L249.674 31.1329L249.773 31.2964L247.388 32.7371L247.289 32.5749L247.778 32.2792L241.132 21.2919L240.643 21.589L240.546 21.4254L246.113 18.0588C248.677 16.509 250.969 16.6835 252.173 18.6762C253.358 20.6349 252.608 22.3809 250.872 23.898C252.386 25.5908 252.739 26.1374 253.639 27.1079C254.69 28.2555 255.788 27.7471 255.949 26.6472C256.05 25.967 255.686 24.9598 255.113 24.0125ZM250.696 23.7167C251.773 22.6194 251.476 21.0615 250.597 19.6072C249.404 17.6322 247.766 17.2846 245.658 18.5563L242.539 20.4427L245.463 25.276C245.552 24.7962 245.891 23.8107 246.994 23.1238C248.088 22.4641 249.316 22.3223 250.696 23.7167Z" fill="white"/>
<path d="M264.243 13.6432L263.585 12.5391C262.177 10.2275 260.823 10.7072 259.662 11.2429L258.501 11.7813L263.905 23.4487L264.424 23.2089L264.505 23.382L261.977 24.5514L261.896 24.377L262.416 24.1371L257.014 12.4696L255.835 13.0135C254.674 13.5519 253.416 14.2824 254.285 16.8436L254.702 18.0594L254.529 18.1398L253.131 14.0793L262.206 9.87988L264.418 13.5641L264.243 13.6432Z" fill="white"/>
<path d="M275.49 18.7629L276.042 18.6143L272.704 6.2081L272.153 6.35803L272.103 6.17266L277.246 4.7892C282.023 3.50659 284.982 5.45844 286.012 9.29261C287.028 13.0695 285.091 16.379 281.127 17.4435L275.539 18.9455L275.49 18.7629ZM280.746 17.3494C284.082 16.4526 285.205 13.563 284.187 9.78194C283.171 6.00501 280.58 4.09133 277.279 4.98002L274.403 5.75149L277.741 18.1577L280.746 17.3494Z" fill="white"/>
<path d="M289.699 15.2491L290.265 15.1496L287.999 2.50761L287.435 2.60847L287.402 2.42037L290.147 1.92969L290.179 2.11915L289.615 2.21865L291.881 14.8607L292.444 14.7598L292.477 14.9479L289.735 15.4386L289.699 15.2491Z" fill="white"/>
<path d="M305.502 9.9204L305.475 9.65597L305.664 9.63553L305.693 9.92176C305.837 11.402 305.629 12.382 305.216 12.8822C304.191 14.173 301.631 14.4811 300.823 11.7223C299.985 8.85179 299.783 7.39472 298.992 6.76228C298.222 6.14892 296.986 6.27023 296.268 7.14529L296.947 14.0585L297.517 14.0026L297.537 14.1921L294.764 14.4647L294.743 14.2752L295.313 14.2194L294.056 1.43696L293.485 1.49284L293.467 1.30066L299.947 0.665492C302.929 0.371079 304.921 1.51874 305.15 3.83588C305.374 6.11485 303.942 7.36746 301.721 7.989C302.359 10.1712 302.439 10.8132 302.832 12.0781C303.286 13.5692 304.496 13.5828 305.115 12.6601C305.503 12.0862 305.61 11.0217 305.502 9.9204ZM301.643 7.75047C303.088 7.22571 303.493 5.68958 303.326 3.99944C303.101 1.70139 301.771 0.680485 299.319 0.921739L295.691 1.27885L296.245 6.90131C296.531 6.50876 297.263 5.76455 298.554 5.62007C299.828 5.49331 300.999 5.8954 301.643 7.75047Z" fill="white"/>
<path d="M317.759 8.18785L316.875 13.4259L307.793 13.3455L307.795 13.1547L308.367 13.1602L308.48 0.324591L307.964 0.319139L307.967 0.126953L316.36 0.201919L316.991 4.47908H316.8L316.691 3.79075C316.24 0.963848 314.89 0.399557 312.696 0.36003L310.119 0.336858L310.066 6.36413L314.358 6.40094L314.376 4.49543L314.567 4.4968L314.533 8.50135L314.34 8.49862L314.357 6.59176L310.066 6.55496L310.007 13.1724L313.481 13.2024C315.521 13.2201 316.848 12.2974 317.288 9.83984L317.571 8.18377L317.759 8.18785Z" fill="white"/>
<path d="M332.882 10.7894C332.367 11.9943 331.105 13.1637 329.961 13.6926C328.857 14.2296 327.938 14.5172 326.154 14.3155C322.077 13.8657 319.48 10.9475 320.007 6.70984C320.547 2.37544 324.028 0.349987 327.911 0.832496C329.292 1.0056 330.287 1.33954 331.797 2.35226C331.975 2.47221 332.232 2.71483 332.232 2.71483L332.185 1.5549L332.391 1.58079L332.66 7.6108L332.47 7.58626C332.238 3.88839 330.668 1.36816 327.923 1.02605C324.515 0.602146 322.429 2.68757 321.9 6.94564C321.37 11.2051 322.694 13.6953 326.139 14.1233C328.922 14.4709 331.487 13.0193 332.69 10.7676L332.882 10.7894Z" fill="white"/>
<path d="M346.39 9.30889L346.568 8.03583C346.915 5.34932 345.558 4.87771 344.317 4.57239L343.075 4.26299L339.99 16.7496L340.547 16.8886L340.5 17.0727L337.795 16.4061L337.841 16.2208L338.396 16.3584L341.481 3.87317L340.221 3.56103C338.979 3.25435 337.537 3.03627 336.614 5.57967L336.178 6.78867L335.992 6.74232L337.443 2.69824L347.155 5.09579L346.574 9.35523L346.39 9.30889Z" fill="white"/>
<path d="M348.248 12.2525C349.721 8.33923 353.454 6.92987 356.814 8.19339C360.172 9.45691 361.971 13.0267 360.526 16.8676C359.086 20.6909 355.272 22.1521 351.913 20.8886C348.555 19.625 346.808 16.0757 348.248 12.2525ZM358.757 16.2052C360.201 12.3629 359.732 9.49507 356.818 8.3992C353.888 7.29652 351.48 9.08344 350.034 12.9244C348.589 16.7641 348.994 19.5896 351.908 20.6841C354.838 21.7868 357.31 20.0448 358.757 16.2052Z" fill="white"/>
<path d="M371.343 25.9305L371.465 25.6933L371.636 25.7819L371.502 26.0355C370.814 27.3549 370.102 28.0582 369.486 28.2531C367.922 28.7724 365.612 27.6316 366.445 24.881C367.315 22.02 367.943 20.6938 367.627 19.7315C367.319 18.7965 366.218 18.2226 365.138 18.5634L361.925 24.7188L362.432 24.9832L362.345 25.1522L359.874 23.8642L359.962 23.6952L360.47 23.9596L366.411 12.5784L365.902 12.3139L365.991 12.1436L371.759 15.1531C374.415 16.5407 375.455 18.5893 374.378 20.6502C373.318 22.6783 371.437 22.9469 369.236 22.2517C368.577 24.4244 368.292 25.0077 367.93 26.2822C367.493 27.776 368.497 28.4507 369.521 28.0146C370.159 27.7447 370.83 26.9119 371.343 25.9305ZM369.301 22.005C370.799 22.3567 371.978 21.2935 372.764 19.7887C373.831 17.7415 373.279 16.1617 371.096 15.0236L367.864 13.3389L365.25 18.3439C365.706 18.1736 366.726 17.9514 367.885 18.5348C369.019 19.1249 369.78 20.1022 369.301 22.005Z" fill="white"/>
<path d="M376.708 33.3666L377.178 33.6965L384.583 23.1985L384.115 22.8673L384.224 22.7119L386.503 24.3189L386.394 24.4743L385.926 24.1444L378.519 34.6438L378.987 34.9736L378.877 35.129L376.598 33.522L376.708 33.3666Z" fill="white"/>
<path d="M389.316 28.0131L381.829 37.009L382.269 37.3756L382.146 37.5229L381.076 36.6314L381.197 36.4842L381.639 36.8522L389.343 27.5919L389.429 26.6228L388.888 26.1703L389.01 26.0244L391.094 27.7582L389.409 41.7523L396.859 32.8L396.42 32.4333L396.541 32.2875L397.613 33.1789L397.49 33.3247L397.051 32.9581L389.368 42.1885L389.252 43.4302L387.783 42.2103L389.316 28.0131Z" fill="white"/>
<path d="M399.942 44.6411C403.125 41.9315 407.074 42.5053 409.401 45.2354C411.727 47.9683 411.569 51.9619 408.444 54.6225C405.335 57.2695 401.291 56.7025 398.965 53.9697C396.636 51.2382 396.831 47.2868 399.942 44.6411ZM407.22 53.1846C410.343 50.5239 411.321 47.787 409.303 45.4194C407.274 43.0369 404.304 43.4335 401.18 46.0941C398.055 48.7547 397.042 51.4194 399.057 53.7897C401.089 56.1709 404.094 55.8438 407.22 53.1846Z" fill="white"/>
<path d="M415.011 54.8007L405.261 61.2724L405.576 61.7494L405.418 61.8544L404.649 60.6931L404.809 60.5881L405.124 61.0665L415.161 54.4055L415.522 53.5004L415.132 52.913L415.29 52.8066L416.79 55.0638L411.163 67.9839L420.865 61.5436L420.548 61.0679L420.708 60.9616L421.478 62.1242L421.32 62.2278L421.004 61.7508L410.998 68.39L410.529 69.5486L409.472 67.958L415.011 54.8007Z" fill="white"/>
<path d="M411.697 71.2791L411.937 71.7371L423.33 65.8066L423.065 65.2982L423.234 65.2109L424.52 67.6807L424.351 67.768L424.088 67.2609L412.696 73.1928L413.975 75.6462C415.004 77.5831 416.366 78.4636 418.855 77.6649L420.451 77.1346L420.539 77.3037L415.496 78.9815L411.53 71.3663L411.697 71.2791Z" fill="white"/>
<path d="M420.779 91.3324L420.602 91.4033L419.563 88.7754L419.743 88.7059L419.951 89.2388L423.54 85.9567L421.71 81.3238L416.909 81.5364L417.119 82.068L416.942 82.1388L416.415 80.8072L416.594 80.7377L416.804 81.2706L429.202 80.8099L430.228 79.7686L430.902 81.4723L420.567 90.8008L420.779 91.3324ZM423.698 85.8326L428.979 81.0212L421.916 81.3238L423.698 85.8326Z" fill="white"/>
<path d="M427.322 102.063C424.909 102.723 423.337 101.177 422.414 97.8063L421.095 93.003L421.279 92.9525L421.431 93.5059L433.824 90.1079L433.673 89.5573L433.857 89.5068L435.043 93.8331C435.892 96.9271 435.77 99.2933 433.486 99.9189C431.7 100.41 430.088 99.3683 429.492 97.1956L429.381 97.2243C429.972 99.3765 429.237 101.537 427.322 102.063ZM426.827 100.258C428.873 99.6981 429.589 98.1947 428.862 95.5464L428.27 93.3928L421.879 95.1429L422.523 97.4819C423.195 99.9285 424.599 100.87 426.827 100.258ZM428.456 93.341L428.981 95.2547C429.608 97.5364 430.8 98.7127 433.01 98.1075C435.219 97.5023 435.436 95.9784 434.789 93.6231L434.275 91.7449L428.456 93.341Z" fill="white"/>
<path d="M431.507 111.583C431.607 112.3 431.086 112.988 430.348 113.09C429.631 113.19 428.959 112.666 428.861 111.949C428.758 111.212 429.263 110.545 429.98 110.445C430.719 110.344 431.405 110.845 431.507 111.583Z" fill="white"/>
<path d="M436.128 132.775C433.779 132.794 432.178 130.783 432.154 127.881L432.125 124.407L426.683 124.452L426.688 125.025L426.496 125.026L426.474 122.239L426.665 122.237L426.669 122.81L439.521 122.706L439.517 122.134L439.708 122.131L439.753 127.706C439.78 130.798 438.496 132.754 436.128 132.775ZM436.132 130.941C438.442 130.922 439.578 129.692 439.559 127.229L439.536 124.347L432.316 124.406L432.34 127.269C432.359 129.656 433.823 130.961 436.132 130.941Z" fill="white"/>
<path d="M428.791 146.097L429.057 146.125L429.036 146.315L428.751 146.286C427.271 146.135 426.353 145.734 425.944 145.231C424.884 143.973 425.089 141.405 427.954 141.164C430.935 140.912 432.4 141.006 433.176 140.356C433.932 139.723 434.057 138.49 433.341 137.61L426.433 136.902L426.375 137.473L426.185 137.452L426.469 134.683L426.66 134.702L426.6 135.271L439.375 136.58L439.434 136.01L439.623 136.031L438.96 142.5C438.656 145.48 437.136 147.203 434.821 146.965C432.542 146.732 431.6 145.082 431.434 142.784C429.17 142.974 428.521 142.926 427.204 143.06C425.653 143.206 425.398 144.39 426.18 145.179C426.668 145.667 427.691 145.983 428.791 146.097ZM431.686 142.749C431.914 144.267 433.337 144.971 435.025 145.142C437.324 145.378 438.587 144.28 438.836 141.832L439.209 138.209L433.589 137.634C433.917 137.992 434.5 138.858 434.387 140.151C434.258 141.421 433.63 142.487 431.686 142.749Z" fill="white"/>
<path d="M431.569 148.827C435.647 149.75 437.556 153.253 436.765 156.752C435.973 160.251 432.68 162.52 428.675 161.615C424.691 160.714 422.719 157.139 423.511 153.637C424.302 150.14 427.583 147.926 431.569 148.827ZM429.092 159.774C433.097 160.679 435.875 159.82 436.562 156.786C437.253 153.733 435.152 151.594 431.149 150.689C427.142 149.784 424.4 150.573 423.716 153.609C423.025 156.662 425.088 158.869 429.092 159.774Z" fill="white"/>
<path d="M422.102 175.866L422.302 175.31L417.452 173.56L417.519 173.381C417.519 173.381 419.812 174.279 419.703 172.856C419.617 171.869 418.466 170.23 419.226 168.151C420.634 164.296 424.124 162.643 427.962 164.043C431.892 165.478 433.266 169.394 431.923 173.069C431.21 175.025 430.294 176.194 429.258 176.974L430.192 177.255L430.126 177.432L426.016 176.217L426.082 176.037L426.633 176.197C429.185 176.947 430.841 175.479 431.73 173.039C432.93 169.758 431.217 167.264 427.306 165.837C423.451 164.43 420.61 164.915 419.415 168.18C418.991 169.345 419.249 170.7 419.752 171.717C420.107 172.416 420.701 172.957 421.957 173.415L422.872 173.749L423.07 173.211L423.248 173.277L422.279 175.931L422.102 175.866Z" fill="white"/>
<path d="M416.693 186.907L412.379 183.806L416.451 175.688L416.621 175.772L416.365 176.285L427.849 182.039L428.079 181.578L428.25 181.666L424.486 189.169L420.364 187.85L420.45 187.679L421.114 187.885C423.855 188.723 424.957 187.762 425.957 185.809L427.112 183.507L421.721 180.804L419.796 184.643L421.503 185.497L421.418 185.668L417.835 183.872L417.919 183.702L419.625 184.557L421.552 180.72L415.63 177.752L414.071 180.856C413.156 182.681 413.403 184.277 415.414 185.756L416.778 186.739L416.693 186.907Z" fill="white"/>
<path d="M413.095 199.584L414.245 200.162C416.675 201.358 417.561 200.225 418.251 199.15L418.942 198.074L408.113 191.13L407.805 191.612L407.642 191.51L409.148 189.164L409.307 189.268L408.998 189.749L419.827 196.693L420.528 195.6C421.219 194.525 421.889 193.23 419.779 191.54L418.774 190.736L418.877 190.576L422.239 193.253L416.84 201.668L412.992 199.747L413.095 199.584Z" fill="white"/>
<path d="M404.904 209.999L405.983 210.697C408.272 212.144 409.272 211.113 410.075 210.118L410.874 209.121L400.853 201.066L400.493 201.512L400.346 201.393L402.091 199.222L402.238 199.34L401.88 199.787L411.902 207.843L412.715 206.831C413.518 205.838 414.321 204.623 412.404 202.715L411.49 201.809L411.61 201.66L414.667 204.682L408.399 212.469L404.781 210.149L404.904 209.999Z" fill="white"/>
<path d="M401.469 210.415C404.398 213.397 404.108 217.376 401.546 219.889C398.984 222.404 394.986 222.529 392.11 219.6C389.248 216.686 389.527 212.612 392.089 210.098C394.652 207.585 398.607 207.499 401.469 210.415ZM393.46 218.277C396.336 221.204 399.136 221.987 401.356 219.807C403.591 217.614 402.983 214.681 400.107 211.753C397.234 208.825 394.499 208.003 392.279 210.183C390.043 212.376 390.584 215.347 393.46 218.277Z" fill="white"/>
<path d="M374.693 228.848C373.264 226.794 374.204 224.794 377.072 222.801L381.167 219.961L381.276 220.118L380.806 220.443L388.135 230.996L388.607 230.67L388.716 230.826L385.03 233.385C382.394 235.215 380.119 235.888 378.767 233.943C377.711 232.423 378.158 230.556 380.008 229.27L379.943 229.175C378.109 230.452 375.826 230.479 374.693 228.848ZM376.23 227.782C377.439 229.521 379.096 229.696 381.353 228.128L383.189 226.855L379.411 221.414L377.417 222.797C375.331 224.246 374.911 225.885 376.23 227.782ZM383.299 227.013L381.668 228.146C379.722 229.494 379.011 231.014 380.318 232.893C381.624 234.776 383.134 234.472 385.142 233.077L386.742 231.968L383.299 227.013Z" fill="white"/>
<path d="M362.947 235.214L363.075 235.451L362.908 235.541L362.77 235.289C362.06 233.98 361.874 232.995 362.06 232.375C362.501 230.788 364.739 229.51 366.557 231.737C368.445 234.057 369.196 235.32 370.17 235.594C371.119 235.863 372.21 235.271 372.532 234.185L369.218 228.08L368.715 228.351L368.624 228.185L371.074 226.854L371.165 227.022L370.662 227.295L376.787 238.583L377.291 238.311L377.382 238.478L371.659 241.581C369.025 243.009 366.745 242.726 365.634 240.681C364.54 238.666 365.372 236.959 367.177 235.523C365.744 233.761 365.417 233.201 364.562 232.187C363.568 230.99 362.445 231.447 362.234 232.538C362.105 233.22 362.42 234.242 362.947 235.214ZM367.347 235.718C366.22 236.762 366.445 238.337 367.255 239.829C368.357 241.859 369.976 242.283 372.14 241.108L375.346 239.37L372.65 234.406C372.539 234.88 372.153 235.849 371.021 236.483C369.896 237.092 368.661 237.177 367.347 235.718Z" fill="white"/>
<path d="M349.77 237.143L349.698 236.966L352.313 235.896L352.385 236.074L351.855 236.289L355.181 239.839L359.796 237.955L359.528 233.157L358.996 233.373L358.923 233.195L360.25 232.654L360.322 232.831L359.792 233.048L360.399 245.439L361.452 246.454L359.755 247.146L350.296 236.923L349.77 237.143ZM355.309 239.994L360.185 245.22L359.798 238.161L355.309 239.994Z" fill="white"/>
<path d="M350.584 249.125L347.369 237.881L346.819 238.038L346.767 237.854L348.106 237.471L348.159 237.655L347.609 237.811L350.919 249.386L351.669 250.004L352.35 249.809L352.401 249.993L349.796 250.737L339.187 241.467L342.387 252.656L342.936 252.498L342.989 252.683L341.65 253.065L341.597 252.881L342.147 252.723L338.849 241.186L337.888 240.39L339.722 239.864L350.584 249.125Z" fill="white"/>
<path d="M336.05 241.034L335.485 241.126L337.531 253.796L338.096 253.705L338.126 253.894L332.871 254.742C327.994 255.53 325.254 253.288 324.622 249.371C323.999 245.511 326.263 242.421 330.312 241.768L336.02 240.848L336.05 241.034ZM330.681 241.901C327.271 242.451 325.863 245.211 326.486 249.069C327.109 252.929 329.488 255.095 332.86 254.551L335.797 254.076L333.751 241.404L330.681 241.901Z" fill="white"/>
<path d="M315.424 243.433L314.853 243.447L315.126 256.292L315.698 256.277L315.701 256.469L312.915 256.529L312.911 256.337L313.483 256.325L313.211 243.481L312.637 243.493L312.635 243.303L315.422 243.241L315.424 243.433Z" fill="white"/>
<path d="M310.323 243.648L309.753 243.611L308.938 256.423L309.509 256.459L309.496 256.649L304.183 256.313C299.25 255.999 297.076 253.204 297.327 249.241C297.577 245.339 300.472 242.828 304.566 243.089L310.336 243.455L310.323 243.648ZM304.898 243.301C301.449 243.082 299.463 245.46 299.213 249.361C298.965 253.264 300.806 255.907 304.215 256.122L307.187 256.313L308.003 243.5L304.898 243.301Z" fill="white"/>
<path d="M285.203 245.757L286.951 240.735L295.898 242.33L295.866 242.518L295.301 242.419L293.047 255.063L293.554 255.153L293.522 255.341L285.252 253.868L285.343 249.54L285.531 249.576L285.523 250.271C285.497 253.136 286.735 253.918 288.892 254.323L291.431 254.776L292.489 248.838L288.258 248.085L287.924 249.964L287.735 249.932L288.44 245.984L288.628 246.017L288.292 247.897L292.523 248.649L293.687 242.13L290.265 241.52C288.253 241.162 286.792 241.852 285.947 244.203L285.392 245.791L285.203 245.757Z" fill="white"/>
<path d="M280.091 251.321L283.351 240.088L282.8 239.928L282.853 239.745L284.192 240.132L284.139 240.316L283.588 240.156L280.234 251.722L280.543 252.646L281.221 252.842L281.168 253.026L278.565 252.271L274.508 238.777L271.264 249.958L271.815 250.116L271.761 250.3L270.423 249.913L270.476 249.728L271.026 249.888L274.37 238.36L273.979 237.173L275.812 237.706L280.091 251.321Z" fill="white"/>
<path d="M271.935 236.513L271.399 236.308L266.846 248.321L267.382 248.522L267.313 248.701L264.707 247.713L264.775 247.534L265.311 247.736L269.865 235.725L269.329 235.525L269.396 235.345L272.005 236.333L271.935 236.513Z" fill="white"/>
<path d="M254.005 238.266L253.583 239.482C252.716 242.047 253.954 242.773 255.111 243.317L256.27 243.861L261.737 232.221L261.219 231.978L261.299 231.804L263.822 232.987L263.741 233.16L263.222 232.916L257.757 244.556L258.931 245.107C260.088 245.649 261.459 246.145 262.86 243.831L263.524 242.73L263.698 242.811L261.483 246.493L252.431 242.246L253.831 238.183L254.005 238.266Z" fill="white"/>
<path d="M242.605 231.506L242.055 232.668C240.918 235.126 242.072 235.982 243.164 236.647L244.256 237.311L250.94 226.324L250.452 226.026L250.552 225.864L252.932 227.312L252.833 227.475L252.343 227.177L245.659 238.163L246.766 238.837C247.861 239.501 249.168 240.142 250.812 237.991L251.591 236.97L251.753 237.067L249.158 240.491L240.613 235.295L242.442 231.405L242.605 231.506Z" fill="white"/>
<path d="M241.118 219.511L240.662 219.162L240.779 219.012L242.978 220.69L242.862 220.842L242.407 220.495L238.871 225.122L237.583 232.979L238.114 233.383L237.998 233.535L235.404 231.554L235.52 231.404L236.203 231.926L237.516 224.449L230.463 227.547L231.147 228.068L231.032 228.219L229.636 227.153L229.752 227.002L230.282 227.408L237.55 224.186L241.118 219.511Z" fill="white"/>
</svg>
