<svg width="440" height="257" viewBox="0 0 440 257" fill="none" xmlns="http://www.w3.org/2000/svg" class="rs">
<g  class="rs__text">
<path d="M8.72985 118.819L8.75163 118.629L9.35459 118.715C12.1475 119.12 14.0476 118.408 14.3933 115.283C14.622 113.218 13.6842 111.984 12.1884 111.818C10.3332 111.614 9.55467 113.443 8.52705 115.286C7.48582 117.243 6.17237 119.053 4.15116 118.945C1.72979 118.83 0.775665 116.538 1.0438 114.114C1.27927 111.992 1.94484 110.82 2.56413 110.083L1.50521 109.946L1.52698 109.756L7.62601 110.604L7.60424 110.794L5.35708 110.487C3.03507 110.153 1.54332 111.331 1.23299 114.134C0.975744 116.463 1.95437 117.492 3.3944 117.652C5.19375 117.85 6.03218 115.988 7.06525 114.109C8.09831 112.228 9.37773 110.357 11.4234 110.583C13.6025 110.826 14.8752 112.654 14.5812 115.305C14.3824 117.104 13.6679 118.367 12.8458 119.215L14.1293 119.396L14.1075 119.587L8.72985 118.819Z" fill="white"/>
<path d="M8.6934 107.346C4.62784 106.414 2.7332 102.912 3.53352 99.4219C4.33384 95.9307 7.62631 93.6754 11.617 94.5914C15.5914 95.502 17.5459 99.0776 16.747 102.567C15.9453 106.059 12.6664 108.258 8.6934 107.346ZM11.1964 96.4302C7.20437 95.5142 4.43048 96.3635 3.73769 99.3906C3.03809 102.435 5.12735 104.576 9.11942 105.49C13.1115 106.406 15.85 105.627 16.5441 102.6C17.2424 99.5553 15.1899 97.3449 11.1964 96.4302Z" fill="white"/>
<path d="M7.96375 88.8856L18.9368 92.8831L19.1328 92.3455L19.3125 92.4108L18.8361 93.7175L18.6564 93.6521L18.8524 93.1145L7.55542 88.9999L6.61491 89.2463L6.374 89.9078L6.19434 89.8424L7.12124 87.3013L20.8355 84.1653L9.91555 80.1869L9.71955 80.7245L9.53989 80.6592L10.0163 79.3525L10.1959 79.4179L9.99993 79.9555L21.2602 84.0578L22.4675 83.7461L21.8155 85.536L7.96375 88.8856Z" fill="white"/>
<path d="M17.3526 78.8613C13.6368 76.9612 12.6582 73.0985 14.2901 69.9081C15.9221 66.7177 19.6678 65.3389 23.3168 67.205C26.9482 69.0628 27.9677 73.0114 26.3357 76.199C24.7038 79.3894 20.9839 80.7205 17.3526 78.8613ZM22.4566 68.8845C18.8076 67.0171 15.9085 67.1614 14.4929 69.9271C13.0692 72.7106 14.5719 75.298 18.2196 77.164C21.8673 79.0314 24.7147 78.9471 26.1316 76.18C27.5553 73.3993 26.1044 70.7506 22.4566 68.8845Z" fill="white"/>
<path d="M37.861 52.0383L37.6486 51.8763L37.7643 51.7252L37.9916 51.8981C39.1731 52.8005 39.7447 53.6226 39.8318 54.2623C40.0768 55.8874 38.5592 57.9672 35.9949 56.6782C33.3286 55.3362 32.1281 54.4909 31.1277 54.6379C30.1545 54.7809 29.4032 55.7649 29.5543 56.8865L35.0653 61.0977L35.4124 60.6431L35.5635 60.7587L33.8743 62.9691L33.7205 62.8548L34.0676 62.4016L23.8785 54.6148L23.5315 55.0694L23.3804 54.9537L27.3248 49.7911C29.1418 47.4133 31.3346 46.7396 33.1816 48.151C34.9986 49.5407 34.9401 51.4367 33.8825 53.481C35.9078 54.5018 36.4346 54.8789 37.6255 55.4546C39.022 56.1379 39.8577 55.264 39.6032 54.1833C39.4439 53.511 38.7402 52.7093 37.861 52.0383ZM33.6484 53.3762C34.2473 51.9648 33.4021 50.6241 32.0559 49.5938C30.2226 48.1946 28.5743 48.4695 27.0825 50.4213L24.8735 53.3136L29.3542 56.7381C29.2643 56.2604 29.2194 55.2205 29.9912 54.1793C30.7656 53.1639 31.8572 52.5827 33.6484 53.3762Z" fill="white"/>
<path d="M49.2897 44.6785L49.4285 44.8105L47.4781 46.8481L47.3406 46.7161L47.7353 46.3023L43.2601 44.4213L39.8247 48.0159L42.0215 52.2788L42.4162 51.865L42.555 51.9971L41.5669 53.0301L41.4281 52.8981L41.8228 52.4843L36.2273 41.4391L34.854 40.945L36.1185 39.6221L48.895 45.0909L49.2897 44.6785ZM43.0831 44.3314L36.5118 41.5548L39.7389 47.8281L43.0831 44.3314Z" fill="white"/>
<path d="M53.0358 41.6899L50.9057 43.4783L50.7818 43.334L51.2201 42.9652L42.9733 33.1395L42.5786 33.4689L42.4561 33.3246L49.4629 27.4434L53.4999 30.9482L53.3543 31.0707L52.0449 29.9559C50.0264 28.29 48.4748 28.5472 46.7843 29.941L44.2282 32.086L48.1005 36.7001L51.6788 33.6976L50.4538 32.2385L50.5994 32.116L53.1733 35.1811L53.0276 35.3036L51.8026 33.8445L48.2257 36.8471L52.4777 41.9131L52.9146 41.5456L53.0358 41.6899Z" fill="white"/>
<path d="M62.7635 34.0819L60.4537 35.6349L60.3475 35.477L60.8226 35.1585L53.666 24.508L53.24 24.7952L53.1338 24.6373L60.73 19.5332L64.3723 23.449L64.2144 23.5552L63.0302 22.3057C61.1982 20.4356 59.6289 20.5254 57.7982 21.7327L55.0284 23.5933L58.3889 28.594L62.2667 25.9888L61.2037 24.4073L61.3616 24.3011L63.5951 27.6235L63.4372 27.7297L62.3742 26.1467L58.4965 28.7518L62.1864 34.2438L62.6614 33.9253L62.7635 34.0819Z" fill="white"/>
<path d="M78.6409 24.4368L78.7308 24.6042L76.255 25.9503L76.1638 25.7829L76.666 25.5107L72.9775 22.3543L68.6084 24.7281L69.4005 29.4592L69.9028 29.187L69.994 29.353L68.7377 30.0363L68.6479 29.8689L69.1487 29.5967L67.1888 17.37L66.0332 16.4812L67.6406 15.6074L78.1387 24.7104L78.6409 24.4368ZM72.8359 22.2141L67.4256 17.5647L68.5839 24.5239L72.8359 22.2141Z" fill="white"/>
<path d="M87.7716 15.172L88.9829 20.34L80.5905 23.7795L80.5183 23.6026L81.0478 23.3862L76.1833 11.5188L75.7069 11.7148L75.6348 11.5379L83.3916 8.3584L85.6292 12.0551L85.4523 12.1286L85.0862 11.5365C83.5753 9.107 82.1135 9.10972 80.0787 9.92229L77.6982 10.8982L79.9821 16.4705L83.9496 14.844L83.2269 13.0814L83.4038 13.0079L84.9215 16.7114L84.7445 16.7835L84.0218 15.0209L80.0556 16.6461L82.5627 22.7641L85.7721 21.4493C87.6586 20.6762 88.5215 19.3138 87.9757 16.8802L87.5946 15.2455L87.7716 15.172Z" fill="white"/>
<path d="M91.6792 19.1881L92.1733 19.0438L88.5528 6.74365L88.0043 6.90426L87.9512 6.72187L90.6203 5.93652L90.6734 6.12027L90.1248 6.27952L93.7453 18.5797L96.3954 17.7998C98.4914 17.1628 99.6184 15.9977 99.3122 13.4048L99.1012 11.7402L99.2836 11.6858L99.9587 16.9477L91.735 19.3677L91.6792 19.1881Z" fill="white"/>
<path d="M111.533 9.29636L111.662 14.6005L102.745 16.2515L102.711 16.0637L103.274 15.9589L100.938 3.35114L100.433 3.44505L100.399 3.25722L108.642 1.73145L110.075 5.80518L109.887 5.84057L109.649 5.18724C108.668 2.50046 107.238 2.2051 105.08 2.58485L102.551 3.05306L103.648 8.97379L107.863 8.19388L107.516 6.31967L107.704 6.28564L108.432 10.2205L108.244 10.2546L107.897 8.38035L103.682 9.16162L104.886 15.6608L108.296 15.0293C110.301 14.659 111.422 13.5008 111.387 11.0086L111.348 9.33039L111.533 9.29636Z" fill="white"/>
<path d="M121.349 8.36524L121.54 8.35979L121.537 8.96956C121.515 11.7911 122.476 13.5768 125.619 13.4938C127.694 13.4394 128.79 12.3423 128.752 10.8397C128.703 8.97228 126.784 8.45099 124.819 7.68333C122.741 6.9184 120.769 5.86492 120.602 3.84915C120.387 1.43595 122.525 0.178302 124.963 0.114331C127.096 0.0585267 128.348 0.559407 129.162 1.07118L129.154 0.00544435L129.344 0L129.333 6.15483L129.143 6.16028L129.141 3.89271C129.156 1.54756 127.788 0.231385 124.97 0.303522C122.627 0.366132 121.741 1.47406 121.779 2.92225C121.825 4.73114 123.785 5.3096 125.788 6.07589C127.79 6.84218 129.816 7.85755 129.871 9.91416C129.928 12.1028 128.291 13.6149 125.624 13.6844C123.815 13.732 122.468 13.1957 121.514 12.4961L121.51 13.7919L121.319 13.7973L121.349 8.36524Z" fill="white"/>
<path d="M142.669 13.9965L142.656 14.187L139.844 13.9815L139.857 13.7909L140.427 13.8331L139.03 9.18367L134.07 8.82026L132.179 13.2275L132.75 13.2697L132.736 13.4602L131.31 13.3554L131.325 13.1648L131.895 13.207L136.853 1.8583L136.361 0.486328L138.184 0.619715L142.099 13.9556L142.669 13.9965ZM138.986 8.98904L136.946 2.15366L134.158 8.63651L138.986 8.98904Z" fill="white"/>
<path d="M155.481 12.8347C155.024 15.2888 152.948 16.0265 149.519 15.3881L144.63 14.4775L144.664 14.2897L145.227 14.3945L147.576 1.78541L147.014 1.68197L147.048 1.49414L151.449 2.31488C154.596 2.9015 156.671 4.04346 156.239 6.36683C155.9 8.18388 154.261 9.17611 152.051 8.76507L152.031 8.87804C154.223 9.285 155.844 10.8856 155.481 12.8347ZM153.645 12.4931C154.031 10.4133 152.994 9.11623 150.297 8.61262L148.105 8.2043L146.894 14.7035L149.273 15.1472C151.767 15.6127 153.223 14.7593 153.645 12.4931ZM148.141 8.01783L150.09 8.38124C152.413 8.8127 153.989 8.25466 154.408 6.00614C154.828 3.75899 153.552 2.9015 151.154 2.45507L149.244 2.09846L148.141 8.01783Z" fill="white"/>
<path d="M167.939 14.7393L165.635 19.5194L156.944 16.9197L156.999 16.7374L157.546 16.9007L161.222 4.61552L160.73 4.46852L160.784 4.28613L168.816 6.68981L168.23 10.9704L168.048 10.916L168.135 10.2259C168.486 7.38805 167.348 6.46932 165.255 5.82416L162.79 5.08645L161.063 10.8547L165.172 12.0838L165.718 10.2586L165.9 10.313L164.753 14.1458L164.571 14.0914L165.115 12.2648L161.007 11.0371L159.111 17.3716L162.434 18.3652C164.388 18.9491 165.915 18.4319 167.02 16.1956L167.751 14.6848L167.939 14.7393Z" fill="white"/>
<path d="M168.472 20.3287L168.947 20.5274L173.868 8.68866L173.34 8.46953L173.413 8.29395L175.982 9.36104L175.908 9.53662L175.38 9.31748L170.46 21.1562L173.01 22.2151C175.041 23.0372 176.65 22.8412 178.041 20.6336L178.923 19.2058L179.098 19.2793L176.314 23.794L168.399 20.5056L168.472 20.3287Z" fill="white"/>
<path d="M179.092 24.8919L179.545 25.1369L185.64 13.8576L185.136 13.5854L185.226 13.418L187.673 14.7409L187.584 14.9084L187.081 14.6361L180.986 25.9168L183.416 27.2289C185.353 28.2538 186.974 28.2211 188.581 26.1659L189.603 24.8334L189.772 24.9246L186.544 29.1344L179.002 25.0607L179.092 24.8919Z" fill="white"/>
<path d="M198.085 36.5617L197.978 36.7182L195.65 35.1231L195.758 34.9652L196.23 35.2891L197.365 30.5661L193.26 27.7528L189.406 30.6111L189.878 30.9336L189.77 31.0915L188.592 30.283L188.699 30.1251L189.172 30.4491L199.176 23.14L199.442 21.7041L200.95 22.7399L197.614 36.2364L198.085 36.5617ZM197.424 30.3769L199.105 23.4408L193.43 27.6384L197.424 30.3769Z" fill="white"/>
<path d="M201.783 37.0919C202.245 37.4608 202.321 38.159 201.937 38.634C201.567 39.0941 200.87 39.1703 200.41 38.8001C199.935 38.4176 199.874 37.733 200.244 37.2729C200.627 36.7965 201.308 36.7094 201.783 37.0919Z" fill="white"/>
<path d="M212.224 42.1903L212.356 42.3291L211.904 42.7375C209.806 44.6239 209.136 46.5376 211.315 48.8025C212.755 50.2996 214.303 50.3691 215.387 49.3265C216.732 48.0321 215.823 46.2627 215.066 44.2945C214.231 42.2434 213.679 40.0779 215.055 38.5943C216.693 36.8086 219.062 37.5408 220.754 39.298C222.234 40.836 222.709 42.0977 222.879 43.0437L223.662 42.3182L223.794 42.4557L219.241 46.5989L219.107 46.4614L220.78 44.9302C222.521 43.3608 222.571 41.4621 220.617 39.43C218.993 37.7423 217.576 37.8362 216.532 38.8393C215.228 40.0942 216.122 41.9303 216.905 43.9257C217.689 45.921 218.307 48.1015 216.823 49.5279C215.246 51.0469 213.026 50.8577 211.178 48.9345C209.921 47.6292 209.41 46.2722 209.283 45.0989L208.323 45.97L208.191 45.8312L212.224 42.1903Z" fill="white"/>
<path d="M221.045 49.4763C224.362 46.9433 228.266 47.7232 230.44 50.5693C232.615 53.4166 232.246 57.391 228.992 59.8777C225.753 62.3522 221.752 61.5736 219.577 58.7262C217.401 55.8802 217.805 51.9508 221.045 49.4763ZM227.847 58.3778C231.103 55.8911 232.222 53.2138 230.335 50.7462C228.438 48.2636 225.457 48.5031 222.202 50.9912C218.946 53.4779 217.796 56.083 219.681 58.552C221.579 61.0333 224.592 60.8645 227.847 58.3778Z" fill="white"/>
<path d="M235.745 60.7583L225.663 66.6532L225.952 67.1459L225.787 67.2426L225.085 66.0407L225.25 65.9455L225.538 66.4382L235.916 60.3704L236.329 59.4912L235.972 58.8828L236.137 58.7861L237.504 61.1231L231.161 73.6805L241.195 67.8142L240.906 67.3215L241.07 67.2262L241.773 68.4267L241.609 68.522L241.32 68.0293L230.973 74.0779L230.439 75.2049L229.479 73.5607L235.745 60.7583Z" fill="white"/>
<path d="M237.455 74.3559C241.288 72.7103 244.885 74.4212 246.298 77.7123C247.712 81.0048 246.383 84.7682 242.619 86.3838C238.873 87.9939 235.184 86.2599 233.771 82.9674C232.358 79.6763 233.708 75.9647 237.455 74.3559ZM241.875 84.6497C245.639 83.0328 247.379 80.7108 246.154 77.8579C244.922 74.986 241.971 74.4892 238.207 76.1076C234.442 77.7245 232.69 79.969 233.916 82.8232C235.148 85.6937 238.111 86.2681 241.875 84.6497Z" fill="white"/>
<path d="M243.929 96.6176L247.307 95.839L251.93 94.7747L251.801 94.218L251.988 94.1758L252.697 97.2573L252.51 97.3008L252.298 96.3712L247.674 97.4369L244.793 98.0821C241.766 98.779 240.372 100.704 240.937 103.155C241.398 105.161 243.55 106.268 245.871 105.734L249.399 104.92L254.022 103.856L253.809 102.926L253.994 102.884L254.397 104.629L254.21 104.671L254.082 104.114L249.46 105.18L245.931 105.993C243.463 106.562 240.817 105.353 240.128 102.364C239.509 99.6705 240.884 97.3199 243.929 96.6176Z" fill="white"/>
<path d="M253.848 109.654L242.238 110.965L242.302 111.534L242.113 111.556L241.956 110.171L242.147 110.15L242.211 110.719L254.162 109.368L254.895 108.73L254.816 108.028L255.005 108.006L255.31 110.697L244.424 119.619L255.978 118.313L255.913 117.746L256.103 117.723L256.258 119.107L256.069 119.129L256.005 118.56L244.09 119.906L243.147 120.722L242.935 118.828L253.848 109.654Z" fill="white"/>
<path d="M243.603 129.41L243.569 129.981L256.371 130.778L256.407 130.207L256.597 130.22L256.266 135.526C255.96 140.454 253.171 142.629 249.213 142.382C245.314 142.14 242.8 139.252 243.054 135.162L243.414 129.397L243.603 129.41ZM243.267 134.832C243.052 138.276 245.431 140.258 249.33 140.5C253.23 140.743 255.866 138.901 256.077 135.496L256.262 132.528L243.46 131.73L243.267 134.832Z" fill="white"/>
<path d="M245.682 154.748L240.671 152.998L242.273 144.07L242.461 144.104L242.36 144.666L254.982 146.93L255.072 146.424L255.26 146.458L253.78 154.709L249.46 154.612L249.494 154.424L250.189 154.432C253.049 154.461 253.832 153.228 254.237 151.074L254.692 148.543L248.766 147.48L248.008 151.701L249.883 152.037L249.851 152.225L245.912 151.517L245.944 151.329L247.82 151.665L248.577 147.446L242.071 146.278L241.458 149.692C241.097 151.699 241.785 153.157 244.13 154.004L245.714 154.559L245.682 154.748Z" fill="white"/>
<path d="M244.906 157.79L244.853 157.974L244.272 157.786C241.586 156.912 239.592 157.292 238.724 160.313C238.148 162.31 238.864 163.686 240.31 164.103C242.105 164.62 243.182 162.946 244.509 161.304C245.866 159.552 247.466 157.99 249.44 158.44C251.808 158.963 252.361 161.383 251.684 163.728C251.094 165.781 250.239 166.823 249.502 167.444L250.523 167.757L250.47 167.941L244.601 166.072L244.654 165.888L246.818 166.572C249.051 167.293 250.719 166.385 251.501 163.675C252.15 161.423 251.359 160.242 249.965 159.841C248.226 159.34 247.082 161.035 245.746 162.713C244.411 164.39 242.829 166.019 240.851 165.449C238.744 164.843 237.798 162.824 238.538 160.26C239.038 158.521 239.957 157.396 240.911 156.7L239.677 156.303L239.73 156.121L244.906 157.79Z" fill="white"/>
<path d="M236.775 166.98L236.576 167.516L248.597 171.975L248.796 171.437L248.975 171.504L248.008 174.112L247.829 174.045L248.028 173.509L236.008 169.051L235.81 169.588L235.631 169.521L236.598 166.913L236.775 166.98Z" fill="white"/>
<path d="M233.917 185.829L234.172 185.296L229.521 183.099L229.603 182.926C229.603 182.926 231.797 184.036 231.821 182.613C231.829 181.624 230.843 179.887 231.793 177.893C233.557 174.195 237.18 172.883 240.86 174.639C244.626 176.435 245.621 180.456 243.94 183.981C243.046 185.855 242.027 186.932 240.921 187.608L241.823 187.976L241.741 188.147L237.773 186.551L237.856 186.378L238.388 186.59C240.853 187.576 242.635 186.273 243.751 183.933C245.252 180.787 243.788 178.146 240.039 176.359C236.341 174.595 233.474 174.81 231.98 177.939C231.447 179.057 231.575 180.427 231.978 181.485C232.265 182.212 232.803 182.808 234.007 183.382L234.885 183.801L235.131 183.284L235.303 183.367L234.089 185.912L233.917 185.829Z" fill="white"/>
<path d="M237.575 192.757L227.735 186.468L227.426 186.949L227.265 186.847L228.015 185.677L228.176 185.779L227.867 186.261L237.996 192.735L238.969 192.701L239.347 192.107L239.508 192.209L238.052 194.488L223.983 194.566L233.776 200.824L234.084 200.342L234.245 200.445L233.496 201.616L233.335 201.513L233.644 201.031L223.545 194.578L222.3 194.618L223.325 193.012L237.575 192.757Z" fill="white"/>
<path d="M218.8 207.465L215.242 203.527L220.926 196.459L221.074 196.579L220.716 197.024L230.71 205.061L231.032 204.66L231.181 204.779L225.927 211.313L222.182 209.158L222.301 209.01L222.906 209.351C225.404 210.746 226.681 210.039 228.07 208.344L229.683 206.338L224.99 202.565L222.304 205.906L223.788 207.1L223.669 207.248L220.55 204.74L220.67 204.593L222.155 205.787L224.843 202.446L219.69 198.302L217.517 201.004C216.24 202.593 216.142 204.204 217.796 206.07L218.92 207.318L218.8 207.465Z" fill="white"/>
<path d="M207.973 215.976L208.162 216.165L208.026 216.301L207.825 216.099C206.775 215.046 206.319 214.155 206.321 213.508C206.295 211.864 208.078 210.008 210.447 211.629C212.912 213.317 213.989 214.317 214.999 214.305C215.983 214.292 216.861 213.419 216.862 212.286L211.962 207.373L211.558 207.777L211.423 207.641L213.393 205.677L213.529 205.812L213.123 206.216L222.18 215.301L222.586 214.897L222.72 215.033L218.117 219.622C215.997 221.735 213.732 222.109 212.09 220.462C210.475 218.843 210.788 216.97 212.112 215.083C210.241 213.801 209.77 213.355 208.666 212.625C207.374 211.759 206.428 212.514 206.536 213.619C206.601 214.302 207.192 215.193 207.973 215.976ZM212.327 215.214C211.544 216.534 212.202 217.977 213.4 219.179C215.027 220.812 216.7 220.76 218.441 219.025L221.02 216.454L217.036 212.458C217.062 212.942 216.966 213.981 216.062 214.909C215.157 215.813 213.997 216.242 212.327 215.214Z" fill="white"/>
<path d="M199.083 219.209L198.613 219.535L205.937 230.059L206.407 229.734L206.516 229.889L202.152 232.926C198.102 235.743 194.666 234.909 192.403 231.654C190.171 228.45 190.873 224.688 194.236 222.347L198.974 219.051L199.083 219.209ZM194.627 222.311C191.796 224.28 191.719 227.374 193.952 230.579C196.182 233.785 199.26 234.706 202.06 232.76L204.5 231.061L197.176 220.537L194.627 222.311Z" fill="white"/>
<path d="M180.495 236.574L178.762 231.557L186.76 227.276L186.848 227.444L186.345 227.713L192.396 239.021L192.851 238.779L192.939 238.946L185.547 242.903L182.945 239.454L183.112 239.366L183.537 239.915C185.289 242.178 186.741 242.026 188.683 241.01L190.951 239.794L188.109 234.486L184.329 236.509L185.229 238.188L185.06 238.278L183.172 234.749L183.34 234.66L184.239 236.34L188.019 234.316L184.898 228.486L181.841 230.124C180.043 231.085 179.323 232.53 180.114 234.894L180.661 236.483L180.495 236.574Z" fill="white"/>
<path d="M176.156 233.008L175.678 233.204L180.543 245.071L181.072 244.854L181.144 245.03L178.569 246.085L178.497 245.908L179.027 245.692L174.163 233.826L171.606 234.874C169.586 235.723 168.584 236.998 169.155 239.545L169.536 241.18L169.359 241.253L168.147 236.085L176.081 232.832L176.156 233.008Z" fill="white"/>
<path d="M165.433 237.259L164.94 237.404L168.588 249.704L169.136 249.542L169.191 249.725L166.522 250.517L166.467 250.333L167.016 250.171L163.367 237.871L160.718 238.656C158.621 239.299 157.496 240.467 157.807 243.058L158.023 244.725L157.839 244.779L157.153 239.515L165.377 237.076L165.433 237.259Z" fill="white"/>
<path d="M143.742 242.367L143.709 242.179L146.48 241.671L146.514 241.859L145.952 241.963L148.474 246.109L153.363 245.216L154.083 240.476L153.521 240.578L153.487 240.391L154.893 240.135L154.926 240.323L154.364 240.425L152.419 252.649L153.239 253.853L151.441 254.183L144.305 242.265L143.742 242.367ZM148.564 246.287L152.254 252.387L153.321 245.416L148.564 246.287Z" fill="white"/>
<path d="M122.291 247.478C122.633 246.215 123.716 244.884 124.771 244.199C125.789 243.516 126.659 243.102 128.447 243.053C132.541 242.929 135.515 245.453 135.586 249.717C135.658 254.079 132.496 256.569 128.593 256.633C127.203 256.656 126.171 256.463 124.538 255.67C124.345 255.579 124.056 255.374 124.056 255.374L124.265 256.513L124.056 256.517L122.95 250.591L123.14 250.587C123.886 254.214 125.79 256.487 128.552 256.442C131.981 256.386 133.751 254.033 133.682 249.748C133.613 245.464 131.955 243.185 128.489 243.242C125.69 243.287 123.357 245.08 122.483 247.474L122.291 247.478Z" fill="white"/>
<path d="M119.544 249.493C119.02 253.632 115.724 255.865 112.171 255.416C108.619 254.967 106.046 251.915 106.561 247.851C107.071 243.806 110.434 241.506 113.987 241.955C117.541 242.404 120.055 245.448 119.544 249.493ZM108.431 248.087C107.918 252.15 109.038 254.827 112.119 255.216C115.219 255.607 117.14 253.316 117.654 249.252C118.167 245.188 117.119 242.54 114.039 242.151C110.938 241.76 108.945 244.024 108.431 248.087Z" fill="white"/>
<path d="M87.2615 249.487L90.686 237.131L90.1361 236.979L90.1865 236.795L92.8678 237.538L92.8174 237.722L92.2662 237.569L88.9343 249.595L97.1702 241.063L96.6503 238.586L98.3026 239.045L101.183 251.764L104.2 240.877L103.467 240.674L103.517 240.49L105.041 240.914L104.99 241.097L104.44 240.945L101.305 252.255L101.565 253.455L102.225 253.638L102.175 253.822L99.7522 253.15L97.2273 241.36L88.7927 250.113L86.6626 249.522L86.7143 249.339L87.2615 249.487Z" fill="white"/>
<path d="M85.7302 240.091L84.3623 243.277L82.4895 247.637L83.0149 247.863L82.94 248.038L80.0327 246.79L80.1089 246.615L80.9855 246.99L82.857 242.631L84.0398 239.925C85.2647 237.071 84.5352 234.809 82.2254 233.816C80.3335 233.005 78.1694 234.086 77.2289 236.276L75.8011 239.602L73.9282 243.96L74.8048 244.336L74.7286 244.512L73.083 243.804L73.1592 243.63L73.6846 243.854L75.5561 239.495L76.9852 236.17C77.9843 233.841 80.5241 232.421 83.3415 233.633C85.8786 234.723 86.9634 237.22 85.7302 240.091Z" fill="white"/>
<path d="M69.3307 240.371L75.1371 230.238L74.6416 229.954L74.7355 229.789L75.9428 230.48L75.8489 230.646L75.3521 230.362L69.3769 240.793L69.4586 241.762L70.0697 242.113L69.9758 242.278L67.6279 240.933L66.8698 226.887L61.0934 236.971L61.5888 237.254L61.4949 237.42L60.2876 236.729L60.3815 236.563L60.877 236.847L66.8344 226.449L66.7337 225.206L68.3874 226.152L69.3307 240.371Z" fill="white"/>
<path d="M64.6297 223.916L64.1574 223.594L56.9041 234.16L57.3751 234.484L57.2676 234.64L54.9741 233.067L55.0817 232.911L55.5539 233.233L62.8072 222.666L62.3362 222.343L62.4438 222.187L64.7372 223.76L64.6297 223.916Z" fill="white"/>
<path d="M47.3916 215.767C48.4737 215.03 50.1642 214.724 51.4109 214.893C52.6291 215.036 53.5587 215.289 54.9497 216.417C58.1388 218.991 58.754 222.844 56.0277 226.129C53.2402 229.486 49.2196 229.319 46.2129 226.824C45.1431 225.935 44.4843 225.117 43.7616 223.451C43.6772 223.255 43.5901 222.912 43.5901 222.912L43.0062 223.913L42.8442 223.778L45.8659 218.558L46.0115 218.681C44.2149 221.92 44.1781 224.887 46.3055 226.65C48.9433 228.84 51.822 228.208 54.5605 224.909C57.299 221.61 57.5249 218.802 54.8558 216.587C52.7012 214.799 49.764 214.637 47.5373 215.886L47.3916 215.767Z" fill="white"/>
<path d="M41.6976 203.924L41.8351 203.791L43.7923 205.823L43.6548 205.956L43.2574 205.544L41.194 209.94L44.6471 213.524L48.9984 211.502L48.601 211.089L48.7398 210.957L49.7321 211.986L49.5946 212.119L49.1972 211.707L37.9246 216.851L37.3748 218.202L36.1035 216.885L42.0937 204.334L41.6976 203.924ZM41.0987 210.116L38.054 216.572L44.4592 213.602L41.0987 210.116Z" fill="white"/>
<path d="M25.4235 203.94L27.4828 206.614C28.8466 208.353 30.5466 208.967 32.7271 207.674L34.6857 206.502L34.8027 206.652L29.6578 209.748L24.0161 202.425L39.2371 200.853L36.8185 197.712C35.4697 195.962 33.1681 196.002 31.381 196.993L29.7626 197.952L29.6469 197.802L34.7619 194.729L40.6336 202.353L25.4235 203.94Z" fill="white"/>
<path d="M32.8087 192.1L32.497 191.62L21.7498 198.624L22.0615 199.103L21.9023 199.207L20.3833 196.875L20.5439 196.772L20.8556 197.251L31.6041 190.248L31.2924 189.769L31.4517 189.664L32.9706 191.997L32.8087 192.1Z" fill="white"/>
<path d="M24.1878 190.772C20.4992 192.724 16.7767 191.309 15.1012 188.141C13.4257 184.974 14.4465 181.115 18.067 179.2C21.6711 177.295 25.489 178.723 27.1645 181.891C28.8386 185.057 27.7933 188.865 24.1878 190.772ZM18.9503 180.869C15.3298 182.784 13.7823 185.241 15.2359 187.986C16.6964 190.749 19.6785 191.005 23.299 189.09C26.9209 187.174 28.4861 184.794 27.0325 182.048C25.5707 179.285 22.5708 178.954 18.9503 180.869Z" fill="white"/>
<path d="M11.5652 177.269L22.477 173.118L22.2742 172.583L22.4525 172.516L22.9466 173.815L22.7683 173.883L22.5655 173.348L11.3324 177.622L10.7825 178.423L11.033 179.081L10.8547 179.149L9.89374 176.623L18.2141 165.288L7.35532 169.417L7.55812 169.952L7.37982 170.02L6.88574 168.72L7.06404 168.652L7.26685 169.187L18.4631 164.928L19.1723 163.903L19.8501 165.685L11.5652 177.269Z" fill="white"/>
<path d="M10.9688 153.453L16.2511 152.951L18.5241 161.73L18.339 161.778L18.1975 161.224L5.78574 164.439L5.91504 164.937L5.72994 164.985L3.62842 156.87L7.5919 155.153L7.63954 155.339L7.00391 155.62C4.39335 156.788 4.19735 158.236 4.72954 160.362L5.37469 162.852L11.2015 161.342L10.1276 157.192L8.28333 157.671L8.2357 157.486L12.1093 156.483L12.157 156.668L10.3127 157.146L11.388 161.296L17.7878 159.638L16.9181 156.282C16.4063 154.308 15.1732 153.27 12.6892 153.479L11.0178 153.637L10.9688 153.453Z" fill="white"/>
<path d="M7.79331 136.281C7.74568 135.558 8.31461 134.909 9.0564 134.86C9.77914 134.814 10.4093 135.384 10.4556 136.105C10.5046 136.849 9.95336 137.476 9.23062 137.524C8.48883 137.571 7.84095 137.023 7.79331 136.281Z" fill="white"/>
<path d="M207.393 187.733L207.304 187.566L207.853 187.297C210.389 186.061 211.562 184.406 210.091 181.625C209.117 179.789 207.649 179.295 206.319 180C204.667 180.874 205.053 182.825 205.24 184.928C205.479 187.13 205.411 189.365 203.68 190.412C201.611 191.682 199.534 190.322 198.393 188.166C197.394 186.28 197.286 184.935 197.382 183.978L196.429 184.46L196.342 184.291L201.863 181.562L201.953 181.731L199.921 182.741C197.812 183.771 197.241 185.584 198.562 188.076C199.659 190.148 201.048 190.449 202.328 189.771C203.929 188.923 203.574 186.91 203.372 184.774C203.168 182.639 203.175 180.371 204.993 179.409C206.93 178.381 209.013 179.178 210.262 181.536C211.109 183.136 211.227 184.582 211.026 185.746L212.188 185.175L212.277 185.343L207.393 187.733Z" fill="white"/>
<path d="M203.073 166.373L203.25 166.3L204.316 168.913L204.139 168.985L203.924 168.456L200.379 171.775L202.262 176.383L207.051 176.113L206.836 175.584L207.012 175.51L207.552 176.836L207.375 176.907L207.16 176.377L194.785 176.983L193.775 178.034L193.084 176.341L203.291 166.901L203.073 166.373ZM200.223 171.902L195.007 176.771L202.055 176.384L200.223 171.902Z" fill="white"/>
<path d="M196.415 155.758C198.815 155.068 200.403 156.594 201.368 159.946L202.741 164.728L202.558 164.781L202.4 164.231L190.071 167.774L190.228 168.323L190.045 168.374L188.808 164.071C187.925 160.993 188.019 158.626 190.289 157.974C192.066 157.465 193.689 158.485 194.309 160.647L194.418 160.616C193.803 158.471 194.51 156.304 196.415 155.758ZM195.392 164.479L194.844 162.575C194.192 160.302 192.985 159.143 190.787 159.774C188.59 160.405 188.393 161.93 189.068 164.273L189.604 166.142L195.392 164.479ZM196.931 157.552C194.897 158.136 194.201 159.644 194.959 162.283L195.574 164.426L201.932 162.601L201.262 160.273C200.562 157.837 199.148 156.915 196.931 157.552Z" fill="white"/>
<path d="M199.351 152.75L199.236 152.191L186.674 154.772L186.79 155.332L186.603 155.37L186.044 152.647L186.23 152.609L186.346 153.167L198.906 150.586L198.791 150.025L198.977 149.987L199.538 152.712L199.351 152.75Z" fill="white"/>
<path d="M192.604 135.247C193.895 135.463 195.328 136.412 196.112 137.396C196.893 138.342 197.389 139.168 197.615 140.946C198.139 145.01 195.919 148.221 191.677 148.708C187.34 149.205 184.551 146.302 184.106 142.421C183.947 141.037 184.038 139.993 184.667 138.289C184.74 138.09 184.916 137.781 184.916 137.781L183.801 138.1L183.776 137.892L189.569 136.211L189.592 136.4C186.052 137.498 183.975 139.616 184.289 142.361C184.683 145.772 187.2 147.304 191.46 146.815C195.721 146.326 197.827 144.452 197.431 141.004C197.112 138.221 195.099 136.073 192.629 135.436L192.604 135.247Z" fill="white"/>
<path d="M191.679 122.931L196.919 123.776L196.908 132.843L196.717 132.842V132.272L183.895 132.257V132.771H183.704L183.712 124.388L187.981 123.728L187.982 123.917L187.295 124.03C184.474 124.505 183.921 125.856 183.9 128.048L183.896 130.621L189.917 130.628L189.923 126.342L188.019 126.337L188.017 126.147L192.019 126.151L192.018 126.343L190.113 126.34L190.108 130.626L196.72 130.634L196.724 127.166C196.726 125.127 195.793 123.811 193.335 123.391L191.679 123.123V122.931Z" fill="white"/>
<path d="M195.009 119.902C195.049 119.31 195.581 118.853 196.188 118.895C196.777 118.937 197.237 119.467 197.195 120.058C197.153 120.666 196.625 121.107 196.034 121.065C195.427 121.02 194.967 120.511 195.009 119.902Z" fill="white"/>
<path d="M195.049 103.146C196.236 103.697 197.363 104.993 197.857 106.151C198.355 107.27 198.616 108.198 198.357 109.971C197.778 114.027 194.785 116.529 190.567 115.868C186.255 115.192 184.34 111.651 184.945 107.792C185.16 106.418 185.526 105.433 186.587 103.961C186.711 103.788 186.961 103.536 186.961 103.536L185.801 103.548L185.833 103.342L191.864 103.264L191.835 103.452C188.133 103.566 185.567 105.056 185.139 107.785C184.608 111.175 186.625 113.321 190.859 113.987C195.095 114.649 197.624 113.405 198.161 109.981C198.594 107.214 197.228 104.609 195.016 103.335L195.049 103.146Z" fill="white"/>
<path d="M193.346 100.398C189.341 99.2327 187.651 95.6258 188.653 92.1877C189.652 88.751 193.069 86.6916 197.001 87.835C200.917 88.9742 202.659 92.6559 201.66 96.0913C200.659 99.5294 197.259 101.536 193.346 100.398ZM196.475 89.6438C192.542 88.5005 189.724 89.1879 188.856 92.1673C187.984 95.1671 189.945 97.4225 193.877 98.5671C197.809 99.7104 200.587 99.0925 201.454 96.109C202.329 93.1133 200.406 90.7885 196.475 89.6438Z" fill="white"/>
<path d="M198.246 68.7998L209.93 74.0836L210.165 73.5623L210.339 73.6412L209.193 76.1769L209.019 76.0966L209.255 75.574L197.884 70.4345L205.049 79.8832L207.575 79.7498L206.867 81.3123L193.857 82.2025L204.149 86.856L204.464 86.1619L204.636 86.2408L203.984 87.6822L203.812 87.6046L204.047 87.082L193.354 82.2474L192.132 82.3209L191.848 82.9456L191.675 82.8667L192.712 80.5746L204.749 79.8913L197.398 70.2126L198.309 68.1982L198.482 68.2772L198.246 68.7998Z" fill="white"/>
<path d="M210.241 69.8609C210.535 69.3491 211.211 69.1654 211.741 69.4702C212.251 69.7642 212.435 70.4407 212.141 70.9511C211.838 71.4806 211.171 71.648 210.659 71.354C210.129 71.0491 209.938 70.3903 210.241 69.8609Z" fill="white"/>
<path d="M246.19 33.4716L246.307 33.6214L244.072 35.3418L243.956 35.1907L244.41 34.8422L240.271 32.3093L236.33 35.3431L237.859 39.8878L238.311 39.538L238.429 39.6891L237.295 40.5615L237.18 40.4104L237.633 40.062L233.77 28.3009L232.489 27.604L233.936 26.4893L245.735 33.8214L246.19 33.4716ZM240.109 32.1908L234.034 28.456L236.276 35.1444L240.109 32.1908Z" fill="white"/>
<path d="M255.404 23.9791L255.265 23.7504L255.428 23.6538L255.575 23.8988C256.343 25.1714 256.576 26.1405 256.422 26.7693C256.053 28.3713 253.883 29.7501 251.968 27.6159C249.977 25.3892 249.17 24.1642 248.186 23.9355C247.229 23.7137 246.169 24.3548 245.898 25.4532L249.486 31.3861L249.974 31.0894L250.074 31.2527L247.693 32.6914L247.594 32.5294L248.082 32.2341L241.449 21.2624L240.96 21.5591L240.863 21.3958L246.421 18.0339C248.979 16.4863 251.267 16.6605 252.469 18.6504C253.652 20.6063 252.903 22.3499 251.171 23.8648C252.682 25.5552 253.034 26.101 253.932 27.0701C254.982 28.2162 256.077 27.7085 256.238 26.6101C256.339 25.9309 255.975 24.9251 255.404 23.9791ZM250.995 23.6837C252.07 22.5881 251.774 21.0324 250.896 19.5801C249.705 17.6079 248.07 17.2608 245.966 18.5307L242.853 20.4144L245.771 25.2408C245.86 24.7617 246.199 23.7777 247.3 23.0917C248.391 22.4329 249.618 22.2914 250.995 23.6837Z" fill="white"/>
<path d="M264.517 13.6242L263.86 12.5217C262.455 10.2133 261.104 10.6924 259.944 11.2273L258.786 11.7649L264.18 23.4158L264.698 23.1763L264.779 23.3491L262.255 24.5169L262.175 24.3427L262.693 24.1032L257.301 12.4523L256.125 12.9953C254.965 13.533 253.71 14.2625 254.577 16.82L254.994 18.0341L254.821 18.1144L253.426 14.0597L262.484 9.86621L264.691 13.5452L264.517 13.6242Z" fill="white"/>
<path d="M275.743 18.7366L276.294 18.5883L272.963 6.19967L272.413 6.34939L272.362 6.16428L277.496 4.78278C282.264 3.502 285.218 5.45107 286.247 9.27981C287.261 13.0514 285.327 16.3561 281.37 17.4191L275.792 18.919L275.743 18.7366ZM280.99 17.3252C284.319 16.4296 285.441 13.5441 284.424 9.76844C283.41 5.99687 280.824 4.0859 277.529 4.97333L274.658 5.74371L277.99 18.1323L280.99 17.3252Z" fill="white"/>
<path d="M289.927 15.2283L290.492 15.1289L288.23 2.50484L287.666 2.60556L287.634 2.41773L290.374 1.92773L290.406 2.11693L289.843 2.21628L292.105 14.8404L292.667 14.7396L292.7 14.9275L289.963 15.4175L289.927 15.2283Z" fill="white"/>
<path d="M305.7 9.90623L305.673 9.64218L305.862 9.62176L305.891 9.90759C306.035 11.3857 305.827 12.3644 305.415 12.8639C304.392 14.1528 301.836 14.4604 301.031 11.7056C300.193 8.83914 299.992 7.38413 299.203 6.75259C298.434 6.1401 297.2 6.26124 296.483 7.13506L297.161 14.0385L297.73 13.9827L297.75 14.1719L294.982 14.4441L294.961 14.2549L295.53 14.1991L294.275 1.43483L293.705 1.49063L293.688 1.29872L300.155 0.664451C303.132 0.370456 305.121 1.51649 305.349 3.83034C305.573 6.10607 304.143 7.35691 301.926 7.97757C302.563 10.1567 302.643 10.7977 303.035 12.0608C303.489 13.5499 304.696 13.5635 305.314 12.642C305.702 12.069 305.808 11.006 305.7 9.90623ZM301.849 7.73938C303.291 7.21536 303.696 5.68142 303.528 3.99367C303.304 1.69888 301.977 0.679423 299.529 0.920335L295.907 1.27694L296.46 6.89142C296.746 6.49943 297.477 5.75628 298.766 5.612C300.037 5.48542 301.206 5.88694 301.849 7.73938Z" fill="white"/>
<path d="M317.936 8.17642L317.054 13.4071L307.988 13.3268L307.99 13.1362L308.561 13.1417L308.674 0.324311L308.159 0.318866L308.162 0.126953L316.539 0.201813L317.169 4.4729H316.979L316.87 3.78555C316.419 0.96266 315.072 0.39917 312.882 0.359699L310.31 0.33656L310.256 6.35529L314.541 6.39203L314.559 4.48924L314.749 4.4906L314.715 8.48947L314.523 8.48675L314.54 6.58259L310.256 6.54584L310.198 13.1539L313.666 13.1839C315.702 13.2015 317.027 12.2801 317.466 9.82606L317.748 8.17234L317.936 8.17642Z" fill="white"/>
<path d="M333.031 10.7732C332.517 11.9764 331.258 13.1442 330.116 13.6723C329.013 14.2086 328.096 14.4958 326.316 14.2943C322.246 13.8452 319.653 10.9311 320.18 6.69945C320.719 2.37119 324.194 0.34862 328.069 0.830444C329.448 1.0033 330.441 1.33677 331.948 2.34806C332.126 2.46783 332.382 2.7101 332.382 2.7101L332.336 1.55182L332.541 1.57768L332.81 7.59913L332.62 7.57463C332.389 3.882 330.821 1.36535 328.081 1.02372C324.68 0.600421 322.597 2.68288 322.069 6.93492C321.54 11.1883 322.861 13.675 326.301 14.1024C329.079 14.4495 331.639 12.9999 332.839 10.7514L333.031 10.7732Z" fill="white"/>
<path d="M346.515 9.29561L346.693 8.02435C347.039 5.34165 345.684 4.87071 344.446 4.56583L343.206 4.25686L340.127 16.7258L340.682 16.8646L340.636 17.0484L337.936 16.3828L337.982 16.1977L338.536 16.3351L341.615 3.86759L340.357 3.5559C339.117 3.24966 337.678 3.03189 336.757 5.57167L336.321 6.77896L336.136 6.73268L337.584 2.69434L347.278 5.08849L346.698 9.34188L346.515 9.29561Z" fill="white"/>
<path d="M348.37 12.2343C349.84 8.32667 353.566 6.9193 356.92 8.18103C360.272 9.44276 362.068 13.0074 360.625 16.843C359.188 20.6608 355.381 22.1199 352.028 20.8582C348.676 19.5965 346.932 16.0522 348.37 12.2343ZM358.86 16.1815C360.301 12.3446 359.833 9.48087 356.924 8.38655C353.999 7.28543 351.596 9.06982 350.153 12.9054C348.71 16.7395 349.114 19.5611 352.023 20.654C354.948 21.7551 357.416 20.0157 358.86 16.1815Z" fill="white"/>
<path d="M371.423 25.8953L371.545 25.6585L371.715 25.747L371.582 26.0001C370.895 27.3177 370.184 28.02 369.569 28.2146C368.008 28.7332 365.702 27.594 366.534 24.8473C367.402 21.9904 368.03 20.666 367.714 19.7051C367.406 18.7714 366.308 18.1984 365.23 18.5386L362.022 24.6853L362.528 24.9494L362.441 25.1181L359.975 23.8319L360.063 23.6631L360.569 23.9272L366.5 12.5621L365.992 12.2981L366.08 12.1279L371.838 15.1332C374.489 16.5188 375.528 18.5645 374.452 20.6225C373.395 22.6478 371.517 22.9159 369.32 22.2217C368.662 24.3913 368.378 24.9739 368.016 26.2465C367.58 27.7382 368.582 28.412 369.604 27.9764C370.241 27.7069 370.911 26.8753 371.423 25.8953ZM369.385 21.9754C370.88 22.3265 372.057 21.2649 372.841 19.7623C373.907 17.7179 373.355 16.1404 371.176 15.0039L367.951 13.3216L365.341 18.3195C365.796 18.1494 366.814 17.9275 367.971 18.5101C369.103 19.0994 369.863 20.0753 369.385 21.9754Z" fill="white"/>
<path d="M376.778 33.3183L377.246 33.6477L384.638 23.1646L384.172 22.8339L384.281 22.6787L386.555 24.2834L386.446 24.4386L385.979 24.1092L378.586 34.5937L379.053 34.923L378.942 35.0782L376.668 33.4735L376.778 33.3183Z" fill="white"/>
<path d="M389.363 27.9731L381.889 36.9563L382.329 37.3224L382.206 37.4694L381.138 36.5793L381.259 36.4323L381.7 36.7998L389.39 27.5526L389.476 26.5848L388.935 26.1329L389.058 25.9873L391.138 27.7186L389.455 41.6929L396.892 32.7533L396.454 32.3871L396.575 32.2415L397.645 33.1316L397.522 33.2773L397.084 32.9112L389.414 42.1284L389.299 43.3684L387.833 42.1502L389.363 27.9731Z" fill="white"/>
<path d="M399.97 44.5791C403.147 41.8732 407.088 42.4462 409.412 45.1725C411.734 47.9015 411.576 51.8895 408.456 54.5463C405.353 57.1895 401.316 56.6233 398.994 53.8943C396.669 51.1667 396.864 47.2209 399.97 44.5791ZM407.234 53.1104C410.352 50.4535 411.328 47.7205 409.314 45.3562C407.288 42.9771 404.324 43.3731 401.206 46.03C398.086 48.6868 397.075 51.3477 399.086 53.7147C401.114 56.0925 404.114 55.7658 407.234 53.1104Z" fill="white"/>
<path d="M415.011 54.7237L405.279 61.1861L405.594 61.6625L405.436 61.7673L404.668 60.6077L404.827 60.5029L405.142 60.9806L415.161 54.329L415.522 53.4252L415.132 52.8386L415.29 52.7324L416.787 54.9864L411.17 67.8881L420.854 61.457L420.538 60.982L420.698 60.8758L421.467 62.0368L421.309 62.1402L420.993 61.6639L411.005 68.2937L410.537 69.4506L409.482 67.8623L415.011 54.7237Z" fill="white"/>
<path d="M411.704 71.1787L411.943 71.636L423.315 65.7139L423.051 65.2063L423.22 65.1191L424.503 67.5854L424.335 67.6725L424.072 67.1662L412.7 73.0897L413.977 75.5396C415.004 77.4737 416.364 78.353 418.848 77.5554L420.442 77.0259L420.529 77.1947L415.496 78.8702L411.536 71.2658L411.704 71.1787Z" fill="white"/>
<path d="M420.768 91.2037L420.591 91.2745L419.554 88.6503L419.734 88.5809L419.942 89.1131L423.525 85.8356L421.698 81.2093L416.906 81.4216L417.115 81.9524L416.938 82.0232L416.413 80.6934L416.591 80.624L416.801 81.1562L429.176 80.6961L430.201 79.6562L430.873 81.3576L420.557 90.6729L420.768 91.2037ZM423.682 85.7117L428.954 80.9071L421.903 81.2093L423.682 85.7117Z" fill="white"/>
<path d="M427.3 101.917C424.891 102.576 423.322 101.033 422.4 97.6666L421.084 92.8701L421.268 92.8197L421.419 93.3723L433.79 89.9791L433.639 89.4293L433.823 89.3789L435.007 93.699C435.855 96.7887 435.732 99.1515 433.452 99.7762C431.669 100.266 430.061 99.2264 429.466 97.0568L429.356 97.0854C429.945 99.2345 429.211 101.392 427.3 101.917ZM426.806 100.115C428.848 99.5558 429.562 98.0545 428.837 95.4099L428.246 93.2594L421.867 95.007L422.509 97.3426C423.18 99.7858 424.582 100.726 426.806 100.115ZM428.431 93.2076L428.955 95.1186C429.581 97.3971 430.771 98.5717 432.977 97.9674C435.182 97.363 435.399 95.8413 434.754 93.4894L434.24 91.6138L428.431 93.2076Z" fill="white"/>
<path d="M431.477 111.425C431.577 112.141 431.057 112.828 430.321 112.93C429.605 113.029 428.934 112.507 428.836 111.791C428.734 111.055 429.237 110.389 429.953 110.288C430.691 110.188 431.375 110.688 431.477 111.425Z" fill="white"/>
<path d="M436.091 132.586C433.745 132.605 432.147 130.597 432.123 127.699L432.094 124.23L426.662 124.275L426.668 124.847L426.476 124.848L426.454 122.065L426.645 122.063L426.649 122.635L439.477 122.531L439.473 121.96L439.663 121.957L439.708 127.524C439.736 130.612 438.453 132.565 436.091 132.586ZM436.095 130.755C438.4 130.736 439.534 129.507 439.515 127.048L439.492 124.17L432.285 124.229L432.309 127.088C432.329 129.472 433.789 130.774 436.095 130.755Z" fill="white"/>
<path d="M428.767 145.888L429.032 145.917L429.012 146.106L428.727 146.077C427.249 145.926 426.333 145.526 425.925 145.024C424.867 143.767 425.071 141.203 427.931 140.962C430.906 140.71 432.369 140.804 433.144 140.155C433.898 139.524 434.023 138.292 433.309 137.414L426.413 136.706L426.355 137.276L426.166 137.256L426.449 134.49L426.639 134.509L426.579 135.078L439.331 136.385L439.39 135.816L439.579 135.836L438.918 142.296C438.614 145.273 437.096 146.993 434.785 146.755C432.511 146.522 431.57 144.875 431.404 142.581C429.145 142.77 428.497 142.722 427.182 142.855C425.635 143.001 425.38 144.184 426.16 144.972C426.647 145.459 427.668 145.775 428.767 145.888ZM431.656 142.545C431.883 144.061 433.304 144.764 434.989 144.935C437.284 145.171 438.545 144.074 438.794 141.629L439.165 138.011L433.556 137.437C433.883 137.795 434.465 138.659 434.352 139.951C434.223 141.219 433.597 142.284 431.656 142.545Z" fill="white"/>
<path d="M431.539 148.617C435.61 149.539 437.515 153.037 436.726 156.53C435.935 160.024 432.648 162.291 428.651 161.387C424.674 160.487 422.705 156.917 423.496 153.42C424.286 149.928 427.56 147.717 431.539 148.617ZM429.067 159.548C433.065 160.452 435.837 159.594 436.523 156.565C437.213 153.516 435.116 151.38 431.12 150.476C427.121 149.573 424.384 150.361 423.7 153.392C423.01 156.441 425.07 158.644 429.067 159.548Z" fill="white"/>
<path d="M422.089 175.618L422.289 175.062L417.447 173.315L417.514 173.137C417.514 173.137 419.803 174.034 419.694 172.613C419.609 171.627 418.46 169.99 419.218 167.914C420.624 164.065 424.107 162.414 427.938 163.812C431.861 165.245 433.233 169.155 431.892 172.825C431.181 174.778 430.266 175.946 429.232 176.724L430.164 177.005L430.099 177.182L425.996 175.969L426.062 175.789L426.611 175.949C429.159 176.697 430.812 175.231 431.699 172.795C432.897 169.519 431.187 167.028 427.284 165.603C423.436 164.198 420.6 164.683 419.407 167.943C418.984 169.106 419.241 170.459 419.743 171.475C420.097 172.173 420.691 172.713 421.944 173.171L422.858 173.504L423.055 172.966L423.233 173.033L422.265 175.683L422.089 175.618Z" fill="white"/>
<path d="M416.691 186.643L412.384 183.546L416.448 175.439L416.619 175.524L416.363 176.036L427.826 181.782L428.056 181.322L428.226 181.409L424.469 188.902L420.355 187.584L420.441 187.414L421.103 187.62C423.839 188.457 424.939 187.497 425.938 185.547L427.091 183.248L421.709 180.549L419.787 184.382L421.491 185.235L421.407 185.405L417.83 183.613L417.914 183.443L419.617 184.296L421.54 180.465L415.629 177.501L414.073 180.601C413.16 182.423 413.406 184.017 415.414 185.494L416.775 186.475L416.691 186.643Z" fill="white"/>
<path d="M413.099 199.301L414.246 199.878C416.672 201.072 417.557 199.941 418.245 198.867L418.935 197.793L408.126 190.858L407.818 191.34L407.656 191.238L409.159 188.896L409.318 188.999L409.009 189.479L419.819 196.414L420.518 195.323C421.208 194.249 421.877 192.956 419.771 191.268L418.768 190.465L418.87 190.306L422.226 192.979L416.837 201.382L412.996 199.463L413.099 199.301Z" fill="white"/>
<path d="M404.923 209.703L405.999 210.399C408.285 211.845 409.282 210.815 410.084 209.821L410.882 208.826L400.879 200.782L400.52 201.227L400.373 201.109L402.115 198.94L402.262 199.059L401.904 199.505L411.908 207.549L412.719 206.539C413.521 205.547 414.322 204.334 412.409 202.429L411.497 201.524L411.617 201.375L414.668 204.393L408.411 212.169L404.8 209.852L404.923 209.703Z" fill="white"/>
<path d="M401.495 210.116C404.418 213.094 404.128 217.067 401.571 219.576C399.013 222.088 395.023 222.213 392.152 219.288C389.295 216.378 389.574 212.31 392.132 209.8C394.689 207.29 398.638 207.204 401.495 210.116ZM393.5 217.966C396.37 220.89 399.166 221.671 401.382 219.495C403.612 217.305 403.005 214.376 400.135 211.452C397.267 208.529 394.537 207.708 392.321 209.884C390.089 212.074 390.629 215.041 393.5 217.966Z" fill="white"/>
<path d="M374.767 228.524C373.34 226.473 374.278 224.476 377.142 222.486L381.229 219.649L381.338 219.806L380.869 220.131L388.185 230.669L388.655 230.343L388.764 230.499L385.085 233.055C382.454 234.881 380.183 235.554 378.834 233.611C377.779 232.094 378.225 230.229 380.072 228.946L380.007 228.85C378.176 230.126 375.898 230.153 374.767 228.524ZM376.301 227.459C377.508 229.196 379.162 229.37 381.414 227.805L383.248 226.534L379.476 221.1L377.486 222.482C375.404 223.929 374.985 225.565 376.301 227.459ZM383.357 226.692L381.729 227.823C379.787 229.169 379.077 230.686 380.381 232.563C381.685 234.443 383.192 234.14 385.197 232.747L386.793 231.639L383.357 226.692Z" fill="white"/>
<path d="M363.042 234.881L363.17 235.118L363.002 235.207L362.865 234.956C362.156 233.649 361.971 232.665 362.156 232.046C362.597 230.461 364.83 229.185 366.645 231.409C368.53 233.725 369.28 234.987 370.252 235.26C371.199 235.529 372.288 234.938 372.609 233.853L369.302 227.757L368.799 228.028L368.708 227.862L371.154 226.533L371.245 226.701L370.743 226.973L376.857 238.245L377.359 237.973L377.45 238.141L371.738 241.238C369.108 242.665 366.833 242.382 365.723 240.34C364.632 238.328 365.462 236.623 367.264 235.19C365.833 233.43 365.507 232.87 364.653 231.858C363.661 230.663 362.541 231.119 362.33 232.209C362.201 232.889 362.515 233.91 363.042 234.881ZM367.434 235.384C366.308 236.427 366.533 237.999 367.342 239.489C368.441 241.516 370.058 241.939 372.218 240.766L375.418 239.031L372.727 234.074C372.616 234.547 372.231 235.515 371.101 236.148C369.978 236.756 368.745 236.841 367.434 235.384Z" fill="white"/>
<path d="M349.889 236.805L349.816 236.628L352.427 235.56L352.499 235.738L351.97 235.953L355.289 239.498L359.897 237.616L359.628 232.825L359.098 233.041L359.026 232.864L360.35 232.323L360.422 232.5L359.893 232.717L360.498 245.09L361.549 246.103L359.856 246.794L350.414 236.586L349.889 236.805ZM355.417 239.653L360.284 244.871L359.898 237.822L355.417 239.653Z" fill="white"/>
<path d="M350.701 248.771L347.492 237.543L346.943 237.7L346.891 237.516L348.228 237.134L348.281 237.318L347.731 237.474L351.036 249.032L351.785 249.649L352.464 249.454L352.515 249.638L349.914 250.381L339.325 241.125L342.52 252.298L343.067 252.14L343.12 252.325L341.783 252.706L341.73 252.522L342.28 252.364L338.988 240.844L338.028 240.049L339.859 239.524L350.701 248.771Z" fill="white"/>
<path d="M336.193 240.692L335.63 240.784L337.672 253.436L338.236 253.345L338.266 253.534L333.021 254.381C328.152 255.167 325.418 252.928 324.786 249.017C324.164 245.162 326.425 242.077 330.466 241.425L336.163 240.506L336.193 240.692ZM330.835 241.558C327.431 242.106 326.025 244.863 326.647 248.716C327.269 252.571 329.644 254.733 333.01 254.19L335.942 253.715L333.899 241.061L330.835 241.558Z" fill="white"/>
<path d="M315.606 243.088L315.036 243.102L315.308 255.929L315.879 255.914L315.882 256.106L313.101 256.166L313.097 255.974L313.668 255.962L313.397 243.136L312.824 243.148L312.821 242.958L315.603 242.896L315.606 243.088Z" fill="white"/>
<path d="M310.514 243.301L309.945 243.264L309.131 256.059L309.701 256.094L309.688 256.285L304.385 255.948C299.46 255.635 297.291 252.844 297.541 248.887C297.79 244.99 300.68 242.483 304.767 242.743L310.526 243.109L310.514 243.301ZM305.098 242.955C301.656 242.736 299.673 245.111 299.424 249.007C299.176 252.904 301.013 255.543 304.416 255.758L307.383 255.948L308.197 243.154L305.098 242.955Z" fill="white"/>
<path d="M285.438 245.409L287.183 240.395L296.115 241.987L296.082 242.175L295.519 242.075L293.269 254.702L293.775 254.792L293.742 254.98L285.487 253.509L285.579 249.187L285.766 249.223L285.758 249.917C285.732 252.778 286.968 253.559 289.122 253.963L291.656 254.415L292.712 248.486L288.489 247.734L288.155 249.61L287.966 249.578L288.67 245.636L288.858 245.669L288.523 247.546L292.746 248.297L293.907 241.787L290.492 241.179C288.483 240.821 287.025 241.509 286.182 243.857L285.628 245.443L285.438 245.409Z" fill="white"/>
<path d="M280.336 250.965L283.59 239.748L283.041 239.588L283.094 239.405L284.43 239.792L284.377 239.976L283.827 239.816L280.479 251.365L280.788 252.288L281.464 252.484L281.411 252.668L278.813 251.914L274.764 238.439L271.526 249.604L272.076 249.762L272.021 249.946L270.686 249.559L270.739 249.374L271.288 249.534L274.626 238.022L274.236 236.837L276.065 237.369L280.336 250.965Z" fill="white"/>
<path d="M259.469 240.477L259.103 241.708C258.357 244.306 259.627 244.976 260.806 245.466L261.986 245.952L266.898 234.087L266.368 233.868L266.442 233.692L269.013 234.755L268.939 234.931L268.411 234.713L263.5 246.581L264.698 247.076C265.877 247.563 267.265 247.993 268.557 245.621L269.168 244.494L269.345 244.567L267.307 248.342L258.082 244.523L259.293 240.404L259.469 240.477Z" fill="white"/>
<path d="M260.863 231.338L260.353 231.08L254.548 242.519L255.057 242.777L254.97 242.947L252.488 241.686L252.574 241.518L253.084 241.775L258.891 230.336L258.38 230.076L258.466 229.906L260.947 231.168L260.863 231.338Z" fill="white"/>
<path d="M242.918 231.177L242.37 232.338C241.235 234.793 242.386 235.647 243.476 236.312L244.567 236.974L251.239 226.003L250.751 225.706L250.851 225.544L253.227 226.989L253.128 227.153L252.639 226.855L245.967 237.825L247.072 238.499C248.165 239.162 249.469 239.801 251.111 237.654L251.888 236.634L252.05 236.731L249.46 240.15L240.93 234.961L242.756 231.077L242.918 231.177Z" fill="white"/>
<path d="M241.435 219.198L240.979 218.85L241.096 218.7L243.292 220.376L243.176 220.528L242.722 220.181L239.192 224.802L237.906 232.647L238.437 233.052L238.321 233.203L235.731 231.225L235.847 231.075L236.529 231.596L237.839 224.13L230.8 227.223L231.482 227.743L231.367 227.894L229.974 226.83L230.089 226.679L230.619 227.084L237.873 223.867L241.435 219.198Z" fill="white"/>
</g>

<g  class="rs__circles">
<path fill-rule="evenodd" clip-rule="evenodd" d="M312.376 10.3077C247.281 10.3077 194.307 63.2662 194.307 128.376C194.307 193.471 247.281 246.429 312.376 246.429C377.47 246.429 430.429 193.471 430.429 128.376C430.429 63.2662 377.47 10.3077 312.376 10.3077ZM312.374 255.733C242.142 255.733 185 198.606 185 128.374C185 58.1423 242.142 1 312.374 1C382.606 1 439.748 58.1423 439.748 128.374C439.748 198.606 382.606 255.733 312.374 255.733Z" fill="white"/>
<path fill-rule="evenodd" clip-rule="evenodd" d="M127.375 10.3077C62.2807 10.3077 9.30683 63.2662 9.30683 128.376C9.30683 193.471 62.2807 246.429 127.375 246.429C192.47 246.429 245.428 193.471 245.428 128.376C245.428 63.2662 192.47 10.3077 127.375 10.3077ZM127.374 255.733C57.1423 255.733 0 198.606 0 128.374C0 58.1423 57.1423 1 127.374 1C197.606 1 254.748 58.1423 254.748 128.374C254.748 198.606 197.606 255.733 127.374 255.733Z" fill="white"/>
</g>

<g  class="rs__letters"> 
<path d="M150.741 155.214C150.934 158.406 151.804 161.015 153.256 163.048H144.547C143.289 161.597 142.322 158.598 142.322 155.02V145.15C142.322 138.188 137.386 134.22 128.096 134.124H102.226V163.047H94V93.4033H131.094C146.095 93.4033 154.707 100.462 154.707 114.102C154.707 124.358 145.903 129.482 138.16 130.062C146.384 130.934 150.547 135.288 150.547 143.027C150.547 148.831 150.644 152.89 150.741 155.214ZM128.289 126.868C139.805 126.868 145.998 121.743 145.998 113.909C145.998 104.526 140.48 100.655 129.74 100.655H102.226V126.868H128.289Z" fill="white"/>
<path d="M288 138.72H296.709C297.869 151.488 303.869 157.196 316.933 157.196C326.998 157.196 334.547 152.939 334.547 144.525C334.547 138.334 330.577 134.853 325.16 132.915C322.449 131.95 318.578 130.886 313.645 129.723C298.355 126.242 290.806 122.857 290.42 110.861C290.42 98.5766 300.58 92 317.224 92C333.577 92 344.511 101.575 345.867 115.794H337.158C336.383 105.737 329.901 99.2567 317.222 99.2567C305.128 99.2567 299.128 103.027 299.128 110.476C299.514 118.214 305.61 120.533 317.222 122.857C329.512 125.567 335.997 127.693 340.158 133.107C342.191 135.914 343.254 139.593 343.254 144.235C343.254 157.195 331.157 164.451 316.545 164.451C299.128 164.453 288.871 155.455 288 138.72Z" fill="white"/>
</g>
</svg>
