<svg viewBox="0 0 440 258" fill="none" xmlns="http://www.w3.org/2000/svg" class="rs">

<g  class="rs__circles">
<path fill-rule="evenodd" clip-rule="evenodd" d="M312.376 10.3077C247.281 10.3077 194.307 63.2662 194.307 128.376C194.307 193.471 247.281 246.429 312.376 246.429C377.47 246.429 430.429 193.471 430.429 128.376C430.429 63.2662 377.47 10.3077 312.376 10.3077ZM312.374 255.733C242.142 255.733 185 198.606 185 128.374C185 58.1423 242.142 1 312.374 1C382.606 1 439.748 58.1423 439.748 128.374C439.748 198.606 382.606 255.733 312.374 255.733Z" fill="white"/>
<path fill-rule="evenodd" clip-rule="evenodd" d="M127.375 10.3077C62.2807 10.3077 9.30683 63.2662 9.30683 128.376C9.30683 193.471 62.2807 246.429 127.375 246.429C192.47 246.429 245.428 193.471 245.428 128.376C245.428 63.2662 192.47 10.3077 127.375 10.3077ZM127.374 255.733C57.1423 255.733 0 198.606 0 128.374C0 58.1423 57.1423 1 127.374 1C197.606 1 254.748 58.1423 254.748 128.374C254.748 198.606 197.606 255.733 127.374 255.733Z" fill="white"/>
</g>

<g  class="rs__letters"> 
<path d="M150.741 155.214C150.934 158.406 151.804 161.015 153.256 163.048H144.547C143.289 161.597 142.322 158.598 142.322 155.02V145.15C142.322 138.188 137.386 134.22 128.096 134.124H102.226V163.047H94V93.4033H131.094C146.095 93.4033 154.707 100.462 154.707 114.102C154.707 124.358 145.903 129.482 138.16 130.062C146.384 130.934 150.547 135.288 150.547 143.027C150.547 148.831 150.644 152.89 150.741 155.214ZM128.289 126.868C139.805 126.868 145.998 121.743 145.998 113.909C145.998 104.526 140.48 100.655 129.74 100.655H102.226V126.868H128.289Z" fill="white"/>
<path d="M288 138.72H296.709C297.869 151.488 303.869 157.196 316.933 157.196C326.998 157.196 334.547 152.939 334.547 144.525C334.547 138.334 330.577 134.853 325.16 132.915C322.449 131.95 318.578 130.886 313.645 129.723C298.355 126.242 290.806 122.857 290.42 110.861C290.42 98.5766 300.58 92 317.224 92C333.577 92 344.511 101.575 345.867 115.794H337.158C336.383 105.737 329.901 99.2567 317.222 99.2567C305.128 99.2567 299.128 103.027 299.128 110.476C299.514 118.214 305.61 120.533 317.222 122.857C329.512 125.567 335.997 127.693 340.158 133.107C342.191 135.914 343.254 139.593 343.254 144.235C343.254 157.195 331.157 164.451 316.545 164.451C299.128 164.453 288.871 155.455 288 138.72Z" fill="white"/>
</g>
</svg>
