<svg viewBox="0 0 19 15" fill="none" xmlns="http://www.w3.org/2000/svg">
<path fill-rule="evenodd" clip-rule="evenodd" d="M18.6113 8.31641L18.6113 6.7035L1.92337e-08 6.7035L0 8.31641L18.6113 8.31641Z" fill="black"/>
<path fill-rule="evenodd" clip-rule="evenodd" d="M18.6112 6.7035L18.6112 8.31641C14.037 8.31641 10.3145 4.59383 10.3145 0.0196323L11.9274 0.0196324C11.9274 3.70512 14.9257 6.7035 18.6112 6.7035Z" fill="black"/>
<mask id="mask0" mask-type="alpha" maskUnits="userSpaceOnUse" x="10" y="6" width="9" height="9">
<path fill-rule="evenodd" clip-rule="evenodd" d="M10.3145 15L10.3145 6.70339L18.6112 6.70339L18.6112 15L10.3145 15Z" fill="black"/>
</mask>
<g mask="url(#mask0)">
<path fill-rule="evenodd" clip-rule="evenodd" d="M18.6112 6.70323L18.6112 8.31613C14.9257 8.31613 11.9274 11.3145 11.9274 15L10.3145 15C10.3145 10.4242 14.037 6.70323 18.6112 6.70323Z" fill="black"/>
</g>
</svg>
