<?xml version="1.0" standalone="no"?>
<!DOCTYPE svg PUBLIC "-//W3C//DTD SVG 20010904//EN"
 "http://www.w3.org/TR/2001/REC-SVG-20010904/DTD/svg10.dtd">
<svg version="1.0" xmlns="http://www.w3.org/2000/svg"
 width="512.000000pt" height="512.000000pt" viewBox="0 0 512.000000 512.000000"
 preserveAspectRatio="xMidYMid meet">
<metadata>
Created by potrace 1.11, written by Peter Selinger 2001-2013
</metadata>
<g transform="translate(0.000000,512.000000) scale(0.100000,-0.100000)"
fill="#000000" stroke="none">
<path d="M2885 4534 c-143 -30 -271 -56 -285 -59 -65 -12 -148 -29 -445 -90
-176 -36 -333 -68 -350 -71 -16 -3 -48 -9 -70 -14 -22 -5 -53 -11 -70 -14 -48
-9 -75 -15 -93 -20 -9 -3 -33 -7 -52 -10 -19 -3 -44 -8 -55 -10 -11 -2 -96
-20 -190 -40 -200 -41 -223 -48 -293 -93 -73 -46 -138 -115 -173 -185 -57
-113 -59 -134 -59 -584 l0 -411 -44 -5 c-132 -15 -253 -143 -260 -275 -9 -168
101 -304 267 -330 18 -3 33 -6 33 -6 1 -1 4 -41 7 -88 7 -91 23 -217 31 -240
3 -8 7 -25 10 -39 37 -219 181 -522 345 -730 278 -351 659 -576 1126 -664 74
-14 161 -20 295 -20 176 0 275 10 395 41 33 8 71 17 84 19 32 6 173 56 247 87
199 84 411 233 574 403 82 86 97 103 173 205 185 247 315 615 334 949 3 52 7
97 9 99 2 2 65 4 141 5 125 1 142 4 179 25 47 26 81 79 88 134 9 74 -9 105
-134 232 l-118 120 55 60 c106 116 177 310 172 474 -6 199 -80 363 -227 502
-91 86 -200 142 -342 176 -38 10 -211 10 -260 1 -114 -20 -255 -91 -344 -171
-22 -20 -42 -34 -45 -33 -3 2 -35 21 -71 43 -73 43 -230 118 -272 128 l-28 7
0 274 c0 213 -3 274 -12 273 -7 0 -130 -25 -273 -55z m1330 -566 c68 -18 167
-64 209 -97 48 -38 130 -130 161 -181 38 -63 70 -152 81 -225 7 -48 6 -49 -12
-35 -10 8 -21 17 -24 20 -26 29 -290 179 -290 165 0 -2 -16 3 -35 11 -104 43
-322 54 -427 21 l-47 -15 -38 35 c-21 19 -55 49 -77 67 -21 17 -51 41 -65 54
l-26 22 42 39 c54 49 173 108 255 126 85 19 208 16 293 -7z m440 -733 c-15
-68 -69 -185 -102 -225 -10 -12 -33 -38 -50 -58 l-33 -37 -95 95 c-52 52 -95
98 -95 101 0 4 12 10 27 14 73 18 243 112 333 184 33 26 36 13 15 -74z"/>
</g>
</svg>
